<mxfile host="app.diagrams.net" modified="2022-09-01T01:28:34.489Z" agent="5.0 (Windows NT 10.0; Win64; x64) AppleWebKit/537.36 (KHTML, like Gecko) Chrome/104.0.0.0 Safari/537.36" etag="eQ1R_y5u1KFiaxCt2Bj6" version="20.2.7" type="github">
  <diagram name="Page-1" id="90a13364-a465-7bf4-72fc-28e22215d7a0">
    <mxGraphModel dx="2216" dy="900" grid="1" gridSize="10" guides="1" tooltips="1" connect="1" arrows="1" fold="1" page="1" pageScale="1.5" pageWidth="1169" pageHeight="826" background="none" math="0" shadow="0">
      <root>
        <mxCell id="0" style=";html=1;" />
        <mxCell id="1" style=";html=1;" parent="0" />
        <mxCell id="3a17f1ce550125da-1" value="Software Control" style="whiteSpace=wrap;html=1;shadow=1;fontSize=20;fillColor=#f5f5f5;strokeColor=#666666;strokeWidth=2;dashed=1;" parent="1" vertex="1">
          <mxGeometry x="970" y="344" width="183" height="60" as="geometry" />
        </mxCell>
        <mxCell id="9KNl5ypowHNoxKs9fsh--28" style="edgeStyle=orthogonalEdgeStyle;rounded=0;orthogonalLoop=1;jettySize=auto;html=1;exitX=1;exitY=0.5;exitDx=0;exitDy=0;entryX=0;entryY=0.5;entryDx=0;entryDy=0;" edge="1" parent="1" source="3a17f1ce550125da-2" target="9KNl5ypowHNoxKs9fsh--9">
          <mxGeometry relative="1" as="geometry" />
        </mxCell>
        <mxCell id="3a17f1ce550125da-2" value="&lt;div&gt;Telegraf Agent&lt;/div&gt;&lt;div&gt;&lt;br&gt;&lt;/div&gt;&lt;div&gt;Polling Data from device&amp;nbsp;&lt;/div&gt;&lt;div&gt;(support up to 200 protocol/plugin)&lt;/div&gt;" style="whiteSpace=wrap;html=1;shadow=1;fontSize=18;fillColor=#f5f5f5;strokeColor=#666666;" parent="1" vertex="1">
          <mxGeometry x="785.32" y="450" width="154.68" height="280" as="geometry" />
        </mxCell>
        <mxCell id="9KNl5ypowHNoxKs9fsh--16" style="edgeStyle=orthogonalEdgeStyle;rounded=0;orthogonalLoop=1;jettySize=auto;html=1;exitX=1;exitY=0.5;exitDx=0;exitDy=0;entryX=0;entryY=0.25;entryDx=0;entryDy=0;" edge="1" parent="1" source="9KNl5ypowHNoxKs9fsh--1" target="3a17f1ce550125da-2">
          <mxGeometry relative="1" as="geometry" />
        </mxCell>
        <mxCell id="9KNl5ypowHNoxKs9fsh--1" value="" style="shape=image;imageAspect=0;aspect=fixed;verticalLabelPosition=bottom;verticalAlign=top;image=data:image/jpeg,/9j/4AAQSkZJRgABAQEAYABgAAD//gA7Q1JFQVRPUjogZ2QtanBlZyB2MS4wICh1c2luZyBJSkcgSlBFRyB2ODApLCBxdWFsaXR5ID0gODIK/9sAQwAGBAQFBAQGBQUFBgYGBwkOCQkICAkSDQ0KDhUSFhYVEhQUFxohHBcYHxkUFB0nHR8iIyUlJRYcKSwoJCshJCUk/9sAQwEGBgYJCAkRCQkRJBgUGCQkJCQkJCQkJCQkJCQkJCQkJCQkJCQkJCQkJCQkJCQkJCQkJCQkJCQkJCQkJCQkJCQk/8AAEQgCWAJYAwEiAAIRAQMRAf/EAB8AAAEFAQEBAQEBAAAAAAAAAAABAgMEBQYHCAkKC//EALUQAAIBAwMCBAMFBQQEAAABfQECAwAEEQUSITFBBhNRYQcicRQygZGhCCNCscEVUtHwJDNicoIJChYXGBkaJSYnKCkqNDU2Nzg5OkNERUZHSElKU1RVVldYWVpjZGVmZ2hpanN0dXZ3eHl6g4SFhoeIiYqSk5SVlpeYmZqio6Slpqeoqaqys7S1tre4ubrCw8TFxsfIycrS09TV1tfY2drh4uPk5ebn6Onq8fLz9PX29/j5+v/EAB8BAAMBAQEBAQEBAQEAAAAAAAABAgMEBQYHCAkKC//EALURAAIBAgQEAwQHBQQEAAECdwABAgMRBAUhMQYSQVEHYXETIjKBCBRCkaGxwQkjM1LwFWJy0QoWJDThJfEXGBkaJicoKSo1Njc4OTpDREVGR0hJSlNUVVZXWFlaY2RlZmdoaWpzdHV2d3h5eoKDhIWGh4iJipKTlJWWl5iZmqKjpKWmp6ipqrKztLW2t7i5usLDxMXGx8jJytLT1NXW19jZ2uLj5OXm5+jp6vLz9PX29/j5+v/aAAwDAQACEQMRAD8A+VK7jRPgn8QvEelW2raT4Zurqxul3wzLJGA4zjPLA9Qa4ev0F/Z//wCSN+Fv+vQ/+htQB8f/APDPHxS/6E+8/wC/sX/xdH/DPHxS/wChPvP+/sX/AMXX6A0UAfn9/wAM8fFL/oT7z/v7F/8AF1n33wZ8fab5v2vw3cxeVjfmSP5cnA6N61+iNeYeP/8AmL/7sP8A6GaAPjz/AIU14+Nytt/wjdz5zJ5gTzI+V9fvVCfhN42Fn9sPh+4+z7tm/emM+n3q+x1/5Gq1/wCvD/2asJ/+RIH/AF8n/wBCNAHy3/wprx8bp7T/AIRu589E3snmR5C+v3qi/wCFS+N/s8Vz/wAI/ceTM2yNt6fM3Ix972NfYq/8jhff9eQ/9CFY3/Mr6L/19/8Asz0AfK//AAp3x550sH/COXPmQpvkXzI/lX1+9TP+FReOPKt5f+EeuNly22I70+c/99V9ff8AMe1r/rzH/oIqif8AkFeG/wDr4X/0KgD5QPwf8dK1wp8O3O62G6YeZH8gxn+9Sj4P+OybcDw7c/6SMw/vI/n4z/er62m/4+/FH/XFf/QTSx/e8L/7jf8AoAoA+Rj8IfHKi5J8PXOLUgTfPH8n/j1OHwd8eNJbxjw5cl7lS8Q8yP5wBkn73pX1jL/qvFH++n9atQf8hTw1/wBez/8AoqgD5BPwk8cCGeY+H7jy7dtkrb0+U5xj71SD4N+PTcR248N3PmyJ5ir5kfK+v3q+qX/5AniH/r7/APZxWrH/AMjLpv8A140AfIy/BL4hN93wxdHkj/WR9iQf4vUGnj4GfEYuUHha63DqPMj/APiq+y7b7q/783/oxq0I/wDj8m+n9TQB8TD4E/Eg4/4pW756fvI//iqP+FE/Ej/oVbvj/ppH/wDFV9wp1j+o/nSdm/CgD4f/AOFE/Ejj/ilbvn/ppH/8VTo/gL8S5m2x+E7tm9PNi/8Aiq+3u6Vb0r/j8X/e/o1AHw5/wzz8Uv8AoT7z/v7F/wDF0f8ADPPxS/6E+8/7+xf/ABdfoBijFAH593HwB+JtrEZZvCV4iDqTLF/8VWa3wj8cLbzXB8PXAihfy5G3p8rccfe9xX6B+Jf+QRL9RXldx/yLGtf9f7f+hLQB8qn4NePlultT4buROy7wnmR5K+v3qhPwm8bLaG8Ph+48gPsL70xu9PvV9jTf8jda/wDXof5msKb/AJEqX/r8b+YoA+XP+FNePvtf2T/hG7nz9nmbPMjzt9fvVF/wqXxv9kS7/wCEfuPIdtivvTBPp972r7F/5nNv+vL/ANmrFP8AyJtj/wBff/szUAfK5+D3jsXT2p8OXPnInmMnmR5C+v3qb/wqPxx9nguP+EeuPKnbZG29PmbJGPveoNfXT/8AI233/Xkf5CqZ/wCRa0D/AK+x/wChvQB8qH4O+PBJPGfDlzvt1DyjzI/lGM5+96UwfCLxy0dvIPD1xsuW2xHenznOMfer6+k/5CniD/r1X/0CqMP/ACC/DP8A18n/ANDNAHyh/wAKg8db7iP/AIR253Wy7pR5kfyDr/eoHwg8dN9mx4duT9q/1P7yP5//AB6vrU/8hDxL/wBcP/ZaSHr4W+jfyFAHyV/wqLxzi5P/AAj1x/ovE3zx/J1/2vY04fB7x2z28Y8OXO65UtEPMj+cAZz970r6w/g8Vf7y/wDs9WYf+Qh4Y/693/8ARVAHyH/wqTxwIp5f+EfuNlu22U70+Q5xj71SD4N+PTPFB/wjdz5kyeYi+ZH8y+v3q+qX/wCQT4j/AOvn/wBnrVT/AJGDRv8AryP/AKDQB8eH4S+N1t5bg+H7jyoX8uRt6fK3p96pj8G/Hq3S2p8N3Indd6p5keSvr96vqWb/AJFrWf8Ar+P/AKEtbM3/ACN9n/15n+bUAfHf/CpfG/2Vrv8A4R+48hX8svvTAb0+9Vxfgd8RXdkXwvdFkxuHmR8f+PV9P/8AMn3H/X9/UV2DapYadqFyLy9trYsFKiaVUz16ZNAHw+fhh4wWK7lOhzhLJ9lwd6fu2zjB+b1qUfCXxubm3th4fuPOuY/NiTemXXGc/e9K92u/Gvh2HT/FsDavamS5vCYQrbt+JOcEVYPxY8Gwa9od4dX3w2lkYZikEpKuVxj7vPPpQB89/wDCsvF/2O4vP7Dn+z20nlSvvTCNkDHX3FST/Crxpb3kdnLoNwlxKnmIhdMsvPP3vY17BJ8VPDK+G9a05bm4ee8vfPi2wNgruU8k9OhqzdfGPwtqvi7T7pJLuCGK38hmmiAwSGGeCeORQB49qPwa8faTZfbr7w3cwW24J5jSRkZPQcNUbfCHxyuof2cfD1yLvy/N8rfHnbnGfvYr6l+MvjTTdO+G1veRsby3uLuIJLAwZSPmOc5/2a8xvP2gLc+JRr1voDyxtbGARm6C985zsP5YoA8fPwz8XDT01H+xJ/sjv5ay70wW9OvtVj/hUnjf7bJZf8I/cfaIo/NePemVX1+9XcSfGadvDsOipo0SpFP54lNwSSck4xt96kn+PWtnV7nVotL09JZ7fyGRi7KF9RyOeKAPP7L4WeM9Rg8+00G4lj3bNwdOvpy1OX4UeNWuLm3GgXBltUEky70+RcZz970r1H4Z/GzTrZo9K1yAWsLzhxcJkhfXI649x+VZ/j74saponj7XoNHvbf7DcrFGJokWQMhiXuc56npQB50vwv8AGL29pcLoU5ivH8uBt6fvGyRgfN6g0/8A4VV40E93B/YNx5lmm+dd6fu1xnJ+b0rbb4keK/slpbpq5FtaP5lvshjwjZJyDtz1J61Wl8f+KZprid9cvBJdLsmZWC+YMYwcdeKAMwfCzxkY7SQaFPsvOIDvT959Pmqa6+EHjqyhea48O3McaJ5jMZI+F9fve1NuPGviOE223Wr8iAkxqZ2IT6DPH4V3o+ON74j8Fap4f1aB21Ca1EMF1DhS205ww47dx+XegDz8/CrxmDZg6FOPtql7fMiDzABnP3vQ96rS/D3xNALgy6Zs+zNtl3Txgqfpu5/Cq66nK58m9LkrxvPUfUd6sJayyKGijMinoyDIoArTeENYgaNZIrVTINy5vIenv8/H41LpvgXxDrEkken2AunjBLCKeNsAHGfvdOetWP7Puz/y7yflTbC21zTLpbqx823lRtyssgXH60AaB+DHj9c58NXPDBD+8j6noPve1L/wpf4gf9C1df8AfyP/AOKr2bwF8Yrm88jTfFEUaXEs0eLxGUAkZHzqOmc9R+XevV/7U07/AKCVh/4Ex/40AfIX/Cl/iB/0LV1/38j/APiqP+FL/ED/AKFq6/7+R/8AxVfXv9qad/0ErD/wJj/xo/tTTv8AoJWH/gTH/jQB8hf8KX+IH/QtXX/fyP8A+Ko/4Uv8QP8AoWrr/v5H/wDFV9e/2pp3/QSsP/AmP/GnR6hYzSLHHf2TuxwqrcIST6AZoA+Ro/gX8R5Y/NTwtdlMZz5kfqB/e9xSJ8DfiLIgdPC10VPQ+ZH/APFV9uaWQ2kqw5BQEf8AfaVHYf8AHnH+P8zTA+KP+FFfEf8A6FW7/wC/kf8A8VVPWPhD450DTbjU9T8PXNtZ2675ZWeMhBnGeGz3r7rrhvjf/wAko8Sf9ew/9DWkB8O0UUUAFfoL+z//AMkb8Lf9eh/9Davz6r9Bf2f/APkjfhb/AK9D/wChtQB6DRRRQAV5h4//AOYv/uw/+hmvT68w8f8A/MX/AN2H/wBDNADV/wCRqtf+vD/2asJ/+RIH/Xyf/QjW6v8AyNVr/wBeH/s1YT/8iQP+vk/+hGgDdX/kcL3/AK8h/wChCsX/AJlfRf8Ar7/9metpf+Rwvf8AryH/AKEKxf8AmV9F/wCvv/2Z6ANT/mPa1/15j/0EVQP/ACCvDf8A18L/AOhVf/5j2tf9eY/9BFUD/wAgrw3/ANfC/wDoVAFib/j78Uf9cV/9ANLH97wv/uN/6AKSb/j78Uf9cV/9ANLH97wv/uN/6AKQEMv+q8Uf76f1q1B/yFPDX/Xs/wD6KqrL/qvFH++n9atQf8hTw1/17P8A+iqYGe//ACBPEP8A19/+zitSP/kZdN/68ay3/wCQJ4h/6+//AGcVqR/8jLpv/XjQBrW33V/35v8A0Y1X4/8Aj8m+n9TVC2+6v+/N/wCjGq/H/wAfk30/qaALCdY/qP50nZvwpU6x/UfzpOzfhSAO6Vb0r/j8X/e/o1VO6VZ06RIbkPIwVQ3JP0amB0FFVv7Ss/8An5i/Oj+0rP8A5+YvzoAqeJf+QRL9RXldx/yLGt/9f7f+hLXcfEPxlpHh7w+091chjI4SOOPlnbrgV4+fHdvdaVfWcVo5+1XBnDlx8oJBxjHtQB303/I3Wv8A16H+ZrCm/wCRKl/6/G/pWPN8Q5H1WLUE05FMcRi2GXIPJ5zgetZz+Lrl9KbTfs8IiaUy7sndn0oA9GH/ACObf9eX/swrGP8AyJtj/wBff/szVzD+PdUOpHUFjtVmMXlY2EjbnPrVI+KNSNhHY74xBG/mKAgyGyT1/GgD0N/+Rtvv+vI/yFUz/wAi1oH/AF9j/wBDeuHfxXrEl292bzE8ieWziNRlfTGKrtruptBFbm8l8qFt0ag4CHOcj8zQB6g//IU8Qf8AXqv/AKBVGH/kF+Gf+vk/+hmvO31nUpHkka/uS8o2ufMOWHTB9aga8uWVUa4mKryoLnA+lAHqJ/5CHiX/AK4f+y1FHcQp/wAIwXmjUIG3EsBt4HWvLpJSxzI5JPdjTDIijJdQPUmgD01tQs0XxMGu4AZWHlgyD5/vdPWnrr2lx3nh+Rr+3228DrKQ4Ow+XjBx715j1qN7iKORY2cB2yVXuaAPQZPEGmDT9ch+1oZLmfdEACd43Zz0q0fGWipq2m3IuWaOC2McmI2yGxjHIrzG4vre1TzJpAiZ25PrUqSLIoZGDKe4oA7SXxXpx0fUbMGYyXF0ZUITjbkHn8qtT+PtPOuQaglvdNHHAYipCgk8+/vXnstyIpkiKOd4JDY4+marajq8GmQCe4DCPcFJHagDuD4wg/sWXThayFnuPO3lhgDjjH4U3XPF1nr13NLd6OskMsHleW03KnOQwbbwRXm3iPxamj6bBe2qR3Ilk2YLYwME5/SuXb4o3zHC2tqgPchjj9aAOTnuZIb64ZDwZGyp5B5NW7RFvw3lFUZequ2B+BrPuFcyNKcEOS2V6VLp/wB9/pQBp/2Yw+9cW6/8CqvNoqyvuN9bj6ZNPooAuo8w0eTR59YlksWkWYQgHaHAIDY9cE1znmvY3EiRPuUMQcjhh9K1qyLyGRJncr8rHINAG1CtlLCkjGZWZQSq4wDTzHp5BBS4IP8AtD/Cqlr/AMe8f+6KloAX7Lpg/wCXSRvrIaj1V7eS0O22CugAV9xJHP607NMlh+0RmLON3egCjpVw0N2oGGVs5U9DxW19sx923tx/wAVjQ2stteIHHHPPbpWhuHrQBZ+3SDokI+iCl/tC57SY+gFVcj1pQCeisfoKAM3VpXmu9ztubaOTVvTJpEtdquwG48A1PLpLXibvKkD9jtNJa6ddW8ZRoXPJ5AoAkM0h6yP+dNLE9STUv2O4/wCeRH1IH9aPsc/cIPrIv+NAE+iWxvNa0+23bDNcxR7sZxlgM/rX0OPgtO3TWVP0tj/8VXztaCexu4bqG4gimgkWRG3Z2sDkHGMdRX0Z8I/jdpzvcx+JZxDcrAiieJWkWXB6kAZB5+n0oAb/AMKTuP8AoMD/AMBj/wDFUf8ACk7j/oMD/wABj/8AFV6Z/wALo8E/9BST/wABpP8A4mj/AIXR4J/6Ckn/AIDSf/E0AeZP8Fpo0LvrKqqjJJtyAB/31U2meDLTw5caRdpdG8lubgESlNoVQVxgZPqea9GufiP4c8S6XqNlpd3NcTfZZCR5DqFG09SRgVy1z/x6+GP98fzWmkB2+j/8gSL/AK5D/wBDSm2H/HnH+P8AM07R/wDkCRf9ch/6GlNsP+POP8f5mhgWK4b43/8AJKPEn/XsP/Q1rua4b43/APJKPEn/AF7D/wBDWkB8O0UUUAFfoL+z/wD8kb8Lf9eh/wDQ2r8+q/QX9n//AJI34W/69D/6G1AHoNFFFABXmHj/AP5i/wDuw/8AoZr0+vMPH/8AzF/92H/0M0ANX/karX/rw/8AZqwn/wCRIH/Xyf8A0I1ur/yNVr/14f8As1YT/wDIkD/r5P8A6EaAN1f+Rwvf+vIf+hCsX/mV9F/6+/8A2Z62l/5HC9/68h/6EKxf+ZX0X/r7/wDZnoA1P+Y9rX/XmP8A0EVQP/IK8N/9fC/+hVf/AOY9rX/XmP8A0EVQP/IK8N/9fC/+hUAWJv8Aj78Uf9cV/wDQDSx/e8L/AO43/oApJv8Aj78Uf9cV/wDQDSx/e8L/AO43/oApAQy/6rxR/vp/WrUH/IU8Nf8AXs//AKKqrL/qvFH++n9atQf8hTw1/wBez/8AoqmBnv8A8gTxD/19/wDs4rUj/wCRl03/AK8ayn/5AniH/r7/APZxWrH/AMjLpv8A140Aa1t91f8Afm/9GNV+P/j8m+n9TVC2+6v+/N/6Mar8f/H5N9P6mgCwnWP6j+dJ2b8KVOsf1H86Ts34UgDulIQGjkBAIJAIP40vdKP4H+o/rTAw9ZtBYrG9lodreBvvKFVSvHXpyKy/tF7/ANChD/45/wDE12P/AC0j/wB3+grmtX0+9S7MkfiH7FFKTsjkjBwR1wcikB5R8aLiZ4dJjl0hNNO6Vht2/PwvoB0z+ted2WqS2rDJOK7v4zrcR3WlRT6quo4SVgyqF2ZK+hPpXm+KYHYWWqRXKgEgNV/jqK4OKV4WyhP0rc07XcYST9aANucT5QwsuAfmBHUe1UdXv5LOxnkhlQTIu5VbH8q0IpkmXchzUGoaXZ6rCYbuESL06kEfiOaAMPw942tNWURzEQz91Pet+aIzmN45mXac4B4Ye9c2vgHR4LosLSTysZVhO2QfwNWtW1dfC9tA0cW63LbXyxZh09TQA/xNqC2OnTAztbzbd0bYIyR2zWJ4c+IMdxtt9RISToH7GuostS0/XbUbDFMjDlHAIP4GoT4d0+OdpEsLIxsOF8hQVP5UAXtkF6I5lIYpyrA9KxfFzzR6XNGttPLkArJEN2GB7gciqviXX20OKCSyki2o+2SFcD0/KtHQ/FdjrMY2uEl7qeooA5bw14x1G3K219a3MqDjeIySPrxXexPHeRLJsI7jcMEUjWo81pkZsuBlScj8PSuN8aa5Jpslu1u8sNxGxBVl4Yf1FAGz4rsNSu9Olt7KCO4Vx93dtZT688Gue8PDxXpUggksWmhXAKmZMr+tavh7x5a6kFhuiIp+nPeul+zxOxmQAO4GWH8X1oASK7RlRZ9kUrjPllhmsrxJoN3q9o8FpeJEr9Y5Fyv4Ecj9awfGiauzwG1sLjfExKzQfOCPw5H41a8N+ItWcLBqGm3Y7CQxED/61AHHa9oN9olkI7i8iljWUL5abvlYgnPIHasCvSvieyvo1qRjd54+o+U15qKAJI5WizjBB6qehrRsLaOZWmSWOPPylHPSsqr1icRH/eoA0vsyjrdQ/hk0eTAOt2PwjNV80UAWPKth1uXP0j/+vT2ayKbGErj8BVSjNAE4+xIAFSfA6DcKPMtR0t3P1kqCk6UAWPOt+1qv4u1KLpEOUtoQfcE1WzRmgC2b9z/yzh/74FN+2yjoI1+iCq2aM0AWft9x/wA9CPoAKab24PWZ/wA6r5ozQBMbiU9ZH/OmmVz1Zj+NRZpc0APJpM02jNADs1v+Dz/ps/8A1z/qK58GvXf2bo0l8T6oJEVx9i4DDP8AGtAGdkVc0nTZ9Z1GCxtgPMmcICei5OMn2r6JktraONnNvFhQWOEHQVh3E0N3Fod5HAkPnXYOAOwfA/lTSAztA0C38NprlhAxfZarukYcudpJP69Kmuf+PXwx/vj+a1ek/wCQn4i/691/9Aqjc/8AHr4Y/wB8fzWmB2+jf8gSL/rkP/Q0pth/x5x/j/M07Rv+QJF/1yH/AKGlNsP+POP8f5mkwLFcN8b/APklHiT/AK9h/wChrXc1w3xv/wCSUeJP+vYf+hrSA+HaKKKACv0F/Z//AOSN+Fv+vQ/+htX59V9r/BaK8b4W+HTHq17Cv2Y4RBFtX526ZQn9aAPb6K4byb//AKDeo/lD/wDG6PJv/wDoN6j+UP8A8boA7mvIfiLr2mQX+qafJeRi6cRYiGSeGJOcdOCDzXS+Tf8A/Qb1H8of/jdfMGuXt0viDUbiSV5me5kLM3UncaAPaT420dNdgvBLK0SWnknEZzuznvWO/iqwPhwaaFnM3neZnaNuM59a880/WUnAWQ8+taqsGGQcg0Ad03xAsl1y41FLS4McsAiCkqCDkHPX2rLbxnENKsrEWpzazebvMg+bknGMcda5We2ScoxLBozuUg/5zWL4rvEtNLmSZZVDL8sijKgjnr2oA9Kbx9Ib68u0sEH2qIRFTLnaMYznFUZfG9wlvp9sYbdfsj74iScuQc8814v4Z+IEluVtdQJdOgk/xr0KGS31KBJVAdc7lJHQ+1AHRXXj28jN/cS/ZolvFCykqcAYxxzxTU8aanKlm8VxFi0BELKgOMjHfr0rjfEqXh06aK3szdLIpGEPzA9uO9cd4cu/E+kSiF9MvJIM42shyv50AetXXi7U4zMsl0wF8wEu2NcMe2eOKr3vi/ULKFLuW9uALVdqMhwyA8cY9qoW119oiUzR+U7D7jkZ/KqOvaff3lnJFYyxZdSpjlHB/GgDYtPEcup27vBqM0kcx3uBIcOfUjvUrXtzIQzXMzEDAJckgeleX6J4b8S6TdssE9oNhBeMynHP4cV3ceorbCKK/lijnk6BSSD+OKAOt0HxlqOiOqlzc2w6xSN0z6HtXqPhvxJY+JJnazc+cVy0DD515Pbv9RXh4IYZByKkhmltpVlhkeKRDlXRiCD7EUAfRyWlwTGfIl4P90+tQ3e2wXN5JFbB8BTNIqA/TJrzjwF8VpvDyz2+uy6jqUDkNG5kEjxew3YJB924r1vTrzRfHehRXf2RLuxnz+6u4BwQcEFWHXIoAqJpt06o6xgr13bhjH51BZCHUmmis72yuJIyN6xTq5Tr1AJxVTWPB40zy/8AhHPDdlJD/wAtI4tSlsmH+6EG38yKzLXwbodveyX7/D3Vo72XPmTpepIz565bz8n8RSAvXfiLRbDxHa+HrnVYItVnAEdttck5HHIXA6Hqah8ZaLqEEFrfQ2z3aWsjSSJB8z4K4yAcZ/Cr2n21pobNJo3w9uYJ26yKLWNm+rebml8PL47n1y4u9ek0u00cg+TZR/vJ19N0gAH86APmb4h6tc+JdaN35BghhQRRRFixAHUn3JyfbpXHSTCJsSKVHr2r62+IXwg0fx0hvLWU6bqoB23UIysntIvRvr1r5u8YeDNa8HXn2LxFY+SHJEV3H80E/wBD2PseaYHObgRkHNBIz6Go5LWW0OY/mT+7/hSxyLP0PPcHtQBoWWqy2zAFjiulstUiulAJAauO8o0+JpIG3ITQB3nX6Vh634RsdcH7ySeAk5PlNgE/QgiotN13GI5f1reimSZdyMDQByWkeC7fTJvMS5v4nViCpdcMPXpWpN4nttP1JdPusplRskY/eradFkUqwyD+Fcjrnw/k1i5Ew1aRAowqyRbyPxyKAN690XSdcUSXVrFcej9D+Y5rOtfCml6e3mfYIY3U/K6sx47dTUvh/wAMX2j4Q6s90nZPJx+uTW/JEwGJEIB4ww60AcnqHi8aLqy2twqG1dQUZf4frW/b3VnqsAZDHKh5wcGsnUfAWjajN5rpPE3pHJgfkc4qzpXhTT9GbNq1z/utKSPyoAnWyFkjMAHAJO4INwH4VyGp+NX0zWcwzi4tXAJUH7v+ea7/ABWBrsWg2zfaNT0+Elj/AK1oc5PuQP50AWtJ8Q2WsQhoZFyeq1K9p9niYW4YgZITP8ia5uPxP4V0477W0iRvWOEA/niumsdRttRhWW3lV1YZ4NAHlvjO8kuNRYeVcQqcFo5Vx8wGM1zoNekfFD/kGWf/AF2P/oJrzigAq7Y/6o/71Uqu2P8Aqj9aALNGaTNFAC5ozQqsxwqk/QVMlldSfctp2+iE0AQ0VdTRNUk+7p12f+2Tf4VOnhfW5BldMufxXH86LAZdFbaeCtffpp7D/ekQf1qZPAWvN1t41/3pV/pTswOepM11KfDnWD957RPrIf8ACpB8Orwf6zULJP8AgRP9KOVgclRXYj4eKP8AWa1bL9Ez/WpF8AWI+/rYb/di/wDrmnysDic0td2PAWkRjMmoXR+iY/pT18H+HU6z3z/jj+lHIwOBBpa9BXwz4bT/AJdruT6uf8RUq6J4cj6aU5/3pW/+Kp8jC55zXrv7N0scPiXVXldUUWQBJ/66LWfb6boROF0q1H/XRv8AGtrSo7Wwd2sIre2ZgAxtyASM98e9HIK57Y9zM2sajas5MUdkSq9snGTWZAQNJ8OE8D7T/wC1DXnD3t1I5d7m4ZmGCS5JIqEszdd5/Oq5QuepT3EKan4g3Sxrut1C5YDJ2dqzrrULMWvhwG7t8xODJ+8Hycr19K89CnspoaPepVkOD70coXPf9DdZNChZGVlMQwQcg/OlJYf8ecf4/wAzXjPhbxDe+FZz9l+a1kx5tszHa3IOR1weByK9Y8I6vb+I7AmyDmSA4ljYYZMk4+oqZIZrVw3xv/5JR4k/69h/6Gteg/YLn/ni1cJ8crO4j+E3iVmiYKLUZP8AwNagD4XooooAK+2vgoxHws8O9f8Aj2P/AKG1fEtfaHwZuNET4X+HluZtPWYWx3CRkDZ3t1zQB6DvPvRvPvVL7V4d/wCe+l/99pR9q8O/899L/wC+0oAubz718s6wc6ten1uJP/QjXtnjPW/DNiszf2xYW1wio0cazqvmAnB4zXhty4kuZXU5DOxB9cmgCuUKndGdrfzrR07WWiYRy/kao010Djn86AOwguI7hdyNUvWuOtr6aycZJK+tdHY6pFdKASA1AEotPLmeVWyGA+TA+X6VyPi/xI2mS28tnc/vEYrJCcjP1FdvVS+0mx1EZurO3mYDAaSMMR+dAGP4e8Z2WsoEdhHN3U1ufZo/NaaPh3A3HPDelZkGi6dpyK72VjG6/wDLVYlUf/WrDm8btpWtyWl06yWxOUdcfKPwoAr+O9QubdrdoYLiG4ibhwuVI+vSrnhfxnLehbe8tpg/QOEODXU2d9b6jCJIJAysOxphiNnb8tJKq5OcZb/69AFgxpJ+824YjGcc1xvjbTNav0jS1shMI23LLE4BH4E5rNu/Ftxp2vyNZmS5tZMEoATgn0ruNI1aPVrcSJFKhPUMhFAHNeGLrxNbbYb3T3kh/wCenmJx+tdhHcRykoHXePvKGyRTGsmgiItYc45EecD8K4XUbPxN/bjX2maXdIpxuVsAMfzp2A9CrV8O+KNU8L3gutNuDGf442GUcehH+TXOaPJqtxAv2/T3t5Mc5dT/ACNaHkSnt+tFmB7v4f8AizDrunzC30m6n1eGPeLGAg+dyASrHgAZyQefTNberWniLUbNGVnspiM+VZNvbtwWdkH6V8qaLZeKNO1KS5N1DGFlMkMkcrB0546Dg4r2/wAM/GzULKx+z69Zi/mQAJcQsEZv94Yxn3H5UcrEdrpcXi6zWKGRUljZzulvyu9R7eW7Z/Ej+lWbweKrklbQada4HBYtIJfU8qCpHpzn1rkpvjxGQQmgFgePnugP/ZKz5fjhdb90GjW8P/bYnP8A46KOVjO7sdJvLVWuGuYobpuX8lG8qUe6NjB9xWlqGj22t2p0/Vbe1vLW4XDwugYdPc+voMivJ5fjVrDIFjsNOjwc5wxyffmqrfGTxHligsk3f9M2b+bGnyMC3e/sy6Q+pzNp2s3lvYnkWjRiTy89lcsDj6g/Wok/Zc8PsweTV9U35x+72L25/gNUJfi14qkTYL6JF9Bbof5g1Um+JviufG/WZeDkYijGD+C0+RiOug/Zs8Ix7A9xq84PXM6jH/jlW4PgH4EQAPY3k2SeWu26fgRXncvjzxHKQW1y9BH92Xb/ACqrJ4p1qYYfWNQYen2h/wDGjkC563a/BHwArDGgxknkM08z8en+sNakHw78GabEGXQLCMFc7nBbHqec/ka8Gl1S9m/1l1dP/vSMarl2Y5Kkn3Bo5AufRyaX4ItFwbTQIivBMiRLnHfmo/7W8IWG3y7jQIufmKtEQPpzXzrl/wC5R85/h/lT5AufSKfEDwjbJj+17FCOCI+f/Qc1R1L4j+A762e1vb6K6hcYZGtZHB/8dr58xIewo2ye350ciC5veMdP8Kic3Hhi/naNj81tNEw2f7rHqPY/ma5ryX9qn2P/AHgKPLY/x/pT5EBD9nb2pktik8bRyqjxsMMrDII+lWfKP979KPK/2jRyIDir/wCFum3Vw0kF1Lao3WNQGA+melWdJ+H1vo8geHVL33X5dp/DFdb5a+po8pB2P5mnyoDF1fwtYa5bR2960zrG28FWAOcY9KzF+G/hyPraTyfWZv6EV1vlr6VDPAjL9xfyo5UBzLeDPDVquf7IB92mc/zamR2Ph+2+WPRbX/gTZ/nmr95ZISSEA/Csx7YgkYp2QFhZNJj+5pOnr/wFT/SpBqVvGf3dnZL9I/8ACqX2YntThanHSiwGgmuNnA8pB/sxmnTa1Iv3JG/74H9aoxWjFvumrMti7Lwh/KmBE2uXJP8ArpP++VFMbV7k/wDLSb/vrFOGmyn/AJZt+VOGlzH/AJZmgCA6lcHq8p/7aGpYb2VgQUz7sxNSrpMx/gA/EVYg0uROoFAGTLM7MSUT8qb5knov4CtltGkc5AH5GlGgyH/9VAGL5kvrj8BQrTZ++fyFbq+H27k/98//AF6kXQMHnP6UAYziZo+ZHP8AwKq3luerP+Zrqf7HGMH+dNGhxdyP++qAOY8lj1yaBbeq11Q0i3XqU/M0o020XqyUAc/ZWu6TpXQ2UIjHApy21rH0dR9BTt0C/wDLZvwoAnpD1qAzWw6yOfxppuLX/aP40AWMj2pNy+oqsbu1H8GaQ39uOkQoAs+YgP3hWt4Z8US+F9Wi1C3fco+WWLPEidx/hXPnU4h0jWmHVkHRUoA+qtI1ez1zToNRsWWW3nXcrA/ofcdK4v4/H/izvij5AP8ARB3/ANta4z4K+ILiGDUtMRwYkdZ41OTjOQ2PyWtX436nPN8KPEkbbdrWwzgH++tYtWA+HKKKKkYV754Cm2+ENMGekX/sxrwOvcvA748KaaP+mX9TQB1H2j3o+0e9U95o3mgDnPFMkU+sCKVUOIVIZ8YyWIxVQrt49OKZ4vkAvpgRy1smD6EFyP1xXNQeJZLTVZra6y8DSHa3eP8AxFAHUYpKSORJUWSNg6MMhgeCKdQAhGRgimKHgbdETj0qSg0Aaum62CAkp/OtuOVJV3KciuLePcdwO1vWrVlqsto4V+n6GgDoNSvI7aHayK5fjaehHvVHTtH8OyJvbSbZ5GOSXTd/PpWTrF+9xdKydNowKbp2pS2ZV8nB71cRHaW1rY2ahbazghUc4jQL/IVY3j+5+lUtN1aK8QAkBq0a0sBHvPZP0o3Of4KkpMj1FFgG5k/u4/Kj957U7co/iFJ5if3hQA3Ent+dG1z/ABYpfNT1pfMHYMfwpgNMbf3/ANKPK/2jTtxPSNz+FL+8PSJ/yoAb5Q/vGjyh6k0/bMekLfnS+VP/AM8wPqaAI/KX0P5ml8pfSn+RP6IPxo8iXu8Y/GkBH5a/3R+VKEX+6Pyp3ksOs8Y/Cjy1HW5X8BTAOlJSEQjrdH8KaWtR1nc/jQA+iozNZDq7n8ab9psR/Cx/GgCXI9RRvX+8PzqE31mP+WWaadStR0hWgCfzEH8QpPNT1qA6vCvSJaadbUdEQUAWfNX3P4UeZnojn8KpNrxHTYKY2vN/eWgDRy56RP8AlS4lPSJqyTrr/wDPSmHW5D/G35UAbOyY/wDLMD6mjy5v7qD6msI6xKe7/lTTqcx7PQBv+VL3aMfjSGIn70sdc8b+Y/wt+dNN5Of4f1oA3mtIT96VD+FM+x2Q6un/AHyKwjdTn+6PxppuJe7oPxoA3/JsF/iH4AUu6xXua503D95VFNM57zigDo/tFkOxP40hvbQdI81zfnr3nNJ5qn+OQ0AdIdRth0iWmnVYh0iWuc3r6Sn8DRnP/LKQ/Wi4HQnWVHRUFMOuY7oKwee0B/OlCydoVH1NK4G0ddP99ajbXG/v1lBZf7iCjZMf7lFwNI6056O35Uw6vIe71R8ub++o/CjypO8v5Ci4Fs6pKez006jMf4W/OqvkN3laj7P6u/50XAsG+mP8P6003kx/uj8ah+zJ3LfiaPs0fpn8aLgPN1L/AHlFNNzJ3lUUC3j/ALgpRDGP4F/Ki4DDct3mFIbj/psTUojUfwj8qdgdqLgVvPz/AByGk357SmrWKMUAVck9IpDRh/8Anifzq1jtRigDoPh7qNtp+qTm9shcoYCAhI4O4c/lmtT4p69pF18P9bhg0dYJXgAWQEfKdwrmvDvGpTf9cv6infEL/kTNV/64/wDswqJAfPNFFFZjCvbvBJx4V07/AK5f1NeI19E/DzwVruo+C9Ju7ayDwyw5RvNQZG49iaAF3e9G6uh/4V74k/6B4/7/ACf/ABVH/CvfEn/QPH/f5P8A4qgR5vr0Uc2sBZBk+ShUHuQWz/OuE8SaVdWd7JdhA8LuWDL29jXp3jLQ7vStTS01CDy5TErgBgcAk4OQfY1kuiupRwGB4IPegZw2ga5JYOUbLwk5ZPT3FdpbXMV3EJYXDKf0rmdZ8KtEzXWnA8cmIdR9P8KzNO1Waxmyh2P0ZD91v8KAO+oqnpuqQ6lHlDtkX70Z6irlABTWUMMEZp1JQBUZdsyjOevX6VMoBTB5qKX/AF6/j/KpkHyirWwhFmlszviY4Hb0rtNEvoLmwVrlm81eDz1rjSoYEHoa09Idfsh3S+WQv5kH/wCvVpgdabmwH8LH8aab6yHSLNc6ZU73BpPNiP8Ay1kP0pgdEdTtR0gWkOsQjpCgrnd8XpMfwNG5P+eMh+tAG+dcUdEQU1tfPbaKwsjtbt+Joy3a3UfU0AbLeIH/AL61G2vyH/lpWXmXtFGPxo/f+kYoA0Trcp/jb8BUZ1iZu7n8KpYnP/LRB9Fo2Td5vyWi4Fs6lOe0lMN9cH+Fvzqv5bnrM35UeST1kk/Oi4E5urg/w/rTTPP/ALI/Gofs692c/wDAqBbR9wT/AMCNFwJDNN3dBTTM/eZBSC3i/uClEEY/gX8qAGmb1uBTTMv/AD3P4VKI0HRR+VLtHoKAIPNj/wCekhpN6HtKfwNWKMUAV8r2hkNHPaA/ias4xSYoAgG/tAo+po/enpHGPxqejHp0oAgxOe0Ypds3/PRR9BU1G00AQeXKesv/AI7R5LnrM1WNjHopP4UeW3oaAK/2cnrI/wCdH2ZT3c/jVjyz7D6mjb6lR+IoAr/Zo/Qn6k0v2eL+4Kmwvd1H40mYx/y1WgCMQxj+BfypREo6Ko/ClM0C9ZlFMa9s063CD8v8aAH7R6UYqu2racnW5T/voVE2v6Wv/Lwp/H/61AF0CjbWc3ibS16Sk/n/AIVGfFWn9FR3PspoA1cUuKyv+EkV/wDV2F0/0iJoOvXR+7pN0frHigDUxQBWQ2u6h200r/vuq0w61qrfdt7dfrcp/jQBt49BS7G/uk/hWJ9v1uTotsv0ct/LNGdek/jiH0hkP/stAG35bf3TR5Te351iiy16T/l4Yf7tuf64pRo2tv8AeurkfSJB/N6ANjYe5Uf8CFG1R1dfzrIHhzVHHzXd2f8AgSL/ACJp3/CJXTffnnP1ucf+yUAahKd5Vphnt1+9OgqgPBeeXYn/AHp2P/soqRfBNuPveV+O8/8AswoAsNf2Sfeuo/zH+NTQvDcjMMiv+PWqy+DLID5kgI/3H/nvrCntn8M67FFHIxtp+gJ6UgOmx69qXHpVi4UFYpf+eiZP1qHHrTAbjtRinYo280AdN8MNLtdW8T3FveIXjFqz4DEchl9PrXSfGDwlpFh8NNfubeB1ljtwVJkJwdy1jfCDjxhcf9ebf+hJXY/Gw/8AFq/Ef/XsP/Q1qJAfEdFFFZjCvvL4EaTbT/CLwzK+/c1qScH/AG2r4Nr7/wDgF/yR3wv/ANeh/wDQ2oA6XVtOt7DTbi6jDlol3AFuDWTp8sGoRI6S7Gd3jVHKgsysQcc89DW34rnitvD19LPKkUYjOWdgAPxryS+8T6ObPTVW/iYw6g0z7cnCeYxzwOeCOlAGB8dPDmo2muW+qm3drI26RmYDIRgzcHHTrxXmXXmvbdT+I+m3S6zaXF+LqyniVIEkgdgRt+YdARz614lQAVja14ch1IGWLEVx/e7N9a2aKAPOi13pN0ElDxyJ91h1H09RXWaPr8V+FimKpMehH3X+nv7Ve1HTLbU4TFOmfRh1X6VxOp6Rd6JLu5eEnhx0P19DQB39Ia5vQ/E6yBbe8bnoJD1H1/x/OukyCMg5BoArTf69f89qmj+4Khm/16/j/Kpk+6KtCFrQ0ZQ0UgIBqhWjon3Zh9apAXgo9MUY9KfRjvVANxSYp2OPel280AMxijFVNQ1e309gjgySt0RRk1R/4SG6b/V6Tdn/ALZGgDZx60Y9KxDrup9tLlX/AHsL/OmHXNWY/LbQr/vXCD+tAG8BS7D2U1z/APaWuSdEtl/7bBv5Zo369J/HCPpHIf5LQB0HlsOqmjYfp9awPsevSf8ALwB/u27/ANQKcNG1yTrdT/hEo/mwoA3NvqV/76FB293QfjWKPDeqv968uz+CL/7MacPCV4x+e4uD9ZwP5KaANfdEOsqUw3EC9ZlFZw8Fs2N8jn63JP8A7JT18EQ/xFMe7O39RQBba+sl+9cL+n+NRNrGnL965Q/iKRPBNmOqwH/gDn+b1Mng+yXkiL8IV/rmgCq3iHS1/wCW4P4//WqJvFGmD/lpn8/8K1U8L2S9MD6RRj/2Wpk0C0Tp5n4ED+QFAGAfFun5wqux9lNH/CTxv/q7G4f6Rk10g0m1UY/ff9/n/wAaX+yrPvBu/wB5if5mgDmzr92fuaRdn6xY/pTG13Ue2mOv++yrXULpViOfskH4oDUiWdsn3beFT7IKAOQOt6sx+W2t1+twg/rR/aOuSdFth/203fyzXaBVXoAPwxS/zoA4rOvSfxwj6RSH/wBlpRZa9J/y8Y/3bdv6gV2nfNFAHG/2Nrb9bu4H0iQfzYU4eHNUb715d/8Aji/yY12H86SgDkh4Su2+/cXJ+twB/wCymnDwYT953P1uCf8A2UV1Yo6dKAOXXwTB/EY/xLn/ANmFSr4Ksl6rAfojH+bmuj/Og0AYSeEbJe0Y+kKH+YNTJ4ZslH+EUY/9lrX9KD7UAZyaFaJ/z1/Btv8ALFSDSrUDGJj9ZnP9aufyo+lAFX+yrLvArH/aJP8AOlGmWK9LO3/79irOfSjp04oAiW1t4/uQRKfZAKlCgdAB9KKCfyoAD696KKDQAH9aT3pyo7dFY/QVILS4fpBKf+AGgCGirK6ZevjFrN/3yaeNH1Bhn7K+PfFAFI0Zp0kbwuUkUoy8EEc02gAyK4rx0capp/rz/MV2vfNcR47ONTsPof50gOlTm1tz/s0mKdFzZQfQ0YzzTAbijFOxzRjmgDf+HOqwaN4nmuJ0kZDasmEAzncvr9K6D4u+MLHUPhvr1rFFcB5LcAFgMfeX3riNC41h/wDrif5in/ENv+KL1b/rj/7MKiQHztRRRWYwr7o+BuoTRfCfw0ingWpxyf77e9fC9fb/AMEh/wAWq8Of9ex/9DagDO+P+qXcuhaZB55SJ7ksy7jhiF4z+Zrxa31GSAhZM/jXq37RQ/4kGmf9fDfyFeSYBXDDIoAuXl65jEkI3L/EO4qtUaRtG3ysdvoakoAKSlooASmSxJNG0cih1YYII4NPooA43W/C0lsWubDc0Y5MY+8v09ad4X1q4MpspfnQIzLntiuvNZs2kWyXbX8a7JQjBgOjZFADLHUY9UjiuYlZQcgq3YgVoJ90Vz3hT/kHR/8AXR66JfuitFsIWtHQvvTD61nVo6D/AK2UexpoDTxRinYoxVANxjtTJX8tGfPSpagvR/oz0AUPD+nJqDz3s5LKX2hQcbuAefYZAx7Gt3+yrAf8ucB+qA1neE/+QUR/01b+lbPbNICJbG1T7ltAv0QVKqIv3VC/QYpa7Lw78LNd8Qaeuo7rWxtHGY3unK7x6gAHj60N2A44fpRW/wCLfBeoeD5beO+ktpVuVLRSQOWBAxnqB6isCgA6/Sj3rqPHXgtfBkthGt6139rh80kx7Nvt1Ncvmi4B2zQPWlMbqocowVuhxwas2ek6hqCM9nYXVyifeaGJnA+uBTAq+9JXVeCrSxkTVnvdBvdWnigxCkKnZEx3ZL4II6D8jWdong7X/EULT6XpktxChwZAQq59AWIyfpSuBjUGvTfin4bjto/C9lp2mRxXlxC6PHBEA0jgR9cdTnP61zt/8MfEWn2c108VrK1uu+eCGdXliX1ZR/TNJNAcnRXYaV8L9a1fStP1O2ktfIvpCq5Y5jA3ZZuMADae/cVi+J/D8vhfWZtLmuYbh4gpLxZxyAR19iKdwMmjpQfyopgB9KDRmigAo9qKPb0oAKKPpR2oATrUkUMk77IkZ29FGaZXU+GYlSwMgHzO5ye/HSgDBXR79sYtZOfUYqQaDqJ/5d8D3Zf8a7Dp7Vq6Ro0WoWl3d3N6LSC1KBm8suSWJA4H0oYHnq+HNQY/cjX6vUi+GL3u8I/4Ef8ACvRLrwlqEeoy2lqouhGqP5oIRcMMjO4jBPpUMHhfVp5EiW1IdzIArMBgp94H06ii6A4UeFpz96eIfQE08eFGz812P+/f/wBeu7tPCd/chHLQQoyI4aR8Y3k7R06nFTWfhR45LZ9QnhiWS5+zmAk73IcBgMDHfrmldAcEPCsX8V0x+igVIvhe1B+aWY/iP8K6/wDsUXniOfTLZhEizSKGbJCIuSSfXAFXY/ClvMiXkeoNLp5hllaQQ7XHlkAgKT15HOad0Bwy+GrEHnzT9W/+tUi+HtOH/LEn6ua74eG7eKzuBbzGQT2sEqvNEAV3y7fw4qtfW1r4fvBNZw6gZLO58qSSXAjkwOxHQnnjnildAccNE08dLZfxJNTDRrVAD9ij54GU61val4gfUtOhs2t1UxlCZd2WchSMnj3rpPE2tww32o6ebm7uZJpUVYpABFBhgcryST+XWi4HDx6E7XP2aPTGM4GfLEPzY9cYzU0WiXZsmvUsJPsoBJlCfLxx1r0tri3XWjqZkRbh5jp5BPQK5Yn/AL5CiuZj8mfQIxeJY/ZobVhDMkp80SlydpXOe5yMdO9LmAwZfD+qQ+SJLKRTOwWMHGWY9OM1IvhnUftJgljih2x+c0jyL5YXOM7gSOvFdQ+oWceo297qEmmrcNckRzWjZHlGMjc3PQEr154NUjdWMelroc2oQCQ2pU3CkvGG87eFyAc8frRzMDlr2zn0+6ltbhNk0TbWAORn/CoOlaXiK9h1HWbm4tyWiYqqMRjcFULn8cVm1aA5fxQAL5DjBMY/max8YrZ8UEfbox6Rj+ZrFpALXDePTjU7Iein+ddxXC+PT/xM7Mein+dIDqrbnT7c+xp2KbZZOmwfjUmKYDcYoxmnYzS44oAfooP9sOAOTEen1FdB8QPBeoD4beINRmkiiFrapK0TZ3YZwAPrxXL2t/Jpmqi5iKh1XILDI6iul8QfEKfWfhv4z07UjG889grROi7fuyDII/4Fn8DWcnqB8uUUUVAwr6l+F3xDu9J8AaLYx2Vu6wwFQzFsn5jXy1XvPgT/AJFHTP8Arl/7MaAN34r+KrrxTo9rE9pFGYZtw8skk5HPX6VxKMrqCpyPWuj8Qf8AHtF/v/0rmpYGUmSEhW7qejUASA4+lLUMU6yEqcq46qeoqTpyKAHUUA56UUAFIaWkNACGkPPFKaQ0AUUtobSUJCgRSS20dMkVbT7oqGX/AI+F/wA9qnT7grRbCFxWhoH/AB8S/Q1n1oaAf9KkHsf5U0Br+tG2n4x70YqgGYqC9H+jP9KtYxVe+H+iv9KAIPCfOlnH/PVv6Vs1i+EP+QSfXzXra70AKB3r2fTPEXg7x14XsNC1y6Nhc2qIiguYxuVdoZW+6cjsa8YzzXf2HirwJc2FqmteFpmvLaJIzJbvgTbQBubBXk475qZIDYk+DjQeKtOsJL+W50eVZJck4ZAuMr6c5Xke/pWP4t8S+HLWXUNC07wnZRpAXt0uy371XHG7OM9R3NLrXxdv7vXrC/0y1S0tdPDLFbudwcMMHd+AGMdKr+IPH2i61HdTR+ELOHUblCr3TTF9pIxuC7QN3vSs+oHoHjbxHb6FrfhyNtJtLyW5jWNpbhdxjjLAEIOgPPX2q3Y6bpejeMPEotra2VHsIp/IAAXd+83ADtnAzj1rkdMmh+KF4mqa26adY6JblmSBm3yAck7v4QMdufT1q5peo+FPESSIPDNrpulb2iOrXF2kcqPtJBGfmZun8R681NgGaRrV14x+GniQ6skEn2MFrcJEqCIBdygADtj61r+LbrT/AAppehxW1/rFhYxx7ozpsaFJmwDlyTyT1x3ya8+8O3kuneEdRR9Xe1sL25a1kjishO8h8vOQS64GKTTPF3iTR/C7zWGuTpbxXQto4ZIkfClS2QWBI6dBTsB6J4e1C21bW/EuoW2n3Ngt1pkcjJcIEaQ/vBvwCeDgflWP4jsNV1P4c+GY/DCTzW4jAuI7U8l9o64/2t2feuFvtT8X6Y0uo3l3fwtfARSSs/LjGQp/u8HpxVZ/+Ei8NWQRb6ayiuMFoIrsBuRkbkVsrkeoFOwHtGp3ltpHinwc2rSLC/2OeLfKeFlKxjk/mM+9ZVxD4g0LxBf3ln4a0W1hlZzJqlxcnY8ZOSWy+efTFeY6xomqLqWn6bdanFe3FwI1iH2gyeVvCkA+g+YdPSo4NDkk1yx0lr23vWlfYyRysFjbJBUnb7ds0coHaazqnkfBXSra3uUR5piksauNxTfIcY64yBXlxJPU81p2mjwPpR1K9vvssbyNDCoiLtK6gFuhGANy8+/SsvtTQBRmj8aKoA60UUc/jQAdvrRR0o6d6AD2opKKACus8N/8gxf99q5P+daGm6zLpqtGEWSMnOCcYNAHYVs6Nr7aNpmoQwPJHdXDRGN1AwApOc5+tcE3iqY/dtowfdiajbxRdn7sUI/A/wCNDA9Es/EEUltc2+rpcXYmlScyJJh9yjGDkdMflVtPHVzG164t18y4nWdGDf6oAjI6c5CgV5Y3iS/YcGJfotRtr+ot/wAtwPog/wAKVkB6oPGs4u7uVrVTFcMjCJZWTy9owACuMjHUVQk8RXUn2QmOLda3DXCnB5ZiDzz04rzZta1BuDdP+GBUZ1O9brdTf99GiyA9Rm8VXclytzDbWVrcLJ5nmwwgMSQc5JzkHJzT7LxVPHqEdxdAiKONokitgsapu64GCDk9cjmvJzeXDZ3Tyn6uaYXZurM31NFkB6prniqTUZmEcjQQtCkBV3BZwpyCxwO/PFZt94jmv1RL3VPOEf3RJKDtrzrNHvTA7dtUsV63UX/fVNm8QWTuZJbzzHPJY7mJriqDRcDr28RaeM/vmb6IaiPiWxHTzT9F/wDr1yuaM0AdM3ii1A4imP1wP60xvFUY+7aufqwFc3mjqKAOgPipui2gH1f/AOtUT+Kbg52wRD6kmsU0hoAkubiW6maaZtzt+lRUpOKT9KADt1rhPH2P7TtMf3T/ADruulcH4+OdUtR6JSA63TznSrepsVDpYJ0iA/56VYx2NMBuKMZp230ox+X8qAMbV9/mNs64HfFYmqmZdG1AMw2tbSA4b2z/AErp5dJvtZvTa2EBmm2btoIHGRzz9atah8OdStPA3i7V9SEUQ020MYjDhmMjMo7cYAz+dZT3BHz5RRRUjCvevAf/ACKGmf8AXL/2Y14LXvfgNSfCGmf9cv8A2Y0AWPEP/HtF/v8A9Kwa3/EQItos/wB/+lYNAEFxbJOByVcdGHUVXW6e3cRXQAz91x0ar1NliSZCkihlPUGgBo55FOUg/WqcFvLayFVmDw9lbO4Vv2ttYTW6SvwzDJGTwaAMykrZMemJ15qrPcaWmRscn2oAzzSGmXd7ZbW8qOQNjg5pIpPNiST+8oNAEFw4jlDHoP8ACkF9GAozzUOqnETfUf0rGEh801ohHRrchu9a3h45vG9x/SuXtpCcV0vho5u/wpoDoMYoxz704daMelUA3FV74f6LJ9KtYqvfj/RJPpQBT8I8aUf+urVtdqxfCX/IKP8A11atmgBc0opOvWjvQAvaj6UGigD2ax0PV7/wPbaf4ZVJ7TUbNFuJ7m8JEL5+dETtznPHesTxRd2HgrwvbeGtO1V7jVFZ3uWt9vlgtjO4kE5wNoAI9T2FedQ3tzBG0UNzNHG/3lRyA31A61D39anlA6zw74kt9P8ADsmnnV9R0uc3fnmS0i3l02AY++uOayDq0SaLLYL5kkhvluVkdRgqFYcjPXmskn1oJ57k07AdN4o8U22vRyGGG5he4mFxLGxj8tWwem1QW+8eWP59aoa/rFnrUpu0sJLe9lYNPJ5+5GOMHau0Fc9eprIz9KDn1osBt3HiXzr/AE7UFsoY7uz8ndJvYibywoXI7cIM4qlZavPY6xHq0KRmeObzlVgSu7Ofyqhj/wDXQWUHqKLAaVlr95Y2MliqW01u7Fws8KyeWxGCy5HBIA/IVnH1o+905+nNOEUp6RSH6KaAG/Wg1ILW4bpBL/3waeNOu2+7bSfoKYFfpRmra6Tet/y7kfiP8akXQ79uBEo+rUBYoZorUXw5fN2jHtk/4VInha8Y8uq/8BzQFjHo9a3l8I3LdZePZP8A69Sp4OlPWV/wAosFjnP60dq6hPBeeskp/L/Cpl8FR9G8w/8AAqLDschRXap4Kg7xt/30f8alHg62TlolH+9RYLHC0bgO+K7s+H9Lh/1j2aH/AGmUUz7LoFvy1/py/wDbVP8AGiwWOG3A9CKdsY9EY/QV2zX3huL72q2n/AWz/KoW1/wrDjOpIT/sxOf/AGWgLHIi3nbGIZf++DTxY3LjiCT8Riumbxb4XjHyzyv/ALsLf1xUTeOvDsf3Ybx/pGo/rRoFjBGl3zDItm/Mf41INFv26Q4+pFazfEXRl+5p10x9yo/qahf4mWY/1ejO3punA/8AZaLoLFIaBfnqiD8T/hT18O3px9wfia7TwjqMXifTpLxrVbfbKY9gbd0AOc4HrW2dPhH8NNK47HmX/CNXZ5LqPov/ANenjwxcYz5nPstekGzhH8NN+ywgH5afKFjx7UrS+s5Sq7SPdayotXlj1eHT7hBmaMsjjjkdj+Fel+ILaHexCivL9WQL4y0/bxiJ/wCTUmrA0bdFJmikSBpPWlpKADpXBePf+Qpb/wC5XeVwfjz/AJCtv/uUgOu0bnRoD/npVkDHWq2h86LCfcfyq31+lMBMelJj1p2MUGgDofhh/wAjyP8Ar0k/9lrsPi1FDpvwp8ZCJGzewLI3PCsGXJ/GuA8G6odG8WC5EXmn7O67d23rj2ra+LPjJtQ+HWuWpshH5sAG7zc4+Ze2KzluCPkqiiioGFfQHgBc+DtL4/5Zf+zGvn+vob4ernwZpX/XH/2Y0AO8TLi1i/3/AOhrna6fxWuLOH/rp/Q1zFABSUtFAFF7gC78jaeVLbv6VegbEQB2d+pPrWNfTGC7SXBIU849Ko3esO0p8oOEHA96AOoaVF6mL9TWfdXyKxAKfgtc1LrbqcMHzVaTWC3/ACzY/U0Abc9/knGPyrT08k2UJPdaxLHT5L+2juPOWMPzt25I5roIkWKJY0+6oAFAFDVhmJx7j+YrFCHzm4NdBeKHZQe7L/OoFtEMznHerWwiG1jPHFdL4aGL0A+lZkcKr0FaugcaioqkB0WMcGjHenAUmPSqATtiq9+P9Ek+lWgPyqvf/wDHpL9KAM3wj/yCm/67P/OtysTwjxpbf9dn/nW1QAUopPxpeaACij60jH5T9KANi38NXFxEkjMU3DOMVaTwi55aSQ/lXfw2sSQphB0FSLFH/cFVylWODTwcO7SH6mrCeDIjyUc/8CP+NduEQdFFSoq/3RRYLHEp4Ng/55fmSaefC9jFzIsCf72Kl+KhKeGUK8f6QnT6NXkHXrUydgPWDpWiwn57qwTHrIg/rSb/AA7COdTsB9JQf5V5RRU8wXPVG1bwvF97U4D/ALqs38hUbeJ/CkXS9L/7sD/4V5fRRzBc9Lbxp4Zj+79qf/di/wATUTfEDQU4SzvX/wCAqP615z3ra8KeGJvFF88Cy+RDEu+Sbbu2+gxkdcGjmbA6Z/iPpq/6vSp2/wB6QD+hqFvibEP9Xoq/8Cnz/wCy1nvonha/ium03WZoJIFOxLwKonPYhuMA+mM1g/2PqH9m/wBqfZZPsQO3zsDbnOP50XYHUN8Trn/lnpdov+8zH/CoX+JurH7lrYJ/wBj/AOzVlW3g3W7qOzlisv3d5/qGMijf8pb144B61al+H+vxQzyNbR7oASYhIC7AdwO4ovICR/iNrzfde2T/AHYR/XNQP4+8ROP+P8L7LCg/9lp0/gHWoNJbUvLikCcyQxvukjHuPbjj3q8/w4mtorSe91eytorkDazAk7jjC479f0o94DHfxjr8n3tVuBn+6QP5Cq7+I9Zk+/qt6f8Atsw/rXRW/wAOGTUm0/UtWtrOZyRbIBuacf3sZGB9epB9KS3+HjWf2mXXLs20NuxQLAu+SbgEFB3BzRZgcs+p30v+svLl/wDelY/1qu0jvyzsx9zmuvvPAkdlqOjk3UktjqcyoAybJUB5wRzzg/8A1q19Q8LeDdE1SPTrqa7nuJ3jVYvMx5YJAyzD86OVgeb5pa76Lwjp+latr0mo2azafYxeZCpnKjJ5RSwOckcd64FiGYkDaCcgdcUmrCE60Ud6OaQB1NHSgUgoAWko6UUAeufCcD/hG5v+vlv/AEFa7I1x3wnH/FNS/wDXy3/oK12TCto7FIhYVC/Aqw9QOAQaoDj9ec72FeY6oc+MrE+kL/yNeoa8o3NXl+qceNLL/rg/8mqZCZs0fWkzSmpJENHSik7UAH864Hx2f+JrCPRK77NcB46/5C0X+5SA7DQOdEiP0/lV3qcVR8O86HFz6fyq/imAgGKXrS4ooATSjt10Y/54n+lO+IrE+CdW/wCuP/swpumYGuj/AK4n+lb3xC8Jzt8LNZ1g3EQjW2WTYASSCVxz+NZyGj5WoooqACvo74cqT4J0k/8ATH/2Y18419K/DZQfA2j/APXE/wDoRoAb4wUiyg/66f0Ncniux8bACwgx/wA9f6GuOoASilqOSRYx8zAfWgChdQeZziqElkBnitWVgAMmqczDmgDBu7UCRuKpvABWjeODI2KpSNQBctZLzSYIpsb7ZxnI6D6+n1retNQiuk3RsAe6ntXE/wBr3iAxCd/LXgKemKdBd7j8hMb/AN0HAP8Au+n0oA7Sdg7IR/eH86kUfOfrWVo8jSWMbO5c+bjJHPUVrL98/WrWwiZRxWhoX/ITWqC1f0P/AJCaVSA6WjH50pGD6GjGaoBPrVe+/wCPST6VZwR9ar3/APx6SfSgDM8J/wDILbn/AJbP/OtmsXwn/wAgx/8Ars/862u9AC0dKQHn3ooAWkb7p+lLnmmv0J9qAPaI+YU+gpwpsf8Aqk/3RTgK0LHLUqjHtTAKkXtQM474r/8AIsJ/18p/Jq8gr1/4sf8AIsJ/18p/Jq8grGe5LCg0UVIgzRRRQAf0rqPB39vaZDda1pUccltD8txGzD5wBnGOvftXL5/+tVvS9XvtGnaewuXgdhhsdGHoQaEM7yyt9A8e2F7cSad/ZN1Am57qM4jz1JPQHnrnnHeokjeb4QBI1aRjN91Rk/670rk9V8V6prMXkTypHb94YECIx9SB1NQaV4g1TRBINOvZLcSfeC4IP4EdarmQXPXdNtprSx8KW86NHLGxVlbqp8h+KyfDUjyfE3XN7M22NlGTnA3Lx9K88bxRrbiENqd0fI5jO/lDjHB+hNVBqV8tzJdLeXAnl+/IshDP9T3p8wXPQvAblrPxaWYn73U+0lHj4qB4S5HBGeen+rrzZZpl3Ylcb/vYY/N9aaST1Ofxpc2lgueneKLu2HxK0aY3EQiRE3PvG1fmbqe1aOtazo1zNfLpWrWWn6oJI2e8cg712jIVuewAwO4ryNLeWXhIZGz/AHVJqzHoupy/6vTrt/pCx/pRzAeha/4m0i4k8MumqrdfZbhZJ5SDuAwPmYevtXJePNTtNY8Tz3dhL58LIiqwUjJCgd/eqcfhPXpfu6PfH6wkf0q9ZeDPFdvcxXVtpc8c0TB0ZtowRyDyaNWB0HjXUyPCllIzqt5q6xSXUeOqovBA7c4rzvpXaaj4L8ba9cfadRgMsmMAvNGMD2AOBTY/hR4ifG4Wkf8AvTZ/kDQ02Bxuc0V3cfwg1psb7yxT/gTH/wBlqzH8Grw/6zVrdf8AdiJ/qKOVhY86o6V6dH8GU/5aa0x/3bf/AOyqxH8HNOX/AFmp3bf7qqP8aORhY8pIpPwr2CP4R6Gv37i+f/gaj/2WrCfC3w2n3obiT/emP9MUcjCxifDnxHpGkeH5Ib+/it5TcMwRic4wOa6GX4heGY/+YkG/3YnP9Kcnw68MR/8AMMDf70rn/wBmqdPBXh2L7uk2xx/eBb+dWk0MyZfib4cX7s88n+7Cf61Sn+KeiKp2wXj/APAFH9a6hfDWixfc0mxH/bFf8KkGl2MX+rs7dP8AdjA/pTswPObTxfaeK5L0WtvPCLYrky4+bdnpg+1cbqox4zs/+uDfyavUtcRIy4VVUewxXl+q8+M7X/r3b+tD2EzVopOlLUkiUlKT+VIaAAcVwPjo/wDE2i/3K70niuB8cn/iboPRP6UgOw8NH/iSR/h/KtGs3wyc6HH+H8q0qYBRRRQBlajdz2Nw0ts4R9m3JUHgketdLc+IdS1L4FeKor7fcKiiKKUIAEUbODiuU1z77f7o/mK6K8tLaL4D6zK0cRmlR3DFYyw/eKvBLbh09KynuCPmuiiipGFfS3w2/wCRG0f/AK4/+zGvmmvq74VeFr6++HuiXETQBJICRuY5+8fagDK8a/8AHhB/11/oa43FeifEnQbrSdLtZZ2iKvPtGwk87T7V55QAh4rl9RvpH1C2gyQWlGfpmunboa5C4G/xDbD0YH9TQBp6jctHPtHoKoSXTkdan1U/6W30FUHPFAEEzlmJJqu5qVzzULmgDLbl2+ppDS/xE+9IaAOu8Ou0mmRFiSfNxk/UVtr98/WsDw64XSEb0m/qK1xeKHI981a2EXlq/ov/ACFI/wAKy45w1aeitnUoiPUVSA6o9TScfjTm+8aSqATntVe//wCPSX6VZ/8A11Xvv+PSX6UAZHhP/kGP/wBd3/nW324rE8Kf8g1/+u7/AM62qQC+1ApB6UtMA9qRvun6UtI/IP0oA9N13xfYeGhbxXkc7tKm5fLUHgcdzWI3xY00cR2F45/4CP612RtLe4SNpoIpGVQAXQEipo4YovuRov0UCq1LOHHxSeT/AI99AupM9Pn/AMFNOHxC1+b/AFHhS5P13n/2Wu7FSKKLPuB5d4ivfFviywFlL4dlgjEgkBVGByAfX61gx/D7xPJ00px/vSIP5mvchTutLkuFjxSP4YeJn4a0hT/emX+hq1H8JfED/ekskz6yE/yFexDmlp+zQWPJY/g7qrf6zULJfpuP9Ksx/Bmcn95rMa/7sBP/ALNXqNAFHIgsebx/Bm3H+s1iVv8AdgA/qatJ8HdJX/WX96/02j+ldZ4i1uDw9pFxqM5AEa/IvGWY9ABkZ/8ArVwPwd1W91bUdcmvJ5JGPlvtZiQhLOSAD0FJqKdgNuP4S+H0+896/wBZQP5Cpk+G3hSKVYngZ5CMhHuGDMPXAIrc1zxJpfhyOOXVLoW6ykiP5WbcR1HAPrXm3hfxS/i34oRXu1o4EgkSGNiCUUL7evX8aHyp2DQ7dvAfhOyheaXTYUjjUs7ySOQoHUnJrMN58NrX+PRjj/Z3/wCNbXju+i07wjqk0wcq0DRAKOdz/KP1NY/hXwBoD+H9PmvtFiN28CtL5obduxzkE03vZAamgv4S1wTHSLbT5xAQHKWwG3OcdVHoa3I7K2i/1dtCn+6gFQaZoum6Mrrp1lBaCTBcRIF3Y6Z/WrtUl3GZeveItL8M2q3Go3CwqxKooBLOfQAVi+H/AIlaNr15HZBLm0uZSRGk6Y3/AEI/zxWRJbTeLPibLFdxs2n6KoKrkFC5AIyD689P7ore8Z+EP+ElFnPaypb31rIGWXOPkzyOBn6fU1N3uhG9f30GmWU97dOUhgQu5AzgD6VwCfFi6uHku7Xw5dzaXGQpmB+fcR0wMjrU/wAYr5odI0+w2Ax3lyA5ycgLjp9c13VpZw2VnFaQJshiQRouc4UDA60at2QEGj6xaa7p8WoWUhkglBwSMEEdQfoauV5/8NryG213xFosMRSOG6eWPB+VF3bdoFegVUXdDQUE0UUwCkrN8Q60PD+lyai9u00UJHmhWAKqTjI9eo4q0L2JrAXw3eUYvNA74xmkBOaQ1leF9al8RaRHqbwLBHMzeUmSTsBIBb347VqnmgBhprU80w0ARtUTHg4qVqiboaAOR17O5q8t1M/8Vpbj/p3b+tep6995q8s1Qf8AFaW5/wCndv61MiWavOfpR70nSipJDvSUpNNzQAtef+OP+Qwn+4P5V39cB43/AOQwv+4P5UgOw8L86Ig+ladZfhU/8SRPwrUHNMAxQcUdaOOvagDE1z75/wB0fzFdx4otltvgLdp56gmwV/L8yP8AicN0xu7+tcPrn3z/ALo/mK9G+JY+y/CLVLTfOPKsY49p88DgqOhXb+uKynuCPkeiiipGFfbnwT/5JX4c/wCvY/8AobV8R19j/CDVms/A3h+3kIFsulG4YgcqQ5z/ADoAl+N3/ICsP+vr/wBkavGmOAT6V7H8aXWXw/psiNuR7kMpHQgocGvHG+6fpQBkXMt21yjJK3lFgCo42+xrIUbvEkA9AT+hrex84PQ5rEthu8SIfRCf0NAD75xJqohP8TKv6Cr0ml2QJB83jtmswAy+J1XsGz+S1sSHLE+9AFVrCwX/AJYufqapSR2o+7bj8TV+Y/KazZDQBWu/KW3kxCi/KegrnWrd1BsWsn0rCagDqNC50Uf9df6irLA/aSKr+H+dGH/Xb+oq4y/6U1aLYRdtgcCtrRONRi+tZEAwK19G41CL600B1rD5j25pKVvvHjvSfSqAKr33/HpJ/u1YFV77/j1l+lAGR4V/5Bsn/Xd/51sisbwt/wAg6T/ru/8AOtnOaAFB5oFIKXtQAvvTX6HntS01/un6UAe2R/6lP90U9a5bVLy90jxFpU/mzNpt2Ps8sf3gshHykD+HnGTT/FT3V9qGmaJZtNH58nn3DrkL5KclSw5GTgVVy7nUgU9a5w+KQFuJbWyaawtOJLppQi8dQufvYp9n4wtru90uJYittqkTvbyMTuLKeVKgccc5z2p3QHSClFYtvr7XOuahYxov2fT4laZyDu3sCcDtgAD86p6RrWr+ILF9XsTZQ2LM3kQyoxkkVSQSzA4XJB7Hii47nTg0orA8Da3deIfDdvqN75fnytIG8tcDhyBx9BW/TTuAUUVm+I9XXQdDvNTZS3kR7gAM/MTgfqRTYHN+ILkeJvF9h4eiVZrOyP2q95wAw+4uRyCOuO+ayPhR/wAjJ4p/67j/ANDkqv4J8c+GtCsJ7rUL+WTVL6QzXOIXJX0XPQgc/nWT4B8aaZoevaxLcLcOuozr5PloD/G3XJGPvCsbq6ZJ6/qOj6dq4jGoWUF0IySglQNtz1xmvOtNs7aw+M8tvaQRQQpb/KkahVGYh2Feo15pb/8AJb7j/r3/APaS1cug2bnxYdV8EXqlgCzxADPJ+delYBuviTf6ems232a2gVFZbBUG+RR7EE8jtkGvQtRn02LyF1FrUeY+yIT4+ZvQZ71cHQYocbsLHL/D/wAXv4t0uR7mNY723fZMqKQvOcEZ+h4rqK838EQPb/EfxIkEbR2SZXagxGG3DHA4zjP616RTi7oaPCfDI17WPEuqaZpt89stzMz3U+csEVmGM/8AAun+FbetaDffC+5tdY0jUJ57SRxHdCfBHXjIHXqegyMe9anw7hh0Xxj4l0h7jzJ2dJE+UjcOSfpjeKt/GGWNvDUNl5irPcXKCJCfvY6n8Mis0vduTbQu+PtI/wCEo8LJdaeqyzxbbq3JU7mGM4A9SMdayLT4twfYIbWbTb+TWSgUwCMKHkxx9AevTvWtr3iS48CaHo8b2IugVS3lcSFViIUDOcH39OldKXsfJOoBbdlKeZ53HIxwd30q+ugzzH4SC9/4SvXm1AH7XtxMePv7+enHX0r1euN+GIkudP1LVyqpHqV9JcRpnJUZxg/iK7KnBWQ0FFGaKoCG7tYr21ltp0DxSqUYHuDXn6m6m8PyeERHD9qjvBasjuxP2YkuHJ+gxmvRaqnTLP8AtH+0vIT7YI/K87vsznFS1cGTQW8drBHbwrtiiUIq5zgAYFONLTTTAQ1GaeaY1AEbVE2ME1K1RPjBoA5LXj8zV5bqf/I5wf8AXsf5mvUdd+83FeXalg+M4v8Ar2P8zUyJZqdqDSUtSSB6elNNKTTfxoAK8/8AGx/4nI/3R/KvQK8+8bf8hv8A4AP5UgOy8KH/AIki/hWpWV4Tz/YqfhWtxTAKSj+VBoAzrm2+16rbW4GfNkjTGM9XAr0z4xPcH4Za+GWQL9nGcxygffX1kI/SvPbIqPE+msxAUXMJJJwAPMWvT/jTqFlL8LvESR3tq7m2GFSZST869gaynuCPiqiiipGFe++EfiDPpvhjTLJLaFBHp32TfISdytyTx0PpXgVemQyQ23h/S3dmRZLZOX7nkflxQB2XijxrqmvWUFtO8IggC+Wsa8DapAPU84NcTcalejIWXHttFPVgRuRgQe6nimtz1AP1FAGNaatcx3sUM8jbC4GT061fsVz4hY46RE/yplzYwTj5kGfUcYq3pUIN4ZiSXWPYT68jmgCCyTd4imf+6pP8hWgxqG0hKapevjogH55/wqVzQBXuD8prOkartycKaz5DQBR1N8Wx9yBWMelbN2quoVhkE5qlNbKy/KNpoA3/AA7zo6/9dv6ir7L/AKU/1qj4dVl0lVYYPnf1FaRX/SX+taLYRbgHFaek8ahF9az4V4FaGl8X8X1poDrXPzH60UNyxpMYqgDPrUF7/wAesn0qeoLz/j1k/wB2gDI8L/8AIOk/67yfzrYFY/hc/wDEvk9fPf8AnWxQAdaWkpaAFpr9D9KXvTX6H6UAet67pA1zQpbHeY2dAUcHG1hgqePcCqPhixnuLqbW9QtXtbyWJbfymJ+VV6nHoSAa34/9Sn+6KkFXYs4r/hF9RvLS6tNUtDfXlyzkXbXB8iMH7vyZByPZeuKu2XhzUI/CFnp5iWPULCRWgcTYBIbk5HQFSwx711YqQUuVBYz9H0pdL0+WOYmaWZ3lnbJYuzdufQYX8K5/S7iG00uW10vVbaGyjeUGKWErcQEsSUVPx4yD1rswag/s+z+0m6NpAZyQfN8sbvz607AYvw90y40jwlY210AspDSEc5AZiwBz3wea6SkpaaVhgOlRXdnb39u9tdwxzwv96NxlW78ipaKYGZF4X0KH/V6Pp6/S3X/CuC+E9vCfEHiYGKMhJlC/KPl+eTp6V6hVe106zsXke1tIIGlOZGjjClz6nHXrUuOtwsWa81topD8a7mTY2wW/3scf6pa9JzRTauDRyvxG8LT+KNC8u05u7Z/NiQsAHPQg59s46c1z8fxK1lrNdKTw5drr3l4CbPk6feweenOK9KpCQvOQPrScdboVjlfh94TuPC+nzvezeZeXrCSYDlUIzgD161Doej6/b+O9V1C8aX+y5UZbcNOGXOVxhc8dD2rr1lRydjqxHXBzinUco7HCeL/COqR6uviXwxKI9QUBZoOAJx/I++fQelU7Dwr4m8U6xbal4tNvDbWsheKxUA84HoTwSO5zxXoNzdQWcLTXMyQxqMlnbAqvpus6drMPnafeQ3KYz+7bJH1HUdDS5VcViHxH4ftPE2lSadebxG5DKynBVh0PvXFr8OfEk0I0e78Ts+iIoCqqYkI64x6ZyPvHj8q9HNJTcUx2K+n2MGmWUFlbLthgQIg74A7+9WKKSqAWkoooADSGlpKACmmlpDSAaaYadTGoAjaom6GpGNRN0NAHJa6fmavLtQ/5HSP/AK9j/M16jr33mry7UP8Akc0/69j/ADNTImRqUUlGakkDSUppPegANefeNj/xO/8AgA/lXoNee+NDnWz/ALg/lSA7Hwn/AMgVfwrW61k+EjjRV/CtbrTAKOvFGaOtAGfcf8hKL6r/AOhCo/HY/wCKR1P/AK5f+zCpZhnU4R/tJ/6EKXx8hHg/VD/0y/8AZhWU9wPAKKKKkYV6Xq8Eo8JeHjMUYPYKybey73Az78V5pXqWrWDWngnw3K0jP9osRKARjaPNcYH5UAcY0LRMWidkP+ycUDUL+Lpcuf8Aew386meoWGaAHjXb1fvCN/quP5Vu+GNQa+ln3xhCijkHg5//AFVzLqK6HwamDdt/uD+dAHQyjCsQOSKpOD6GtW2AaXBGRg1NIigcKPyoA5i5VgvQ1nS/TFbHiaYwWyLH8u9sZHpise10Nb+PzFYA980AVJHUHJZRj1NVJZ07SD8DW8PCcgyd6YAzwKyZraOIkZBx7UAbGgNu0xDnP77+orSx/pD/AFqhoYH9nLjp539RV/GLl/r/AEq1sIvRdKu6b/x/xfWqMXar2m/8f8X1qkB1rfeP1pM0r/fP1pPpVAHSoL3/AI9ZPpUxNQ3f/HrJ/u0AY/hj/jwk/wCu7/zrYzWR4Z/48JP+u7/zrWoAWlFJR2oAXNI33T9KWmt90/SgD26IfuU/3RTxUcX+pT6CpFqzQeKkWoxT1pgSD3paaKcKaAWigUUALTZHSJGkkZURQWZicAD1NOrG8Yx6jN4Zv4tKjMl5JHsRBjJyQD146E0MDlrnxx4h8RvNH4S0v9zCSGu7jBVivVV7HsRzV7wZ45vdZ1OfQ9ZsDaalAm8hehGB1HY8g/jWr4G0mTRfC1jaT2y21wqZmQYzvz1OOpxiuR1dPtfxi077EA5t4VNz5f8AD97735r+YrPVWYjf8Z+Lb7TNQs9E0WCObU71SVMhIWIdj0weh/KuZ1dfH3hCI61JqqX8B2vPAV3BCTyoHOFHqMV09r4X1RPiDc+IZ7iJ7JofKij3kugwvGMYAyCevep/iNqNvp3hDUfPcqZ4jDGBySzDAoabu2BHrHiGDUPh7c6sJkg+0WZI2yZ2SEY259c8fWuY0H4VWGtaLY6heapqbPcwrKyiQYBIzjkGq99ZS6b8FIY5tpLtHMNpz8rShh+hq43xQ1CK1jvNN8MTHRYgqmZhtwBwcY4FK66gdh4V8H6f4QhuIrCS4cTsrOZmBOQDjGAPWtzNY/hbxNaeK9LS/tVMfO14mILIffFbGa0VraDPMdRQ+OviLNol9JLHpumJvMKnKysMcn0zu9+nvUHizSYvAfiXSdV0KJ4EupDFNCCfK7Dt656e1W/hFcTXepeJJ55GlladMuxyTy9XvjMSvhBSDg/ao+fwas7e7cXS53dFUdCJOiaeSSSbaPJPf5RV6tRhRRSUAFFFFABVKHWdOuNQl06G8hkvIgS8KtllHHUfiKTXNRGk6TdXvBaJCUBUnc54UYHPJIH415pJHLo9np2s2UGo3OsQztNen7PIFZHHzgsyjIAAxk8VMpWE2ermkPFRWlyl5aRXMf3JUDgZ9RUppjGGmNTzUbUARtUL5walbkVE/wB0+lAHI6795q8wvufGSn0tf6mvT9d6tXl16f8AitAP+nX+tTImRq0fWgUVJIE0nGaM0lAC1554z/5Drf7g/lXoVee+M/8AkON/uD+VIDsfCf8AyBV+grXrH8JcaMv0Fa4xmmAc96Wk7evpRQBBbWxvPENlbKwVppo0BPQEsK6X4p+CLnTfh9rd291C6xQBioByfmFYWi/8jfpP/X1D/wChivTvjX/ySvxF/wBew/8AQ1rKe4I+JKKKKkYV9f8Agjwjonir4MeFl1ewS68tI1RtzIwDStkZUg49q+QK+3/gn83wo8OKwBH2fOCO4dsUAcD8T/hV4U8NaVa3em6a0LyziNlM8jjG1j/Ex68flXm40HTR/wAuifiSf617x8b/APkX7D/r7/8AZGrxegDlPEGkeSrPZwxBVGSoQE1J4RlMtjKTHGu19u5VwW47/nW3c8yn8P5VDZQxwxyCNAoMjE4HU0AWbKVXuGAzlcgg1bkqlYoUuZCSCDnGOtXZORQBzHiz/UQ/75/lT9B/49vyqPxe3l2sLkEqJME+mRT9BINrkEEcUAbi/wCrb6Vwl399vrXdL/qz9K4W7++31oA19D/5By/9dv6itA/8fL/h/Ks/Q/8AkHL/ANdv6itJ/wDj4PPpVrYRbj6e1XdP/wCP6L61Si6Crth/x+xfWqQHWseSPem9aVs7jSVQBnFQXnNtJ9Kn9agu+LeT6UAZHhn/AI8JP+u7/wA61x1rI8Nf8eEn/XeT+da2aAAGl68dqTvS0AKKaxwpp2aa/wB0/SgD1C5125tvFGlaOiRm3urd5HYg7sqDjHPtWnNrmmWt19lnvYUn4/dluRnpn0rmtS/5KHoH/XnN/I1kRyz3WgalDbTR6bcXTSn7EIWlu5uuMktk5HfbwM07lnob6rZxXFrA0wL3ZIh2glXwMn5hx0B70+XU7eDULewbzGnuFZ1CoSAFxkk9hyOvrXGWNgup/D3TpIjm601VnjHPEkfJUgdcjI/Gtvw5Zvfalc+IbuEJLLGsEA2lSIhyTgnuT3A+7TTC5efxNC15Na2dnd3zW+BM9uqlEJ7ZJGT7DNP8PeI7bxJHdSWsc0a207QN5q7SSMc46jr35rI8P28/hVb60+x3N5HPdvNFLCAwO4DIbB+XB9ai+Gscy2+tSTwmIyanMwHUHoDg9xkEZ9qE3cEzs6XNIKUVYwooqpq+ox6Rpl1fyldsEbPhm2gkDgZ9zxQBzHj34gQ+GYfsNkFuNVmGEQc+XnuR6+gqv8OPCV9pr3Gu625k1O9A4Y5aNe+TnGTxx2wKqeBPD1pcyHxfrFzDNe3pMsSuQBCDx7ZPau6TV9OkmWBL+1eVzhUWVSxPsM1C1d2JEOv69Z+G9Mk1C+YiJOAFGS7dgPevMtL0nV/ipq41fVi9ro8LYhiXowB6L/Vv/wBQ0PGepaRrfja20bV79bfTbCIyzBiUDSnB2k9xjH610q/EHwdYQpBFq9qkUY2qkSMQB6DApPV67Aa+s+HtP12ySxvona2Ug+VG5RTjpnGMgVcjtYIrVbVIY1gVNgjCjaF6Yx6Vwvjy7uNf8M2eveGruZ47WYy5iDKzgHaTj2IPWp3+Lnh9dE+2rI7Xe3izIO/d6E4xj3quZXAy/hsv9leMvEWiW3FnExdQ3LZDADn6E16ZXFfDPRdTtLe+1bWI1W81KQS/MoEgHvxxnjipPD+u67feN9X0+8RxptuG8g+TtBIYAfNjnjNKLsgRi/CqM6XrviLTLpkS8Eqv5QOTgFsn/wAeH51d+MU0UuiWWmeYFubu7Ty1IPIHBOfbcKra/pOr+E/F8nijSbFtQtbpSLqNeXUdSR6DgevT3pttZap8RfEFlquo6e1lotl88EUv35Sfcc9QPy96npyi8j0DTbZrLTrW2cgtDEkZI6EgAVZopK1KFpKPxooAKSiigDL1rQl1u4sWmuHSC0lE5hQY8xx93J9AecVozwx3EMkMq7o5FKMPUEYIp9JRYChoujwaDYLYWrytBGxKCQg7ATnA46fWrppxpppANNRtTzTGoAibrULnANTPUEv3TQByOu8Fq8wvP+RzJ/6df616drmdzV5jd8+Mj/16/wBamRMjU7UUUVJIGkopM0ALXnnjI51xv90fyr0KvPPGP/Iek/3R/KkB2XhP/kDL9BWtWT4U40ZPoK1c0wFoNGaSgB+iD/ir9J/6+of/AEMV6f8AGsf8Wr8Rf9ew/wDQ1rye1umsdfs7pFV2glSRVboSCDzW98T/AIg6hqvgHWbKW0s0SaAKWQNkfMOmWrKe4I+XaKKKkYV9r/Cu/j0j4QeFp2AKvbKGLMQAWldR0B74r4or6c0n4h6bonwk8L6ZcW155otEk3lAEIWZjwc85oA9D+K/h/WNZ8KrdQWsUkdnN5snkyiQ7cEHgemea8K6V1Ev7QcenPcPpdrOrTXoum/fbQybQDGw2nIOOted698QV1PUZru10qCyWRi3lK5ZR9OlAGhcowkLY4NMtf8AVt/vmuXufGF9IpVFgUH/AGT/AI1s+Hb2S/08yygBxIQcd+lAGpYgCZtr7lJbgjoc8irUnQ1TsQwuZdyYz3HcVck6UAZWqKrxbWAYE8gjg1zkls1oxazkeDPZDgflXSaiP3f41h3HWgCodY1eEFftO4e6CqG+WWTEhHPoKuzVV/5aCgDd0lQloyDotwQPzFaD/wDHy34VR0z/AI95P+vk/wAxV0/8fL/h/KrWwi5FVyw/4/IvrVSLoKt2X/H5F9apAdYx+YgUnWlb7xpOtUAE4qG7/wCPeT6Gpahuj/o8n0oAyPDf/HjL/wBd5P51rVk+Gz/oMv8A13k/nWsKAFo9qQUvvQAuaa33T9KWkf7p+lAHtUdvE3lTNFGZVXCuVG4D2NTKi7t+0bvXHNMi/wBUn0FSCrNB4qRajFSLTAyR4VtIrqae0uLuzWchpYbdwsbt64wcE98YrVs7O30+3W3tYliiXO1V6DJyf1JqQU4UJAApaSlpjFzWdr+iw+IdJn0y4kkjinADNHjcMEHjP0rQzRmgRwMfwW8OL9+41GT6yqP5LWpo/wAM/Duh38N/aQT/AGiE7kZ5icHGOnTvWv4l12Hw5otzqMxH7tfkX+8x4AxkZ5/TNR+EtXn13w7ZalcrGk1whZggIUHJHGfpUJRvYVkQah4D8OapfS397pkc9zMQXdpH5wMdM46CiPwH4Yi+7odj/wACj3fzrery74lePb3T9cttI0i6e3aIqbh06ktjC8j05yD3pystWDsel2llbafbrbWtvFBCucRxqFUZ9hVOPw3o8N//AGhHptql1jb5qoAQMYpPEeuweHNGuNTnAYQr8qZxvY9Fzg4ya4K20jxv4j07/hIRrZtLp1L2lomAnltzgkcZx0zk+pFDfQGeoUVy3w98Wv4r0dpbhVW8t38ubaMKT2I+orqaad9RobJIkMbSSMERQWLMcADuar2OqWGpIXsby3uVBIJicMMj6V559lk+JXirUYZ72QaHpzKqxwS/LK/r+I3A4qh4y8KwfD65svEGhzT20XnhJohJn5T2XPUYDdT6VLk9xXPWndY0Z3IVVBJJPAFc4PiL4XN+bH+1ofMX+PB8s9OA3Q9e1Y/xM10t4e0+xt5Ghk1l0QZXOIzjOff5lrUtfhx4dt9HGnvp0MhIBeUg7i+Mbs5yB3xnFNtt2QXOnVg6hlIYEZBHQiua8TePtL8NT/ZGWa8vsBvs0C5bB9T245rM+GupNHpGpaVJdCeXSriWJA33vLHQn6nP5VV+F1pNqbX/AIq1GPNzeykROzBgqDg7c8jByPoKXNfYLnR+GPGmm+KjLHaiaG5hAMsEy4ZP8nit81zQ8JIvjOPxHazJHGYmSaIf8tGxgHjiul7VSv1Gg70lVr3UrPTjALu4SEzyCKIMfvuegHvTdV1W00awlv76XyreLG99pbGTgcDJ6kU7gWjSGq9xqFvb6e9+74t0j80t/s4zVbTNesdX0hdVtpT9lKFySPmUDrkDofalcC81Mas/w/r0PiOwN9bwTxQF2WMyrjzAP4h7f4VoGkBE2KhcfKameoX5U0wOQ1wfM1eY3R/4rJx/06/1r0/XACzV5fdD/itJf+vb+tTImRqUhzRmg1JIZpKDSUALmvO/GH/Idf8A3R/KvQ81554uP/E8k/3RSA7Lwrxo6fQVq5rK8L/8gdPoK1M0wHd6M02jNAFU86nD/vL/ADpvj1CPCGqH/pl/7MKeo3atAP8AbWpPiDHt8G6qf+mX/swrKe4Hz5RRRUjCvU9bupZvAnh2OWExCKwVEJP3181zu/n+VeWV6VrErN4O0FTMJdtkijAA2De52+/WgDk2qJjUrA+hqJgfSgCNjXYeEP8AkFv/ANdT/IVxzcV1vhNymmDjKmdgSO3A/rigDcsEKXM2VK5OfY1dk6VTsQVuJRggZyPQ+9W5ORigDM1D/V8+tYc9bmof6v8AGsOegClL0qr/AMtRVqaqp/1ooA39L/493P8A08n+Yq6ebl/qP5VS0v8A49pP+vk/zFXSR9qk9iP5CrQi7Eat2X/H5F9aqRdKt2f/AB9xfWqQHVMfmNIDQ3U80maoBSahuf8Aj3k/3akqK5/1D/SgDK8N/wDHjL/13k/nWtmsnw3/AMeMv/XeT+datABS5AFJS0AL3pH+6fpRSN90/SgD26L/AFKfQU8dK53U9fvLXW9P0Wztrd5LqBpfMmcgLtzxgD2pLvX9S0S+sY9VitHtr2UW6PbbtySHpkN1FVcs6YVItc+PGGljxBJojShJ40B3lhtLEgbBzndz0rRk17TLefyJbyNW6knO1fq3QfiadwNIU4Vzni3xX/wjNlaXEVubo3MyxjAO3ae+QDz6DvW9aXIu7dJhFLEG/glQqw57imn0GTCikpaYC0lHSigDx7x94O8SHTLnVtX1yK6gtDujgAPAZgPQDuK734b/APIkaT/1yP8A6Eaj+J//ACIuqf7qf+jFqX4cf8iTpP8A1xP/AKEazStIXU1tc1aDQtLudQuDiOFC3TOT2FeK+J9KNrouh6lcQGK91O8luZtwGQCV2qD1245GfWuw8Z6zYa34ss/D11fQ2un2R+0XjSuEDuMbUBI6jOeuDk+lY/xY1/R9T/sVNOv7a4W3mYuIWBCL8uOn0NKbuJm/8ZtQNvoFrYeWGW8nAZs8rtwa7mws4bCxgs4FKwwxrGgJzhQMDmvKvirr+m+INN0qbS7pbmKO7ZHZVIAO1eOR7162v3R9KqOrY0ecfDdxYeMfEuj2yJHZxymRFGSQQ20DJ7Yr0jtXm/gKGT/hYfiqby28rzGTfjjO/OM+tekZohsCMTw14R0/wr9q+wvOxumDyGVgeRnpgD1NcX8R9Yh8T6tp/hLTitw7XAe4KHBTHYE8Z27ifoK0fiN4r1C3uIPDegqX1K8GHZc7o1Pp2555zwAa0PAngG38K25ubkrcanMMySnnZn+Ef1Pek9fdQeRlfFPR/I0nSNRiEssekyruRRnMfy5JPb7o/Oum/wCEz0QaMNUa/tljMXmbDIN2f7uBznPHSpfEOtaLpyQ2OsyIFvyYkiaNmEnQY4HHUVkJ8MfCtnff2l9jZfKPmeWzkxrgf3f1p630A868LX7Xek+OL5A0LTQCUANyu5nPX8ateAvDWp+M9IFre6jcW2iWpKJDFwZWJLZ54OCevNbfhLQrfVvDXiiePdEdRuJlS4wSGiHKkDgYyTWz8I76C58G28ETFntndJBjGCWLD68EVEY7XEYehG7+H3jSHw7LeSS6Tfc24kGTuPTGOnPB/OvUa828TwjWfipoltbSp5tlGJZlbPygNux9cYr0irh1Q0cR8T7uOyGgXMxIih1KN3wMnABJ4HWrGj6pdeO4rmUMbLSij25gIUyyMQQWbI+UDt61q+IvD39vTaZJ9o8n7DdLc42bt+O3Xj61FN4WA8RLrdnfzWbsoWeFFBSce49feizuBx9jdtfeHdJ8KGIQyS3jW0kc6sS0MR3sTxwT8o/Gr2oXMnhv+39LhktUN2I5LGBlKr+8IjYZ74+U/jXS2fhWxsfEV1r0LSi4uo9kiFsp1BJ+vAqXVfDenazfWV7exGWSyLNECflycckd+gpcrCxJoumRaNpNrYQqEWGMLgEkZ6nk++atNTzUbVQyNqjc/KfpUjdajblTTA5HXOrYry+6/wCRzl/69R/OvUNbGWavMLr/AJHGf/r1H86mRLNGjNJmipJA9KSl5ptABXnni3/kOy/7or0OvPPFv/Ick/3RSA7Lwx/yB4/oK1Ky/DXGjx/QVp5pgLRmkzRmgC14ZRZPGOlo6hlNwgIIyDzXofxnsbWL4XeIXS2gVhbDDKgBHzrXnvhU/wDFaaV/18JXpPxr/wCSWeIv+vYf+hrWU9wR8S0UUVIwr0sWpvPDemxt+7220e0qMZ4615pX1p4R8E6b4u+FHhoXQaG4i04GO4jA3D55OD6igD56m0O4B+WQP+OKpS6TeL/yyY/QivZNR+EeswOBZz212rBCozsY7sY4PHf1rn7/AMEeItPjaWfS5hGq7iyEOAPl5+Un+8v50AeYS2Vwn3oZB+Fdd4PUrpbhgQfNbr9BSMRkrxn071paWuLc8dWP9KALFiCLmUYIGcj0q3J0NVbIYnk4IGT9CfX+VWZDxQBm6gfk/GsO4rb1H/V/jWHcGgClNVb/AJaVZm6VV/5aCgDoNL/49n/6+T/MVc/5epfqP5Cqel/8ez/9fJ/mKuf8vUv1H8hVrYRei6VctP8Aj7j+tVIuAKt2n/H1H9apAdMx5pCaGPzGkzVALmorg/uH+lSZqK4/1D/SgDL8Of8AHjL/ANd3/nWrWV4c/wCPKX/rvJ/OtWgBRSim0tAC01vumloPpQB3OtpcSeP9CW2mSGU2cuHePeBwe2R/Ot7/AIR6S8v7e71W8F4LU74oVi2Ir/3iMnJHatA6favcQ3j28bXMSFElK/MoPUA1aWqSLOIuWa2+IOpETR2klzpojtpZflVpcjGM9TnHHNWtMuobbwgdHmjY6o1vIjWwiIeSQ5+YAgZHfPtXXeWjsGZFJHQkdKmX1o5QscL4j0PVF8FaRat517c2dxDLOQMttBOeOpxkDjPSu5tLlLy3SeNZFV+gkjKMPqCMipBS1SVgFpaTtRTGLR1pOKWgDlvih/yIuqf7qf8Aoxam+HI/4onSf+uP/sxrS8QaLD4i0i40u4kkjinADNHjcMMDxn6U/RNJh0HSrfTbd3eK3XarPjcRnPOPrU2964dTJ1H4eeG9W1CbUL2wM1xMQXYyuAeMdAfauA+KPhbRtAbRRplhHb+fMyyYLHcBtxnJPqa9jrO1fw9pevG3bUrRbg27FotzEbScZ6H2FKUE1oKxzfjrwpCvgu8tNDsYYGDrOUiTBbaecAdTgVV0f4naJB4Qhmubt2vLeFYngc/vZJAMZHqCe/5139Y7+EdBfURqLaVam5APzbODnqSOhPuRmhxe6Cxz3wk0S70vQZbu83rJfy+cEcfMo6An69an8N+LNS1fxjrOk3EcK2tlu8plQhjhgOTn0rsqQADkADNPltZDPG9A8Xahpmt6tqcnha8vbm9lyjRqw8tRnKg7ScHj8q6H/hYnimf/AI9/A14Pd2b/AOIFeh0UlFrqKxyXjrwzdeK9Bt2thHBqVuVnj3dQccoD25x+VYD6x471Wy/4R9NDazuljEc188mVK98E8ZwR0J716ZSGm4hYztB0WHQtFtdLj+ZIY9pycgk8t+GSa4i98H+JvDGrTXXg+aKS1vCWktpSqrEfYHA+mK9IzR2ocUwscd4N8GXmlX02ta5eC91SdFXcRnyhjpn17cV2FLSU0rAHNJS0hpjENITSmm0mA00xqeaY1AEbUw/cNOamN900Aclrf3mry25JPjO49rYD9RXqOtnlq8uuB/xWVyf+ncfzFKRMjSoopDUEgaTvSmkoAK878Wc67J9BXoledeKv+Q7L9BSA7Tw5xpEX0FaXWs3w9/yCYv8AdFaNMBaKSjNAFrwzLHD4w0uWV1jjS4Qs7HAA56mvQfjNrWl3Hww8QxQ6jaSyNbAKiSqSfnXoK8ti51OL/eH8jTPHg/4pDU/+uX/swrKe4I8FoooqRhX2p8Jf+SX+Hv8AsGf+zSV8V19qfCX/AJJf4e/7Bn/s0lAF2e5itPKmmcIiLbsSfYqa4/XdYl1C3kjTMcIjI255PyKDn8UBr2nwXZ202mPJLBFI2UXLqDwI1x1+prek0qwljaN7K2ZHBUjyxyDQB8J6tokOox5wFlHRqXw5ay2di8Mudwlbr6YFeq/En4WzeG7m5v8ASFebTFdtydWtxuI59V469u/rXnkbhsqDkqeaAEslZbiXKkDPA7H3q1J0NV7WTfOwwQR29R6/pViT/IoAzNQ/1f41hz1uah/q/wAawp+tAFKaqv8Ay0FT3E0acNIg+pqqsqSPlWDY9KAOl0sf6M//AF8n/wBCFW/+XuX6j+QqppX/AB7v/wBfJ/mKt/8AL3L/ALw/kKtCL8VW7X/j6j+tVIuRVu1/4+o/rVIDpCeTTaGPJpCaoBc1HcH9y/0p5NRz/wCqf6UAZvhz/jyl/wCu8n861KyvDv8Ax5S/9d3/AJ1q0ALS03NKKAFo70lFAHuC/cFOWmr90U5as0JBTxUYp4pgPFOFMp1CAdmikpaYBRRRQAEgAknAHc0iOsih0YMp6EHINebfEL4m6cmkTado119ourgGN5EHyxL/ABZyOSRkV0/w7/5EnSP+uH9TUqSbsgudE7rGpZ2Cgckk8VUsdb03U3dLK+t7h0Yqyo4JBHXiuF+IN3ca54p0rwes8tra3K+bcOmD5g5IGPbae/f2qh4+8IWXhCwtdd0FZrS4tpEjYRscOP7x/Ln60nLsK56rQTgZNVNIvH1DSrO8kVVeeBJSq9AWUHH61leO9Un0nwveT2sczzuvlR+T95WbgN+FU3pcZlat8WdB066Nrbrc6i6khzbJlVIOOpxn6jIrf8PeKdL8T27TabcB9hwyMNrr9RWb8PvD1povhyydLcLdTwh5pGQCQlvm2k9cDOK5zTUTRvi/c2Wn28cFrcW26ZUXgfJuz7cipu1qxHTeKvHNl4akis1ie91GfiK1i5bJ6FvQE496q+GviFFrGp/2NqNhNpmpgf6mTkOQCSB+A71i+B4xrnjzXtc82O6t4WMMEjcsuTxtz0GAR+NL8WLYWV9oWvM6xx21yI5do+dgSD/JT+dK73A67xlq1zoXhq+1K02efAgKbxkZLAcj8a5GA/FHUII5o7jSrdJVDrwucEZHY1e+KUyXHh7TkM7w2t3ewpKwbbmMgk5/n+FXI/iL4UsJ4tLGqKfKURiTaSmAO79KHvqwNTwtb67bae6+IbuG6uzISrxABQmBgcAd81sVHbXEN3Ak8EiSxSDcrqcgipKtDCijNJTAKK5Px7qmqWD6NbaZe/Y3vrsQPJ5avgY9DWzpWuW9/oUWqvJHHEYvMlO/IjIHzAn2pX1sI0jTTXmFpcaxr2qavbLf36PcaYt1BCkpXypCwIVc9Bxj6E1s3niOe88C2hjnjXUb8pZZQFwkjHDA46ELk1PMFzszzUDXMG9U86PexIUbhkkdcVx1jqY0Pwxrmm3F3P5mkq0SzuhBIZfkII6ndnmsSPSpdC1LwbDFEkt263EsmHOHdkGWJPtjP0o5gueltTG+4a56fxBqWl63YabqNvaypqBKxSW7MNhUZbIPXqPSugf7hppjOR1s8tXmE/PjC69rdf5ivTtbPLV5hMc+MbrH/PuP5ilImRpUUlLUkiGkpfekoAWvOfFX/Icl+gr0X3rzrxT/AMhyX6UgO20D/kEw/wC6P5VfqhofGlQ/7o/lV7NMBaKSgmgCOAZ1WEf7X9DS+Pkx4O1Q/wDTL/2YVJpaRy+I9PhlEvly3CoREBvOQRxnvXT/ABU8NWNn8Ptbnjg1pXSAEGZECD5h1wKyluB8q0UUVIwr6x+GfjrT7H4eaFaNb3LvFZeS5ULjO5+nPuK+Tq968Box8I6YQp/1X/sxoA9h074qJpdv5FtBMqcZzGpJwAP73oBVr/hcsv8Azyl/79L/APFV5l5bf3Wo8tv7rUCPQL34rj7NcSJZ7pSjMN8KkFsE8/N6188abcNPdXYf72VY/jn/AAr0O6Rvs03yn7jfyrzXSmxqd2vrGh/ItQM1LLH2iXls5PB7D2/HNWpDxVe2j8udjuJ3c4ParEnTnmgDB8R3LW1qNnDO2M+lYcGjSalFvEu4HqHY1q+Kv+PaL/f/AKU7QP8Aj2/KgDKHgpuv7vH+8azms47Z/lPI46V6B0Q/SuGu/vt9aANvRn82yL4xunJx6ciro/4+5v8AeH/oIqhoI/4ly/8AXb+orQH/AB9y/wC8P/QRVrYRfi6CrVr/AMfUdVYjwDVq1/4+Y6pAdCeppM0hPNGaoAzUc5/dP9KeTUc3+qb6UAZ/hz/jzl/67v8AzrUrK8O/8eUv/Xd/51q0ALS02loAX2ozzSUd6APaLjUbOxVRdXdvBkZHmyBcj8agi8SaLLMkEeq2UkjkKqpMpJJ6Dg1y/iGZIfiDoryW0lyos5f3cab2PXtXS22rSvIkceiahGjEAuyxqFHqfmz+lUmWbArHt/GOl3as1mL27VGKFoLOVhuHUZ24rXzXJfCz/kXbj/r9m/nT6gdTp+qWepo7Wk6S+WdrgHlD6EdquCuQtFuE+JN6IVK2jWCNNtHymTcdu73xmqdhrNx4kutSkew1a4htrpoIEtZkiSPaADk71LEnnnIHHvS5gudJ4o8RL4Z0xb5rc3AaZItgbb944znBrYFeW+I9Qvr7wQy6gVaWDVEiD+akjMu/I3bOAwBwR7V6iOlNO7AWikNLVDOA+IvhbQ9O8H6ld2ml2kNwNhEqxjcCXXPP41u/Dz/kStI/64f1NVfin/yIup/SP/0YtWvh4ceCtI/64D+ZqPtC6nMaHczXPxj1ZZpDIIbZkjDfwr8hwPxJ/Ouo+IX/ACJer/8AXA/zFcrpUR0z4xagbsrF9tty0GWHzg7f1+VvyroviZewWfgzURPJsM6eVHwTuYnIH6GktmAnwvdn8DaYXYscOMk5/wCWjYrqs1z3w/sJNM8HaXbyMrN5XmZXphyWH6GrnifWZ9A0afUoLL7YYBuaPzAmF7nJ9KpaICt4t1LXtOtYW0DTI7+Z3IkDnAQY69RXH/Cu6S/1PVrzUbq6k1xwVnilTaEQHt+PbjHpXoOj6h/aulWl/wCWI/tESy7M525GcZrz+NPP+NcjwjfGlviRk5Cny8ckdOamW6YCfBH/AI9dZ/6+F/katfG7jwxa/wDX2v8A6C1V/hq8ekeK/EOgRL+5SUyI7t8x2nGPfrmpfihOdR1fQPD6xLcRz3IlmRclwAQO3QYLH8KX2RdDa8TeFJfF+h6ZYi6S2gj2SyHYWc4XGBzgdT19qkvfh1oFxoR0uKwhjKpiOYDEgYdCW6mq3jbxPe+ErzRfs8cY02WQxXLODhBwB83bjJ/Ct7VvEFhpOjvqstxEbcJuRt3Eh7AY9aqy6jOR+EGpStp+oaJMzSPps+0Pn5dpJGB+Kk/jXoFcD8IrEf2Zf6w8MsMuo3LNhuhQZIx+LNz7V32acNgQUUGkqhnI+OYJZtW8MGOJ3CaiGYqpO0Y6n0p17aXMd/PosEEv2TUJRPvCZiSPOZlduxf5sD37V1lFTyiscpY6ZdRfEPUL42zrZvYxxJKR8pYEcCs/QvCl/p3io+ZEY9ItGlntDHLkM8nBDgnJIGfz613Rppo5Qscn4i8Oalf69az2EyxWkxT7eHOQwjYMmF9eoz71Z1jQbi/8TaLqkbxLDYCbzFJO47lwMcV0BpjUrBYwNa0GTU9b0fUUmRE095GZCMl9wA4/KtZ/uGpGqKT7hp2GcjrZ5avL5P8Akcb0/wDTBf6V6frZOWrzF/8Akb70/wDTBf6UpEyNKiikqSQNJS0lABXnXif/AJDk1ei1514m/wCQ7NSA7fReNLh/3R/KrtU9I40yH/dH8qt0wFopKM0AVllEGs6fKcYW7iJyxUYz6jkfWvQfi1HZD4c66Y5dNZ/s4wI9Smkb7y9FPB/GvMtXk8pkcfeWVWH4Zr1b4tm7l+GGuSNPevG1qG+e2jVSCy9xzWUtxnx9RRRUgFfZ/wAGtHsLj4YeHpZbK3d2tiSzRgk/O1fGFfUvwu8PeJLvwBos9nqM0Vu8BKILhlAG49geKAPXv7B0z/oH2v8A37FH9g6Z/wBA+1/79CuL/wCEV8W/9BWf/wACn/xo/wCEV8W/9BWf/wACn/xoA6bXdD01NE1B1sLYMttKQRGMg7TXyjphxrlwvrD/AOzV9BXvhbxULOcyanMyCNtwN0xBGOe9fPVidviORfWJh/49QBvxf638KkfpTI8+YMY59akaJ2/uigDmfFriO0ids7fMwSO3Bp+gEG24OenStTUbJZ4Sku1kJ5BFc9Jpb2JJsJ3h/wBkHigDp/4D9K4a7++31NWZ9U1e3wr3III6lRWTLcSMfmkWgDptB/5By/8AXb+orQ/5e5vqP/QRWb4dbdpakkH992/CtDOLyX6j+Qq0I0YulWrUf6THVSE8Vbtf+PlKpAbxPNJQetJVALmo5j+6b6U/NRyn9230oAoeHf8Ajyl/67yfzrUrL8On/Q5f+u7/AM61KAFFFJS0AL2oopKAPTdW0PUp/EthrVi1qwtrd4ikzMuS2fQH1rSgGutKhlbTUjyNwRXZiPYkjmtEfcFKtXYskFc9o3hK60S2e2s9cuI4nkaUgQRk5Y88kGugBp4osBW03SbTS/NNvH+8nbfNKxLPI3qSefw6CoLjw1p08kkipLbNMcym2laLzTjHzbSM1pg0op2GZ8nh3SpdMh0x7KM2cJVki5ABHIPHfNaVJmjNMBc80UlLQByvxRBfwNqQUEk+XwP+ui1a8AKyeDNJVgVIgHBGD1Nb9HSptrcRwfj3QtVg1zT/ABVolv8Aa7m0GySA8kryAQP+BNn8OKy9Suta+KEtrp8OmSWGlRSbrmWccl16qPz/AF9q9QopOIWMfX9MnbwrdaZpAZJhb+TAFfaRjAHzE+neqXhnw9dL4KTRdcDPPIkqTAybiQzMR8wPoRXS5ozVWA8v07w/8QvDcY0bTbi0lsH3LHcHaPs4LE7vXPOcfNXU+CfB8nhtbu6v7iO81K8kLzTquOM9P6109FJRsFjkvFXgJdb1GPWdNvpNO1SIfLKvKvgcA+n+HY0vhfwIukag2s6pePqOrSLzM/3YyRztrrM0Zo5Ve4WKWsaNY69YyWN/As0L+vVT6g9jXJ2nwj0eG733F3eXdonMVpK52IfwPPf867nNFNxTCwkcaRIscahUUYVQMAClpM0Uxi0ZpKKADNFFJQAGmmlJpppANJpjU40xqAI2qOT7hqRqikPyGgDkNb6tzXmLH/irr4f9MV/pXputYy1eYdfF9/7QqP5VMiZGpRmkpakkQ0UGigArznxL/wAhyb6/1r0X6V5z4j/5Ds/1/rSA7rSuNOh/3R/KrVVtN4sIf90fyqzTAKKKKAMfXP8AVg/7Y/ka9G+IF1b3Hwev5AliJH0+I5GoyNJn5f8AlmRjPtXnGuE7AP8AbH8jXd+JJLm4+BV1LmUwixVeLMbflcD/AFn4dayluM+XqKKKkAr6w+FI8X/8K80P7BfWcdr5B8tX8rIG49crmvk+vvX4D6fHL8IfDDkLk2p6g/3296AMbHjr/oI2P5Q//E0Y8df9BGx/KH/4mvVv7Mi9E/I/40f2ZF6J+R/xoA8mmi8cSxPG+oWJVlKkfueR/wB8180QAx+JwCMEo4P6194f2XF6J+R/xr5l+LfwpufDvimXXtOi83SzIWkKjm3Z16Ef3cng/hQB5zptyz61dxMxIG0gHtwf8RW5XMae2zxLOufvKP5iunoAq3Y+Q1j3A61t3IzGax7kdaAOa8QpmBD6NWARXU6tayXUKxRIWctwB3rMXw1qTf8ALBlz60AbHhnjSB/13/wrRLf6ZL9R/IVW0qyl0/ThDMMN5u79RUpb/TZfqP5CrQjVgPFXbT/j5SqFucir9p/x8JVIDcPU0maD1pKoBajlP7tvpTzTJf8AVt9KAKHh3iyl/wCu7/zrUrK8O/8AHlL/ANd3/nWrmgBaWmiloAUUUUUAe3qfkH0pQaYD8opQa0NCVTTwaiBp4NAEopRTBTs0AOzRmm0FwOSQPrQA6jNVpNQtIf8AWXUCf70gFVZPEmiw/wCs1axX6zr/AI0XA080ZrCk8b+HIvvaxaH/AHW3fyqrJ8SPC8XXVA3ssTn+lF0I6fNFcfJ8VfDSfdnuZP8AdhP9cVUk+L+hKfkt79/+AKP/AGalzIDu80Zrz4/F22f/AI99GvpfxA/lmk/4WZqkv/Hv4TvH9CWY/wAko5kFz0LNGa89/wCE38Xzn9x4TkXP99X/APrUf2/8RJ/9XoFtH/vYH83o5kFz0KkzXn3nfEyfpDZQf9+/8TSf2b8SZ/v6vZxfQL/RKOYLnoWaM151P4a8aLC8154rSGNFLOyuwCgdTwBWR/Z0k8XnS+PLyWMDcXhhmkXHrkGlzAeuZqN7iKPl5UT/AHmArzG88EWNto76xe+Kby4slUOZI13ZBOOPmPrUMHgTSZ0WVLbxHcq4DKwSNAwPf5iKOZgely63pcP+s1GzT/emUf1qrJ4u0CL7+s2I+kwP8q5ux+F2gS26SzW+oRu3WOaZdy899vH5Gr8fw08Lx9bBn/3pn/xouwLUvxA8MxddXhP+6rN/IVVl+J/hhOl9JJ/uwP8A1FWY/AnhmL7ukW5/3izfzNWY/C2gw/c0exGP+mKmjUDCl+LXh5PureyfSID+Zqq/xf0s8Q6dfSH6KP612EeladD/AKuwtU/3YlH9Koab4l0fUNSutMtpFW6tXKPGy7SSOuPUUa9wOaPxSml/49vDl7L6fMf6KaafH3iKf/UeErkem7ef/ZRXeE0wmiz7gcGfE/jef/VeHI0/31P9WFRTah8RJo226bZw8dyn9WNd8zVBK4CGi3mB53YnXfsMp8QeV9q807RHjATAx0981xQ/5G7UD/0yT+Qr0nWn5avNUOfFeo/9c0/kKJCZqUUcUVJIlFFFABXnXiP/AJD0/wDvV6LmvOfEP/Ien/3v60mB3en8WUX0FWKgsuLSL6VNTAXNGaSjNAEtl4Xk8Tfalju7a2+zJ5p85sF+Dwo7niu38b/DebQ/gTqF42u3UgjsRL9nUYiO5wcYz/tVzXhZd0959E/rWn8S/E+tSfDbV9Ne+drP7MI/KKLjaGXAzjNZyWoHyxRRRUDCvqn4WS6Cvw/0QXXiLUrabyDvijdwqHceBhcV8rV9c/CSfUE+HGhCLwtDdoLc4maZAX+ZucEZoA2vO8Nf9DXq3/fyT/4mjzvDX/Q16t/38k/+JrV+1ap/0Jlv/wCBEf8A8TR9q1X/AKEy3/8AAiP/AOJoAyvO8Nf9DXq3/fyT/wCJrK8UtoEnh++Ft4h1G6m8olIpXcq5HrlcV1X2rVf+hMt//AiP/wCJrN8Ry6lN4f1GN/CcNurW0mZRPGSg2nnAHagD5rR/L8UD/ayP0z/SusrjrwmPxHE+OC4H58V2PXmgCKcZQ/Ssi4HWtmQZU1kzigDE1JpooTJbhjKpBUL1JzVvRPE8V+BFORHOOOehokO2WNvR1P6il8Q+FVvSbywxFdDkqOBJ/gaAL2oNlcj1X+YrNLf6ZJ9R/IVHpc1zLpTC7DCaOXYQ3UYIpTn7Y/4fyFaLYRsWx4FaNn/x8JWXag4Fall/r1poDZNFB60lUApNMlP7tvpTs0yU/u2+lAFHw7/x5S/9d3/nWpWV4c/48pf+u7/zrVoAUUtNpRQAtHWikoA9L8S+ItV0ieCDTtGlv1kj3M67iFOcY4FY48U+NZv9T4bRP99W/qRXb5+QVyGugXXjrSLKeST7LJbSs8YkZVYjOCcEU2WQjUviLP8Ac0uzhB9dv9XpWX4jyKWe5sbdQMkny8Afkak1a3h03XdHXw/8l3JPtuEickNB/EWycfnz6Va01z4k8U6q108n2XTWW2jttx2Mx5LnGM9MYOaQGfb6X461FPMTxLZMmcFoXBAP/AVpLvwv4lgiMuoeMXhXvtZyT9AMZrS8eadbWGiSaxZottd2DJKjxDbu5xtOOxyadeWOq3N/Y+JbJLe8lWyCiylcoA7YO5ScgHt26daLCOetfDcWo3P2WTxxdNOQCI5I5ELZzjbvYZ6HpWoPhJaSc3GsXsv4AfzzU2p6r9oW1tvF2gtawtIp+0xTbo1kydi5Xmu13U0kM4uP4R6En37i+f8A4Go/9lq1H8LfDSfeguJP96Y/0xXU7qN1PlQHPx/DvwvF00tT/vSuf61aj8F+HIvu6Paf8CTd/OtbfRup2QGVfaPpOn6ddXEGlWCvDE7rmBcZAJ9KyPC8Ooa3odnqZvra0Nwm7y4LJBt5I6nPpW9rj/8AElv/APr3k/8AQTXEeDk8MHwxp/2++QXHl/PG164wcn+ANgflUvcDv7C3mtIik95JdsTne6KuB6YUAVZ3VlaJ/ZaWrf2Vs8jf8xUkgtgdz+FaG+qGS7qN1Q76N/vTAl3UF6hLe9G+gCl4mb/indU/69Zf/QTWB4P1xbfwfp0Udhf3MiWwAVLdtrH03EY/Gui1S2/tHTrqz8zZ58TRb8Z25BGcVDoWnf2Lo9pp3m+b9njEe/bjdjviptqI4/U9FuNB+GGqQXLL50zmdlH/ACz3Ovy574ro9LfxE2mWgjTSo08lMFmkY42j2FXdc0uHXtLn024eRIpwAzJjcMEHjP0q1bxrbW8UCElY0CAnrgDFFgsWI2cRr5hUvgbtvTPfFOL1DvpN9UMm30m+oS9IXoAm3V85eLpXj8W6s8bsjfapOVOD9419DF68yHwyn1fxJqN/qjm3tHuWeNEILSqTnt90Y/Gs5pvYTLnw08ZazrOLC7tWuYoR816WwUGOA394k16Cz1WtbW2sIFgtYY4YkAAVRgAU5nqoppagPZ6gnf5DzQ8lVriT5DTA5fWXyW5rziFs+K9R9o0/kK7nWrgqzc8VwVi2/wAT6m3+wn8hUyEzapc0lGaRIGkFLTaAHZrzjXudfuP9+vRq861wf8VBP/v0mB3trxbR/SpKjt+IE+lSUwFpKKKAPQPg7aQXVzq/nwxy7RDjeoOPv1sfGjTbKH4XeIZI7SBHW2BDLGAR861y3w2186DJqTi2E/m+WMb9uMbvY+tWviz41bUfh1rtobAR+bABu83OPmXttrOW4HyVRRRUDCvrX4TmT/hXWhbfGEdkPs5/0chMx/M3HJzXyVX1j8KG0wfDzQ/O8MXt3J5B3TJbhg/zHkHNAHY5m/6HyH/vmP8A+KozN/0PkP8A3zH/APFVFv0f/oTtQ/8AAYf40b9H/wChO1D/AMBh/jQBLmb/AKHyH/vmP/4qquqrJJpl4jeN4Z1aFwYtsfz/ACn5fvd6l36P/wBCdqH/AIDD/GmTf2S8TovhDUFZlIB+zDg/nQB8z6qwj1ASHorBs/jWq3ibT4wF8wsQOwNV9QsxPKzYrNk0sDPy0AaUvjDT1yMsfwrLn8U27Z2ox/A1RuNPAc8VXazx2oA6O3sbvUYI518pIpQGBJOcV0J6VU0Mf8Si1HpGBVw0AZ18gaQL6sufzFRCyQzs30/lU15/r0/3l/mKkX/WN9atbCHxQKg4qzbDFytRrU1t/wAfK/SqQGpSUHrRmqAKZJ9xvpTqZJ9w/SgCl4c/48ZP+u7/AM61KyvDn/HjJ/13f+datIBaWm0tMBaQ0tIaAPZ9/wAoHtXMavosupeMtMu5bNLixit5EkLgFQxzjg9a3VkyB9KeslVuUPtLGzsiTa2sEBIwTHGFyPwrMOg3Nprc+q6ZcxRfaEAmtpEJSRgfvZBGD2yQevStQPTw9OwzlNQ8Na9f6idQlubeSMSI39nvKzwtjIyTtXpnOMdq2b/w+91exana3r2OoRw+TvRQ8ZXIOCjduvTB561qb6XfxSsFjMuNCfVPLGsXa3cUUglSKOLy03Duwyc1sb6i30m+mBNvo31Bvo30xk5ajfUG/wB6C9AiYsCCDyD2pqhEHyqqj2FReZSeZSAn30heoDJSGSmBP5lJ5lQeZ70nmD1oC5Y30b6rGUDvR5y+tILlnf70m+qxmX+9TTcIP4hTAteZ70m/Heqhuo/7wpjXsY/iFAF7fz1pPMrPbUYh/EKadTi/vCgDSL00vWY2qxDvUbaxGKANbfTTJWO2tpUTa4PSgDbaT3qJpPesN9bPYVA+tSdhSA32k96rXEwCNzWG+sy4qrLqU0oxk0CM7XX3Mcc1xem8+JNS/wBxP5Cuyv0JTceSRXE6RKk3iPVHiIaPCLuHTI4/oamQmb9LSUUhBSUppKACvPNa58RTf9dBXodeearz4km/66ikB3kP+pT6VJUcX+qT6U+mAtFJRQB0/gax+2G7zLHGDNFENx5JbIGB3rrfi14C06y+EOuamk9y06WgfBI2k71HTH9a8bv5/JKfvGTJPAOM9K7WfxjPqnwF8U6VczSzNaRBI2ZskRsykA9+CG/D6VlJ6jPl+iiipAK+wPhCmun4baCbXVLCKH7OdiSQAso3N1NfH9fVXwsi8Kt8PtEN9Z3b3JgPmMiSEE7j0wcUAej+X4k/6DOm/wDgOKPL8Sf9BnTf/AcVheR4K/6B99/37l/xo8jwV/0D77/v3L/jQBu+X4k/6DOm/wDgOKTZ4k/6DOm/+A4rD8jwV/0D77/v3L/jR5Hgr/oH33/fuX/GgDwu+j8m7mj4+Ryv5VRlPFaeuKkeq3ixArGJnCg9QM8ZzWXL0NAGXdn94apSGrd3981SkoA7DQedIt/of5mrrCqHhw50e35z97/0I1osKAM29/16/wC8v8xTh/rW+tNvv9ev+8v8xSj/AFr/AF/pVrYRaTpU1t/x8r9KgSp7b/j5WqQGlRSHrRVAL2pkn3G+lOpkn3DQBS8N/wDHjJ/13f8AnWrWT4b/AOPB/wDru/8AOtakAUopKWmAtNPFLSN0NAHq6t8opwfHesJ9WdVBAqFtYkNWUdOJMDrSiYetcv8A2vKelJ/akx/ioGdWJ19aX7QvrXJjUZj/ABU1tRZfvShfqaYHWm6QfxU03kY/iFcc+tW6/fvoF+sgH9agfxHpqfe1K2/CQGkB2xv4h/EKYdSiH8QrhH8XaOnXUUP0DH+QqvJ420YdLqR/pG39RRcD0A6rCOhph1eIDrmvPG8eaWOFW6f6J/8AXpjePLYj93p94/1AFFwuj0M6zGDwajbW17V503jaU/6vR52/3nx/SmN4w1Jx8mkKv+9Jn/Ci6C6PQ21zngVG2tse1edt4l11/u2Nqn1JP9ajOt+IX6G0T6LRdBdHoh1qQ9BTTq8pNedHUPEL9b+FP92Mf4Uwya0/3tWcf7q4pcwro9GOpTt3pDfz/wB415wYdRf7+sXZ+jEf1ph06SQfvL+7f6vRzBzHo738g5aTA9zVaTWIl+/eQr9ZAK8+/sW2JyzSsfdqcNGsh/yzJ+rGjmDmO3k8Q2Cfe1K2H/bQVXfxXpKfe1GL8Mn+VcmNLsx0gU/XNPWxtV6QR/8AfNHMHMdG3jPRU/5fWb/djb/CoX8d6QPum5f6R/4msZbeFfuxIPoop4VR0UD8KXMLmNJvHlif9XZXr/8AAB/jUDeN2b/V6Rct9Wx/SqtFHMHMyZ/F9+/+r0Yj/ek/+tUTeJtbf7mnW6f7zZ/rSUUXYXYxtb8QydEs4/wJ/rUTX3iF/wDl8gT6ID/SrFFK7C5TY63J9/Vcf7qCo/smov8Af1i5/wCAkj+tX6KLiMyXRXuFKz6jeSDuC9WtP0220uEx2ybdxyzHksferNLQAtGaKKAEpM0ppDkHBpAFef6iM+JpB/01Fd/XBXg3eKHH/TUUAdwn+rX6U6mr9xfpThTAKKKKAMrVY1kMZZiMFun4VMbK+f4e+LJrORxaxwxfaB5mA3zHHHeur8NeAV8XWV7evdvCtnu+RFyXO3I/lXUeLPC1j4Y+A/iOO03u89uJZJJMbmO5cfgKxluNHyDRRRSAK+wPhC/igfDbQRZRaYbf7OdhlL7sbm64NfH9fXHwl0ZLj4c6FKX1UFrcn91dqi/eboM8UAdvv8Zf88NI/N/8aN/jL/nhpH5v/jVX+wI/+emtf+By/wCNH9gR/wDPTWv/AAOX/GgC1v8AGX/PDSPzf/Gjf4y/54aR+b/41V/sCP8A56a1/wCBy/40f2BH/wA9Na/8Dl/xoA8D8avNa+JdRS5VPONzJv2H5Q27nGe1c9JdFui11vj+wns/F93bIsgQyBi8pDsAVDZJ79a5K6N2kjKJDjtgCgChcFnYkqc1VkVvQ/lV54bmQ5Z3NQPaP3LUAdL4ZP8AxJ4h0wzj/wAeNaZrh4murXAhuJUCnIAY4z9K7O1n+02sU2Mb1DEelAFDUW8uQMegZT+oqAXqCVue/wDSn658sTn6H9awGkPnZz2rRCOoiuVbGDVyzbdcA1z9nISBzW5p3MgpoDWopM0VQC0yT7hp1Ml/1bfSgCl4b/48H/67P/OtWsnw1/yD3/67P/OtakAtFJS0wCg0UUANudV193KxT2oj7Epz+NVjceIH+9qUaj/ZjH+FWqKLhcplNXf7+sSj/dGP6002N4/+s1a7b/gZH9au0ZouFzPOkK/+su7p/q9A0OzHXzG+rVdaaNPvOo+poWeNz8rqfoaAKo0eyH/LHP1Y08aZZjpbp+PNWqTNAEAsrZekEX/fIqRYYl6RoPotPpKADaB0ApcUVHNPHbpvkYKBQBJRWTJrZc4toiw/vNwKWK41SblIQw9lJpXQGrRVJLu5iOLm1ZR6gVajlSVdyEEGhMB9FJRmmAtFJmq97ex2URdzz2HrQBYYhRkkAe9V5NQtY+GmQGsdfterTBfmwTxGv9a6Ox8FhUDXLBCf4VHNS5IdipHf20pwsyE/Wpwcir0nhW1xhYnPuXFV20Ge15gc/wDXOTofoaSmFiKjNICQSrKUYdVPUUZqhDqM03NQX12LO3aQ9eg+tMAu7+GzXLtz2UdTWcdUvLlsQxhAemRkmq+nWk+r3eeWYnJP90V3+l6LbaZEuEV5e7HtUOXYaRyUVhrTjf8AOAefmUCpR/aEH/HxbllHUqK7Yxq33hmmG1hPOzB9QcVPMwscnHKsq7lPFPrYv9HWQGWLCy/3gMZ9iP61jc8gjBHBB7GrUrgLS0goqhC12vwuk0uLVLt9VFoYxCNv2jbjO7tmuKorKtT9pBwva5UJcsrnvLeIvC1pnZfabH7Iyf0ryHxvd2974mvLi1mjmhfZtdDlT8ig4/GsOmmubDYKNCXMm2a1a7mrWFrgrjLeKX/67Cu9rhHXPitx/wBNa7TA7Zfuj6UtIOg+lKKYBS0lFIDp/Bt3d21ncC2uZ4Q0vIjkK54HpTviTr2qt8OtYsXu2a3aDBQqpyNw74z+tdd8GoUk0O+LKrf6V3Gf4Vq18a4I1+FniIhEBFsOQo/vrUSGfEtFFFQAV9z/AAONl/wqfw35l8Y3+ynK+Upx87d9tfDFfdXwM0N7n4TeGpgIsPak8gZ++3tQB2+dP/6CR/78r/8AE0Z0/wD6CR/78r/8TUn/AAjkn92D8h/hR/wjkn92D8h/hQBHnT/+gkf+/K//ABNGdP8A+gkf+/K//E1J/wAI5J/dg/If4Uf8I5J/dg/If4UAeRfGzwlaSQjxLY3vmyRhIriMptyucKwwAOCQD9R6V4yUU5JUHnu2K+sPEngeTW9CvtPzAjTxFVYgAK3UHp6gV8fapqVrZX8trJqNkrxkq22YOMj3XIoA0Csa9Vj/ABY1Ru5okY4WP8BTNzSXMNss0bPPEJo8E4ZDznNSNok8hyzR/maAM2e5Xsq/lXQaMS2mQE+h/maz/wDhHXPV4h+BNbNvAttBHCnIRQM+tAGXr3MLD2H8655o287GO1dTqEYmlRG6cfzpqaZCTvI5NWthGbZRNgcVu6cuJADTUtUToKntRifHtVIC/RSUVQC0yT7hp1Mk+4fpQBR8Nc6e3/XZ/wCda1ZPhnjTm/67P/OtakAtApKXNMAozRRQAUho+lJQBHcXEdrGZJGwBWJLqF1fvsizGh4AHU1Fq9011eiBeVU4A9TXY+G9AjtI1nnUNLjOD0FRKVgRkWHg65ukEs58tT3fk1dbwdFGPlkkJ9VWusJJ680VF2Ucf/ZN7a/6t/OUfwNw34UitkdCCOoPUGuuZQ4wwB+tZGsWACG5QfMv3vce9UpdxWMkmgGkoFaCGzTLBG0jnAUZrnt8+r3YABYE/KlXvEUxjtVQdGPNavgfTFMBu3GS3f0FRJ2GjS0XwxBaxrLdL5kvUL2FbXkpjaFCj0UVLijFZjKr2ET+oP1rOvdEUZkgAST1AwG+o/rW1SGgDkOeQQQRwQe1Gau6xCIbzcvSRc/iKo1sndEi5rmryZ7/AFLy15wdqiukblTjrisLwvEJ/EIVuqEmlJ6Ajt9A0ePToA20NKere9a3vS7QoCr90cCisihMUhAIwRxTqDQBj6zZL5X2hB8ydfcVjV1V2AbeQN02nNcmnKL9KuDExwrE8SSlViTt1rbrE8UQsbZJlH3Dz9KtiOp8G6esWnrORy/JPr6CuirK8MTpNo1vsII2g1qisShaQ0tFADTXOarCIb58DhwGrpDXN6rMJr59pyEAX8aqO4Mq0UlFaki0UVc0zR77WZWisLczOg3MAwGB+JFJtLVibS1ZSNFdGnw/8QP1tY0/3pV/oaxNRsJ9LvJLO4CiWPG7acjkA/1qYzjLRMmNSMnZMrVxCru8Wye0mf0rtzXFW/Pi2b/eP8qos7H0pRSUUwFooooA6zwZf31npsq2t3PArTEkRyFQTgelV/ibqupz+A9Zjmv7qSNoQGVpWIPzDtmu6+DtukvhmdmiVz9rfkrn+Fak+NdrGnwr8RsIEUi2HITGPnWsm9RnxJRRRUgFfoJ+z/8A8kb8Lf8AXof/AENq/PuvuP4IeHI7v4UeG5y8gL2xOBIR/G3bFAHsdFcp/wAIpF/z0l/7+n/Cj/hFIv8AnpL/AN/T/hQB1dFcp/wikX/PSX/v6f8ACvNvj/qy/D34f3Fxa3EqahfuLO2IlOVLAlm6dlB/EigDzT9oz9oK81zUbvwh4VvGg0m3Yw3l3C2GvHHDKD2jB44+9j06/PFFFAHpei2cl4dE1NSvlRWRhb6j5R/I/lXSYrkvh9q8c1i2mSOBNCxeMH+JDycfQ5/OuuoAMUYoooAo3X/H0lWI/uCq91/x9R1Yj+4KtbCHUtt/x8Gkp1t/x8NVIC7mjNJRVAFNk+4fpTqbJ900AUfDf/IPb/rq9atZXhr/AJB7H/pq/wDOtWkAtFJS0wFpKKKACkbkGiigDntCh+1+IgjDO1ya9PVBEoQfw9/U15tbf8SnxRFM3EUxwD6E16PG4dAwNYy3Gh9FFFIYhqKdQ8LqeQRUpqhq12LW1bB+d/lUe9AHOJ9wU6kACqAO1KK2JMjxPEzWIkUfcPP0rrPBsiNoUAXHIyf1rHnhWeFo3GVYYNQeFr9tEuG065P7lmzE56fSomho7vNFNR1kUMpyDTqgYhpDS1S1DUYrGIljlzwqjqTQBl67KHu0QH7inP44/wAKz6VmeV2lkOXc5NJWsVZEi9KxYT/YviWK5biCY4J7AmtqoLy0ju4TG65BptXQHaRSCWMMDnNPrjNJ1ufScW90GkhHCv1IHvXTW2sWd0oMcyH2zWNii72pDUD31vGu5pkA9zWbd+I4eUtB5z+o+6PxoAm1u8EUHkKfnk4x6DuawgO1BaSVzLK2526n+lFaxVhBTLiFbiF4nAKsMYp4paoRU8Oag+gzmxuCfs5P7uQ9vY128UySqGRgQa46e3SdSGFRW7X+nnFtMSg/hbkVm4judzQTj2rlE8QaoBgwxk+uTTJNQ1G6GJJhGvogwfzqeVhc2dU1dIAYYSHmP/jvuaxF46nJPJJ9abHGEHHU9Se9OrRKwhaM0lLVAFdB4Q8SxeGrqe4khklMiBV2EDHOa5+g1MoqSsyZwUlZnoMnxVTPyaWzf70oH9DXGa5qg1nVZ78Q+QJtv7vduxhQOuB6VQpKmFKMHeKIhRhB3iha4u0GfFk/sx/lXZ1x9gM+Krk+hP8AKrNTrKKD1opgLRSUdqAOw8I6Vd3mkebDazSp5rDcqEjPFU/iZo17b+BNYlks50RYQSzIQB8wru/hTqVlZ+FBHcXlvC5uJG2vIAccetR/GfV9Pn+F/iGKK+tpHa2ACrIpJ+dfes2B8W0UUVAwr7y+BNrqj/CPwy0F1AkZtTtVoskfO3evg2v0F/Z//wCSN+Fv+vQ/+htQB1P2PWf+fy2/780fY9Z/5/Lb/vzWxRQBj/Y9Z/5/Lb/vzXyn+2DrF6/ifRNCuZ0kW0tGuvkXaN0jbefwjH519iV8P/taNK3xguRIgVVsrcRkH7y7Tz+eR+FAHjNFFFAEkE8ttMk0LtHIh3KynkGvYNH1WDWLGO6gcHcMOvdG7g143Wjomt3OhXgntzlTxJGTw49P/r0AewUVU0rVrXWbRbm1fcp4ZT95D6GrZoAoXf8Ax9JVmMfIKrXf/H2lWYvuirWwh2KW1/17UUtr/r3qkBaoooqgDNNk/wBWadTJPuH6UAUvDX/IOb/rq/8AOtasnw2f+Jef+ujVq5pALmikpaYBRRRmgAopKXNAFXULJL2Eow5HIPcGrejeIWslW1vyeOBJ2P19KbUcsEc3DKPrUuNwOtivIJ1DJIpB96eZUHVh+dcONP8ALOYpXj/3SRT/ALNI3ElxM49C5qORjudNe65bWuVVvMk7IvJrDmnlvJfOmPP8KjooqGOGOIYUAVJVqNguFApKWqELUFzaJcLhgKmopAQWt9qWmfKjedGOit2/GtBPFc+MNZtn2YVWNH5VPIh3LEmv39wMRxJCD3Jyaq7WZzJK7SOf4mp1GaaikISiiiqAUUUUUAI8auMMM1XbT4GOcc1ZopAV1sIFOduamVVUYAAp1JRYAooxS0wEopaSgBc0lFFABRRRQAUUUhIXqQPrQAtLUfnxDrIn/fQpGuoVGTKv50AS0lVm1OzT71wgqJtc09f+XlD+NAF6krMbxJpy9ZifoM1E3imwH3Wdv+An/CgDZrj9L+bxPdn61duvFQeJktIm8wjhm6CovC2nuJ2ups5fPXv3JoA6I9aKD1ooAWkPSig96APRPA/he71Xw9FcxPAEZ3HzE54P0qn8VfCN5YfD3W7mSSApHACQpOfvD2rZ8AeLIdH8MW9q9jJMQztvWUL1Y9tpqn8XPGkGo/DjXbRdPljMtuAHMwIHzL221m2M+RKKKKgAr9Bf2f8A/kjfhb/r0P8A6G1fn1X6C/s//wDJG/C3/Xof/Q2oA9BopksscMbSSusaKMszHAA9Sap/2/pH/QVsP/AhP8aAL9fHf7ZeivaePNJ1YLiK+0/y93q8bnP6OlfWv9v6R/0FbD/wIT/GvGP2qtE03xb8Of7Rsr6zmvtFmFyiJMrM0TYWQAA/7rf8AoA+L6KKKACiiigDQ0XWrrQ7sXFs2QeHjP3XHoa9U0jWLbW7Nbq2b2dD96NvQ143V7SNYutFvFubZ8HoyH7rj0NAHqt3/wAfcf0qxF9wVl2Wqwa1HBeW4ZVYYZW6qw6j3rVi+5VrYQ6i1/1r0Utt/rHpoGWaWkoqwCmSfcP0p1Mk/wBWfpQBT8N/8g4/9dGrVrK8OKV04g9fMatWkAClpBS0wCiiigAooNFABSUvFIcDrQAUUwzRDrIg/wCBU03MI6yp+dAElLVZtRtE+9Og/Gom1vT163Uf50AXqKzG8R6cv/LfP05qJvFWnjozH/gJ/wAKANiisJvF1oOkcjfSoW8Yw/w28n40AdH3orl28Yt/Da5+pxUTeL7lvu26j/gX/wBagDrKWuPHibU5OI41/wC+c07+1Nbl6IR9FNAHXUlcn5muyfxuo+g/rTTb6y/3pn/76UUAdcSB1OKYZoh1kT8xXIf2bqjdZmH/AG0/woOi37/fuPzcmgDrjcwr1lT86ibUrRPvXCCuVHh2Zj806Z/E1Ivhdj1mP4Jn+tAHQtrenr1uY/zqJvEmnJ1mz9OayF8Lr/E8p+iYqePw3Ao5SRvqwFIC23irTx91nb/gJ/wqNvFtqPuwyNQug26/8sPzf/69SjRrcdIYvxzTAqt4uT+G2k/H/wDXULeMJP4bUH6nFaQ0i3/54w/lThpcA/giH/bMUAYzeLro/dt1X8c/0qM+J9Sf7iJ/3zmuhWxiXpj8FxThaoO7UAc1/bOsy/dRv+AoaUXOuy/xSj/gIH866X7NH3BP40ogiH8H6mkBzX2fWZPvTMP+BKKBpeov965I/wC2h/pXTCKP+6KURoP4E/KmBzX9iXLffuj+LMaB4eB+9OD+Ga6cADoAPwpcn1oA5tfDkfd3P0SpV8OQjqJT+GP6VvUUAYq+HoB/yzkP1YCnjQIB/wAsfzf/AOvWvRQBn2+j28Miv5EZx6kmtIsoGERUHoBTaKQBS0lFMBaKTPvQSMdaAPW/htp+g6r4dt4HaKW/iDNNEJSHRS7bSVB4BA61D8Y/DemWfwy8QTw25WRLcFTvY4+dfevnLVvFOpeD/H8WqadczQyQxRKwRyN8ZUFkPsc/nzXtPxDl1vU/hZqWp/aLmXT7mzSZWabIZGKkcZ9xWL3GfLNFFFIAr9Bf2f8A/kjfhb/r0P8A6G1fn1X6C/s//wDJG/C3/Xof/Q2oA6bxt/yKGs/9ecv/AKCa+aK+l/G3/Ioaz/15y/8AoJr5oqkAUjosilHAZWGCD0IpaKYHh3jbwtJ4a1Rgik2U5LQP6Dup9x/Kucr6H1nR7TXbCSxvY90T8gjqp7EH1rxPxR4UvfC935c48y3f/VTqPlf29j7VLQGJRRRSAKKKKAPQPBH/ACCY/wDrq/8AIV1kf3BXJ+Cf+QRF/wBdXrrI/u1a2EOpbb77/Wkpbb7z/WqQMsUUUVQBTXG5CKWigDn7DXF0xntrlGyrdQOvb+QFXG8WWg+7FI34Yqe90yG7O4xIzepOCKauj2q/8sE/HJoAqt4tj/htZPxxUbeLJD921/M4rTXTLdekMP5f/WqRbOFeiIPoooAxT4ovG+7bKP8AgWf6U3+3tVf7kKj/AIDn+lb4gUdx+C//AF6Xyl9TSA51tT1t+iEfRDUTXWuv0Mo/4D/jXT+Uvv8ApR5af3f1oA5UprknVpP/AB0U3+ztYk5LuP8AtoK63Yo6L+po2r/dX8qYHJ/2Lqb/AH5z+MhNA8NzsfnnT8ya6zAHRQPwpcn1NAHMx+FxxumJ+i//AF6sJ4agHUyn/gP/ANat7JooAx18O2w/gkP1bFOHh627xN/33/8AXrWooAyx4ftB/wAsV/FjT10O0H/LCL9TWjRQBSXSbVekUQ/4ADUi2EK9FUfRcVZooAhFsg7tTvIT3NPoyKAG+TGP4f1NHloP4f1pdw9aN6+tABsT+4v5UoAHQAfhTfMX1pPNUd6AJMkdzRmo/PX1pDcL60AS0VCblfamm6X1oAnoqubsetNN2PWgC1RVQ3g9ab9sGetAF2jIqibyk+1E+tAF/I9aTcKo/aHPQGnAzt92Jz+FIC5uHrSb1qkzSp98bP8AeOKge/t4+XvbNP8AenQf1ougNPzV9aDMtYr63pqfe1SyH0mB/lUD+J9ETO7VocjsscjfyWi6A6DzlpDOK5l/GOhpn/TZH/3IW/rioW8daKvT7c/0iUfzalzIDq/tApDce9cc3xA01R8lneP9WVf8ahf4iwfwaRJ9Wuf/ALCjmQHbfaPek+0e9cG/xFl58vTIB6b5Gb+WKhf4h6ic7LOwX/gLn/2alzoD0Hz/AHpPOPvXnL+P9aP3GtY/92BT/PNQP448QOMG/A/3YY1/ktHOFj03zGPQGnKWOS5CIo3M7nCqPUk9BXlT+Ldefrqt2P8Adfb/ACqndatqF8my6vrqdeu2SVmH5E0ucLFnxPqUer67d3kJzE7BYzjGVUBQfxAFfTFraG4/ZFa8nD+cNPdQSx+6tyVXj/dAr5f0jSbzXdUtNL0+Fp7u7lWGGNerMxwK+2vib4ei8J/s7anoUJDJYaXFBuH8RVky34nJ/GoGfDNFFFABX6C/s/8A/JG/C3/Xof8A0Nq/Pqv0F/Z//wCSN+Fv+vQ/+htQB1fi22mvfDGqW1uhkmltZERB1YlTgV4F/wAID4m/6BE/5r/jX0fOAYZAehU/yqn/AGda/wDPFfzNNMD59/4QHxN/0CJ/zX/Gj/hAfE3/AECJ/wA1/wAa+gv7Otf+eK/maP7Otf8Aniv5mi4Hz7/wgPib/oET/mv+NVtQ+GGuaraSWl5oUs0Mg5ViPzHPBr6L/s61/wCeK/maP7Otf+eK/maLgfAnxD+EPiTwCPt11p9ydKdtq3JUEIT0V8dD6Hv+lcJX6X32gaXqdnLZXtjBc20ylJIpV3K49CDXyH8cf2cb3wO8+v8AhiKa98P/AH5YeWlsvr3ZP9rqO/qUB4ZRRRQB6D4IGdHiP/TV66uP7teZ+FfESaRKYLnP2Z2DbhzsPQ/gR/KvTInimhjmgkWWGRdyOpyCKpMB1Fr1f60UW7BAST1NWhMsUVGZ09aQ3CetUBNSVB9qQUhvFoAsUVVN8o7003w9aALlFUTfj1pp1AetAGhRkVmnUPemHUPegDVyPWk3D1rJN+T60gupW6K5+gpAa+9fWkMijvWU0lyBkxSAe4NQPe7OXliT/ekUfzNFwNvzVHek89PWuffV7VPvX9mP+3hP8agfxDpyff1O2H0Jb+QNF0B0puU9aQ3SVyj+KtIX/mIq3+7E/wDVahfxjpK/8t7lv92H/EilzIDrzeLSG9WuKfxrpo+7Het9UUf+zGoX8dWozt0+4f8A3pwv/spo5kB3JvhTDfj1rg38dD+DTQPTdOT/ACAqJ/HN0fuWFoPrvP8A7NS50Fjvzfj1pp1AeteeN421I/dhs0+kZP8AMmom8Y6y3AuIlH+zBH/8TRzhY9GOoe9N+3MegNeat4p1pv8AmISr/uAL/IVC+v6tJndqd4c/9Nm/xpc4WPURPO/3Y3P0FDSXC/eidR/tDFeTSX13N/rLqd/96QmoetHOFj1l79U5e4tk/wB6ZR/WoH1mzT72o2Q+k6n+RryyijnYWPTH8R6Umd+q24/3Vdv5A1C/izR1/wCYgX/3YX/qBXnNFLmY7Hfv400dekl4/wDuxD+rVC3jnTB923vX+u1f6muGoo5mB2b+PrYfc0uZvdrgD/2WoX8ft/BpkY/3pSf5AVyVFK7A6h/H16fuWNkv1Dn/ANmqF/HWrH7i2kf0iz/PNc7RRdgbjeNNdfj7Yg/3YIx/7LUL+KtbfOdSuBn+6dv8qyaKQF59d1aTO/U71s+szf41Wlu7ib/Wzyyf7zk02OKSUkRozkcnaM4q9b+HNbu2VbfR9RmLLvAjtnYlfUYHT3oAzqK6K1+HXjC9MIg8Mau3n58om1cB8dcZFXrX4Q+OrxIni8N3e2aTykLsibm9PmI/OgDj6K9Cj+AvxAaOZ5NGihEMgibfdwn5s4xwxrSj/Zv8as14JH0qL7GgeTdcE5yM4GFPagDyuivZbf8AZh8SPP5U+s6TFi2+0kp5jYHp90c1o6f+y1c3L6cLjxRDGLxHc+XZltm3Hq4z19qAPCaK+gNO/Zj0+aCxlufEd032mYxsI7ZVwo9MseeK0H/Zr8MW8EzPqmrSMl59nHzRj5fX7vWgD5vor6kf9njwPajVv3Woy/ZvL8vzLnpnr0AzWtF8Cfh9bXkkY0HzFGn+b+8upj8/Pzfe9qAPkWivs3SvhP4Ghn0fHhfTX82By4lj8zcQFwTuzzU2i+CvDNvaaK8Xh7SVZpnDMLRMkc9TjmgD4ujjeZwkaM7noqjJNdj4W+EHjXxbeLb2OiXEKkgNNdjyUTPc7uT+AJr66SztrPTr2O2t4YEGoYCxoFGAwwMCtTSP+Rjvf+ui/wAhQBz3wa/Z70r4YyLq99cDU9fKFROFxFbgjBEYPcjjcecdhzW78fP+SPeKP+vUf+hrXf1wHx8/5I94o/69R/6GtMD4CooopAFfoN+z8jH4N+FiFJ/0Q9v9tq/Pmv0Q/Z6/5Iv4U/69D/6G1AHayxOYnARiSp7UzypP7jflWlRQBm+VJ/cb8qwNW8c+FtBvXsNW8RaTYXaAFoLm6SN1BGQSpOeRXY1wfi34FfDzxzrcuueIfD323UZlVHm+2XEeQowPlSQDoPSgBP8AhaXgT/ocfD//AIHxf/FUf8LS8Cf9Dj4f/wDA+L/4qsf/AIZc+EP/AEKP/lRu/wD47R/wy58If+hR/wDKjd//AB2gDY/4Wl4E/wChx8P/APgfF/8AFUH4o+A2BB8Y+HyDwQb+L/4qsf8A4Zc+EP8A0KP/AJUbv/47R/wy58If+hR/8qN3/wDHaAPFviz8J/hl4iebV/BfjTwzpWoNl5LF7+MW0x/2cH92f/HfYV85ahYTaZeSWlwYWkjOCYZklQ/RkJUj6Gvvb/hlz4Q/9Cj/AOVG7/8AjtfCHiG1hsdf1O0t02QwXcsUa5J2qrkAZPPQUAZ9bOgeK9Q8P7kg8uWBzloZRlc+o7g1jUUAemWHj/SL9dtyklhMf73zxn8RyPxFWZNYtCMrf2W31+0J/jXlVFUpMD0x9esE+/qVqMej7v5ZqF/FGkL/AMxND/uxSH/2WvOaKOZgd+/i/SV/5eZ3/wB2L/EioX8aaWPuret/2zUf+zVw1FHMwOzfxzZj7tlcv9ZQv9DUL+Ok52aYR/vXGf8A2UVyVFLmYHTv46n/AILC2H+8zn+oqFvG2oH7tvZp9EY/zaueoouwNx/GWsN92aFPpAn9QahfxVrL/wDL8y/7qKv8hWTRSuBoP4g1d+upXf4SkfyqCTUr6X/WXly/+9Kx/rVaigBSxY5Ykn3pKKKACiiigAooooAKKKKACiiigAooooAKKKKACnRo0rhFxuPAycU2igDQg0K9uQpT7KAzbB5l1EnPvuYYHv0rQj8Eam6Su11osYiIBDatbZOfTEnP4Vz9FAHYx/DO6Zp1fxJ4Ui8lQxLaohD57Ltzk1p23wigllRJ/HnhCIND5pYXu7af7vQc153RQB6lZfBzQJvsX2n4meHYPtG/zNhV/Jx0zlxnP4Vfg+DnghFiNx8TNOkLXJiYR+UmEB+9zIfT9a8eooA9x/4VH8L4re9Z/HqSyRTBIgt5Au9cgE4wc8E9K0T8Mfg7by6kB4njnWJE8jfqkXzEgE9AM818+0UAfS9n4D+CMN5Esl7pU0f2IMxk1Y4MufZxz7Vf03w98Frc6QSfDR+WUz+beB+eMbtzn3618s0UAfV9hH8Jre1sNv8AwiKuLzL7jCTt5657dK021z4dQWWppb3/AIXjL3YKCN4Rldw6Y7da+PaKAPtC88c+DxNrhi8RaKBKkQj23UfzYUZxzzVpfiB4R+3Bv+Em0bb/AGeEz9sj+9k8detfEtFAH2xY+P8AwijaHu8TaMPKjlD5vI/lyFxnniq1l498JpZaWreJdHBS7LMDdx/KOeTzXxhRQB9qT+PvCRtdQUeJtHJe8DKPtkfI3Dkc9KfN4/8ACRfXceJtGPmxKE/0yP5zsxxzzXxRRQB9sDx/4R+3O3/CTaNtOnBM/bI8bsnjr1pbDx/4RR9D3eJtGHlQyB83kfykhevPFfE1FAH2fYePPCaWWlK3iTRw0dwzODdp8o55PNJeePfCbW9wF8S6OSdRLgC7j5X169K+MaKAPtO88feEm/trb4l0c+Z5WzF3H82AM455qZ/iB4RN7K3/AAk2jbTp2wH7ZH97J469a+JqKAPtqx+IHhFJtGLeJ9GAjhcPm8j+U4XrzxVTTvHnhOOz0dW8S6OpjmYuDdx/KOevNfGFFAH2pL4+8JGzvFHibRyWv94H2uPldw569Ku6X8QvCEev3kr+KNFWNnUhjeR4PA96+HqKAP0V/wCFo+Bf+hx8P/8AgfF/8VXP/GrULTWfgf4j1HTbqG9s5bTMdxA4eN8SKDhhweQR+FfBVfX+kf8AJksn/Xjcf+lj0XA+QKKKKACvsz4N/tB/DTwp8MfD+iaz4l+y6hZ2xjnh+w3L7G3scbljIPBHQ18Z0UAff/8Aw1H8If8Aobv/ACnXf/xqj/hqP4Q/9Dd/5Trv/wCNV8AUUAff/wDw1H8If+hu/wDKdd//ABqj/hqP4Q/9Dd/5Trv/AONV8AUUAff/APw1H8If+hu/8p13/wDGqP8AhqP4Q/8AQ3f+U67/APjVfAFFAH3/AP8ADUfwh/6G7/ynXf8A8ao/4aj+EP8A0N3/AJTrv/41XwBRQB9//wDDUfwh/wChu/8AKdd//Gq+EPEN1Dfa/qd3bvvhnu5ZY2wRuVnJBweehrPooAKKKKACiiigAooooAKKKKACiiigAooooAKKKKACiiigAooooAKKKKACiiigAooooAKKKKACiiigAooooAKKKKACiiigAooooAKKKKACiiigAooooAKKKKACiiigAooooAKKKKACiiigAooooAKKKKACiiigAooooAK+kNO+LngqD9lt/A8mtbfERtJohZ/ZZj8zXLOBv2bPukH71fN9FABRRRQAUUUUAFFFFABRRRQAUUUUAFFFFABRRRQAUUUUAFFFFABRRRQAUUUUAFFFFABRRRQAUUUUAFFFFABRRRQAUUUUAFFFFABRRRQAUUUUAFFFFABRRRQAUUUUAFFFFABRRRQAUUUUAFFFFABRRRQAUUUUAFFFFABRRRQAUUUUAFFFFABRRRQAUUUUAFFFFABRRRQAUUUUAFFFFAH/2Q==;" vertex="1" parent="1">
          <mxGeometry x="570" y="455" width="131.14" height="130" as="geometry" />
        </mxCell>
        <mxCell id="9KNl5ypowHNoxKs9fsh--2" value="&lt;b&gt;PM5560&lt;/b&gt;" style="text;html=1;resizable=0;autosize=1;align=center;verticalAlign=middle;points=[];fillColor=none;strokeColor=none;rounded=0;" vertex="1" parent="1">
          <mxGeometry x="599.04" y="433" width="70" height="30" as="geometry" />
        </mxCell>
        <mxCell id="9KNl5ypowHNoxKs9fsh--12" style="edgeStyle=orthogonalEdgeStyle;rounded=0;orthogonalLoop=1;jettySize=auto;html=1;exitX=1;exitY=0.5;exitDx=0;exitDy=0;entryX=0.003;entryY=0.78;entryDx=0;entryDy=0;entryPerimeter=0;" edge="1" parent="1" source="9KNl5ypowHNoxKs9fsh--4" target="3a17f1ce550125da-2">
          <mxGeometry relative="1" as="geometry" />
        </mxCell>
        <mxCell id="9KNl5ypowHNoxKs9fsh--4" value="" style="shape=image;imageAspect=0;aspect=fixed;verticalLabelPosition=bottom;verticalAlign=top;image=data:image/jpeg,/9j/4AAQSkZJRgABAQAAAQABAAD/2wCEAAkGBxMQEhIQEBMSFRUQFRAPFRAPFRcQDw8QFRcWFhUVFRUYHiggGBolGxUVITIhJSkrLi4uFx8zODMtNygtLisBCgoKDg0OGBAQFy0dHR03Ky0tLS0rLS0tLS0tKysrKy0vLS8rKy03Ky0rLSsrLjA3LS0rLTcuNysrNys3Ky0tLf/AABEIAMEBBQMBIgACEQEDEQH/xAAbAAACAgMBAAAAAAAAAAAAAAAABQQGAQIDB//EAEMQAAEDAgIFCgQDBwMDBQAAAAEAAgMEERIhBTFBUWEGExQVIjJicYGRQpKh0VJTsQcjcpOiwfAzgrJ0s/EXJDRDc//EABkBAQEBAQEBAAAAAAAAAAAAAAABAgMEBf/EACsRAQACAgEDAgUDBQAAAAAAAAABEQISAyExUQRBEyJx0fAFYaEUMlKBsf/aAAwDAQACEQMRAD8A9xQhCAQhCAQhCAQhCAQhCAQhCAQhCAQhCAQhCAQhCAQhCAQhCAQhCAQhCAQhCAQhCAQhCDlz7d6OkN3peXLGJb1gMekN3o6Q3elctQ1mb3NaDldxDRf1XLrCL82L52/dNYDnpDd6OkN3pN1hF+bF87fus9YRfmxfO37prAcdIbvR0hu9JusIvzYvnb91nrCL82L52/dNYDjpDd6OkN3pN1hF+bF87fujrCL82L+Y37q6wHPSG70dIbvSfrCL82L52/dHWEX5sXzt+6msBx0hu9HSG70qiqmPyY9jiM7NcHED0XTEmsBj0hu9HSG70vxIxJrCGHSG70dIbvS/Ei6awph0hu9HSG70vxIxJrCGHSG70dIbvS/Ei6awGHSG70dIbvS+6MSawGHSG70dIbvS/EjEmsBh0hu9HSG70vxIxJrAYdIbvR0hu9L8SLprAYdIbvR0hu9L8SxiTWAyE7d6woLHITUQXTZn1QJVGkOZ8ysNj5xwj2HN/Bm7/dq8sR2Jsqfo/P8Ae/iFmcI9d/8AdkfINU3nTvK4quaT09MZ3UlDEySSMB0kkpIhivbI2IJOY2++dsZZxHd14uLLkmsfbrPtELRzp3lBlO8qsaJ07Lz4pK2NscrhiY+IkwzAXJtckg2B27DqyuvpdP105mMEFO9sMkkRuXNeS3Zm/Xayx8XF2j0XJc9ulTdxXXtUrtzx3lamoO8qpjlgzoranmzjc8wCAG5MwsbB1u7Yg3tfO1rogrdIh7Oep4SyQgEROIkhB2vJcQbcAr8XH26pPo+SInaoq+8xF13paTVHegVR3lJtNVLoIZZmgExtLgHXwkjfZc4a9xpBU2GIw8/hzw4sGK2u9lraLpyjiynGMvaZr/Z+Kk70dK4quaN0vjpG1UoDexJI4MvYBjnDK9zqalnJnlM+qc9krWsc0NkaGXs5hyOs7CW+6x8WOn7t/wBLyVnNdMOkrbWvLhdubmdpueve3yIy4Gx2KHHXhwBG30+mxc+fSrSF434h3ZCfSTWR6i58w7eF0jJwo/FSEGpCRRVBXOpqyAm5R46vG9dIqsFUOo0kb6010RWk2WY5bldVwD1gyLjTvuFzqH2XTZmnYzrm6rCgSSqBPMVYyD3poR0wKuCVy250rSLCawLHTAq4agrPSCpZaxisC36UFU31xC5P0rbaqlrf0sLoye6ozNLknWn+jKnEk9FibPecWRKozjkuHPLNqZMehQmTIVGs4zPmUU8mBwdsdZjuGZwu9C434OvsWKk5nzK1bY5HMHIg5gjaCsxAc2VMdOdG1lTLMx5gqy14mYMXNvFyWu9XO+hF87WnR8xILHG7mWFzrcw91x3nIg8WnepYKznhde0w78HN8PaJi4yipjt+/wD1TqWU6RroJ4mPbBSB552QYede7Y31t6A3tcBL+TuhJKjpZbUTQNFTM0siyD9RxaxsNvReiYrKJPWALj8KO8y9H9dMYzjhjUVER71UzPvHebVPTfJw08NM6kYZDRy8+5hzfLctLnZDM9gZAatWpTablhBK+OOKOoc95DXNDM4RtLs87cOPkmp0kN6OsxvWtKn5ZpifUxnjXLjtMXU3Xfz56/QafoHTU88TLYnxuDQcgXWuBfiRZU+PlExtH0MxTdIERpuZwG5OHAHeVs7a/wBVeIKwOU1tjmmeNzcTTPDz44Y6547Rdx1rr9nnGmaaWKjpNHtaTNPm5o+EYi/CTqHacM9XYKiV0c9NNT1MlOImRBlM7m3iXFHYjMDMHDfPgF6XUOsl76gLE8MT7/kO+Pr5iKnCJu779du/51RzFuS3ST8ThGNTLOdxd8LfQZ+rdxTGtrhGwvyJ1NB+Jx1Dy2ngCkLJ7bbk3JJ1knMn3XangtLaywS/SDsl1kqlBnluk0QUSMu5O9EttZQmxi6cUDQFnHEmT+jdkipcuEM4G1a1M+S3MUga1tiXvw2NrAXJyB13y1rjLV0zNhcfE4n6NsEoNS1hc6ZzgHNey413c0j9Ln09VDm0gx7nYI3HHiJe8E2Js4m9gBne2W1QTNL6TjfgDCIiXHFJGw3awam2Fg7NRKfTTmmz2iRt7B4GB5Gwkar8ErrtnmsN1K2LJFXQyd11j+F/ZP2Pou/Ngqt0TgHtLh2c2u/hcC130JTZ8TmAmM2cA7K148YGHu7sUZOVv9QK2lM1VKktW0p3BpNs0ZdaxaSxwP4m67cM0sqHAlbwlnLFDo4SSrlodlgEgowFYKScBXObMYNZ5MkvMua5VdWl/TBfWuVtnLZEJWyuCwrZSwVBzPmVFdUYUTVFyfVJ9KTEA2VmaDF+kmg3uQRcXa4tNja4uDwHssN0qD8b/wCY/wC6oNZpBwJzXGHSZvrUnIp6a+ru3J7/AOY/7qmaf0nM0nDJJ8xK70GlcrEqFpV7XrLUQr79O1H5snusN05Ufmye66Pp2rXmWhQo+0HpeYkYpH/MR+iu1LXGwu5/8x/3XnNFO1hVipK8Ea1mbaxr3PNIVrrZPf8AO77qqVelpQcpH/MVPrKnJV2rzKkWZV7J/Wb32xuc62rESbLqysSRhsu7ZFq0OhUXXN71Dhkup8TboNY3lTelFoXNkK2kguFYZcG6UN0zjqi4JYzR2d1PbHhCor3LjTMtKYRDgtIJHEvbjcCzDbDnYazsVGk5VVEpwumkAP4cMVvVoB+qtv7TB/8AGPhnH0jXmjY8TsI2rMo9crYMMNM+5PORsfiJGZwtxZXvkbi512WrNQXWtrQ+lpGdr91FG3M3aewzMD/MgPTjHqC0N08glL2tdtIHq8Wb/wAmxH/cUjCZ6NFgWnL4hwv2Xe3ZP+1ULqR2EztGrnpCP4SGkfQrtHHdRqeO75yL2Mz/AEybcempNKWIhSJpZ7MxwEKXECF2iat3kKzKFtfNYJBUaQIOtNtKuyKqdUc1FM2aSO9CVwtQoPQmVOZ8yuWkDdpUE3Dj5lSgC4LSKZpTIlLedVn0po4klKeqTuWVRI60hbOrnFTG6HO5dm6FO5FKTUFamUp6zQh3Ls3QfBBW2vddO9Fvcp7NB8EwpdGBqJaHMDZQ3RFWU0YXM0ISi1YdAUCnKs/QAtm0QUpbIqamKZQxlMG0wCk01E55sxpcfCL289ytJZexhUiNicN5PT/l+7m/dbjk/P8AgHzN+6qWWsCi1zrAp51BUfgHzN+6jVfJupcMmD52/dBRuX5hw0xn57/7MPMc3tDL4i/Zq1KmNqaIGzIpCeMrGn+mNei/tH5NVL2QFsdwxzybObkCBx4LxmVjo32OTmn1upKvU5W/uIHYS1rmRlt88sLbDFt811i1DyRUPDqGi7uIRxhxyx90WB22/TVmpksQwQyDU9jGng9gDT+iqN6CnxvaN5A91btK0LWsY4NADewbC12OFjfefuq/yfZeVn8QV30zFeAjg39QgpVBTZzFwtimkPn3QT8wcpYjAUqhoXObe7e8/f8AiPBZmpC3WR6KTMR3axxnKahFJXKRy1nqWt1g+llBk0xGNbX+zfusfG4/8nox9D6jLthLlVtxi7bEHMEZgpHNQm+pYo610R7OYOth1H7HirPo50dQLs1jWw95v3HFTh5seTp2l6fW/pvL6b5o+bHz4+v5StxUJQri3RwWF6NXzLdaijAJ8yuF2s7xAG9xAH1TSoOZ8yqpyza3mHFzb9iVoyBwuLDhdnuICuUIYzVlMO9NCPORn3UN+l6Ea6mD0eD+i8dnHaP+bFpZcrV7Zo/SFLO7BDLG9wBdhbrwiwJzHEJl0ULyn9nU2GtiH42zM/oLv1aF6056sEk1Npunkl5hhcX4pGWLCBij74udyZZbknh0bHDPjY3OWSV7i44iHPu4lt9V88txTYqz0RuCNyTcptO9DbG4MD+cLhmcIGEA/wB/omhP91Uv2gHFFGd0hHu0/ZT2VAl/aJJ8MMfq5xXH/wBQZ/yov6vuqcRZxC6wQue5sbGuc55DWsYC573bgBmSs3Itx5Z1B2tHk0LtSaYrpwXte1kTcnzyhrII3bi8jN3haC47AVGl0ZBo8NNfaWpIBbo6J9mxZXBq5W6tn7tmZyubEpZX6XlqS0ykWYMLI2ARwQN/DHGMmj6naSukB87lQ6PKN75nfmzDm4R/BC0gnzec/wAIUrRPKnSD5MDauTCyxfaOKOCJpOWJ+ENZfYNuy5SpmiGU7Gz15cwOGOOkYQ2pnG9xP+jH4iL67C+a3qITI+GareIIGkPp9HwjBI86sYa6+Ab5ZMTjmBfJSUegR8oqkXwSvlLRiLnWjgaN5yBtxcW+S7UHLyUu7WGQAgOLG81E0nxG5ceAaNWV0kfLjZieMEQvghjyMjhsbe5cd73Xt9EuphLM9oMRiY3MWaTHGwa9Wsm3mSs5fssPUajlY2ON8hjcQxrnnMDIC6W1v7S6WJhkLZHdoMDWYcTwWh2JuIjIAjjmq7pSodLE+KKJ9nNcwY+xckEYjdVOu5K1LwGRxttiMhkfJZ2ItDcOAA2aLXvfarESTT1qr5RwzRtvDKQ8A4Tha5uIajc6814npnk2JKuR0DmNs6/NSvIlbbe3Bq4hegVmkOjxNlkwtc0NAaXdky27oOV8wc9wuqlJJA1sFXikdhHRAxpMrI3XxOxTSESSd8ZhtsrbFnKamlh1lhLIImOtiY1jTbMXAANirHSx44WNHxsaRwnjaAR6hv0KQ6RdiYCOBT/RpvFHh+JrLcJ4xb+oN+h3rSN+T7rSs8wrzpeUCG53D9QqE+UMlbI3IPtIOB2jzBT7TmlGOiaGvBxdq182i2o8c/oipWhKhpjBJGbn79eI3W9Z2tWaW6BN4QfFL/zcmbVqeKMo6tYck4TcFNW2XPAxxJuQS7VmDYWIyFtXFJKnR1Q5wPNSEWe0txtwgOaWHAPhyP6bldAFmy4z6PGfef4+z28X6llx9sI/n7vLpK0FpjDO9gzJu7ExrGMO64DSNXxvtrTzQHJx92zTFzLdprGnC8/xEd0cNe+yc6F5Osp7Pd25Pxnus4MGzz1+WpNyFnh9J1jLk7+Ht9b+rRU8Xp+kT3nz9LaMYsLswIXvfAQ5WZnzKr3K6O1O47iNl9dxq9VbHx5nzKS8rKYupZsIuQ3ELcFiY6DwbXmbbFs1q2qIy1zgRaxOtYa0nUD7LztnHJB2Gspz4y35mOb/AHXrLiV5Zya0XOZ4ZBG4NZIxxc7sjCDc69eS9RDCf/IW8YSSirq7TtZhOT4HXvqD+cF/Ls/VN3OUap0Q6QtOJowua+xGIEtN26iNRz81JGi5Xd6UD/8ANoH/ACLlZhHMvVa5Z0z5YA2Jpc5r2usLXtZwyv5hW+PQm8vd5uy9gAEwptEDW+wA90ot4loTklV1k3Nsic3UXyygshibvcdp4DM+VyLk+kdQNNPomMumcCybSsoAkIOtlMM8DfFwGvJw9Fm7vNsAazcPi81yZTN2hIwLeZxcgjKG3e/Gc3ZhxLzmTci5zublPtE8iW0Xba4S1HwOlAMNN4g34n8Tq/W6tAb3RbjtWnNLWhaq0HJNschqJnmonccWObtNa78VtpGVtgsLWspr9ARPeZJY2veTcudm4nzT3m0YFrSAv6A24OEZANG5oGwbguzYNiliJZ5taqERhEthGpGBAaqPPP2htvFENdqhnw4/hkGomyp80X/tg+x/1GNxloOrPDzpOLLXgtYXvfMBXjlnRGoYWMLQY5ecGPUQ3ELajvVHihfJAAxgcHEFsmRc6xILWv8AwjM4d9/IeLP+5uOy0aQZ+7Zla7WOGzL/AAJ9o0Xijwnvta0eCeMZH1DfpxVcqHExtDj3QG57hsVi0YAYY7Gwe0MPgmZ3Xeth9F0RvVsxtNhY5ytG4jKVnoc/VKnvJCd4jrtmbvw7pG5SM9Re3qlFbEGuIGo9pp3tOr/OCoccjpHOjmBNxHPIxvBpZG+3HtPcfVWBqQciG/u6j/qX/wDahVjAXbHsgBWyAELSBYssoQZYFhbMQqMu1lYssu1lYSgmreTNNK4ufE0k5k5i58rop+T0EfcjY3+EAfonKFnWBBGjWfh+pW40ezd9Spa3wcRvtmTbXsG5KgRBRtGz6lbtgAUlsV9R9g77LHN8RvtmCfcKViOYFlkldWmw12vfPiNnt+qyH5976+6tQOFllrbrsHbjc5Zb+C1DgCQNQJsdfD/PJBpg4j6/ZZEd9RG7K+S35ziflHHjxWHP+2q1vqnUYEfA/RZ5vzF8tmta4zw9gjGf8AShsHDjuy1DyzQXjjqI8/quaFaAsLKEFI0tMRLJZt+3JkC0ABpJJJeQLZKpx6PvLHMZDI5nOds9ouuSQC5vZuA47blXDlJGCZrgm7pO7k7/AEXH6HNVCgEgik5kMMgdD2Xd3Bbba3btlr81488vnpzy5JjLUwqR2VYNFgGGPPJ4ETvDIO479P6Uq0i/E1vYaLNsHC4LgC4Xtewz4XyTXRmEwsPwuHMyD8JucLvqPcblt2SSSfMnPcJ2f2c0f5dRa1gLbj4e0B4Hax6OuFJdc6zncRuO54zjf65e43LMMRkNgNd7j4W37MjSdmfaG9Ub8hL81PfX0h1/PmYLqy2ULROjmU7XNZftuMj3E96Qta0m2wWa0W4eqmrvjFQyEIQtAQhCDLEIYhKA45nzWziBlYG2sm+v0K0drPmtnWOd7X13vr35BEdcP8N7B1u1ex+m1ZLNYGA2JBtiyIBP9itHPJAGIWAAt2rZeiy6Uk3Lge9kcVhe43cVnqrVpBysBfUc9fqVu19jiuAc8jfIkEblzbYZ3BtqAvr35hc1asSXSA7W7AB2iAATbZxWpcLhxIy3XuT7LgspqW2DyNRIvuy/RZ5x34ne5WiLq0N+dd+I+5WqxdZulAQi6EAhCEAhCEAhCEFN5TxkSu73aB7lrjFG5gOZG0/qqpBo97WSRiUM5wxlpjEjZWvYCXOOO1wRlkLZr0/SNK2UWeNWojJw8ikNTom3dd6OFvqPsvPnxXlbM4RM2SVYGEWJJsbgiwabnIZ5jb6rvoqoDMndx4wuvqtv9FtNRu1W+osiGnDbE5kah8I+5SMZbMSL5OOoGMn8xo7rgRqIvr81PgqdgySqK7kyp4l1xikMopVJY9QowpMa0JAKysNWVoCEIQbMQhiFRq7WVhTzoqTw+6x1VJ4fdZ3x8pSChTuqpPD7o6qk8Pum+PkpBQp3VUnh90dVSeH3U2jyUgoU7qqTw+6OqpPD7q74+SkFCndVSeH3R1VJ4fdN48lIKFO6qk8PujqqTw+6m2PkQUXU7qqTw+6OqpPD7ptj5EG6zdTeqpPD7o6qk8Pum2Pk6oSLqb1VJ4fdHVUnh902x8nVCWbqZ1VJ4fdHVUnh902jypfKy6X1FI5WDqqTw+6z1VJ4fdNsfIps1MVyZREq6nQ7zrDfdYGhXbm+6zePkVmCjtsUxkCd9UP3N91nqmTw+6t4+QpbCuzY0x6qk8PujqqTw+6bY+RBshTuqpPD7o6qk8Purtj5EFCndVSeH3R1VJ4fdNo8iGxCmt0XJ4fdCu+PkPEIQvKoQhCAQhCAQhCAQhCAQhCAQhCAQhCAQhCAQhCAQhCAQhCAQhCAQhCAQhCAQhCAQhCAQhCAQhCAQhCAQhCAQhCAQhCAQhCAQhCAQhCAQhCAQhCAQhCAQhCAQhCAQhCAQhCAQhCD/9k=;clipPath=inset(11.66% 0.57% 10.62% 0.19%);" vertex="1" parent="1">
          <mxGeometry x="570" y="627.26" width="145.32" height="84.17" as="geometry" />
        </mxCell>
        <mxCell id="9KNl5ypowHNoxKs9fsh--6" value="Dashboard&lt;br&gt;&lt;br&gt;Chornograf /&lt;br&gt;Garafana&amp;nbsp;" style="whiteSpace=wrap;html=1;shadow=1;fontSize=18;fillColor=#f5f5f5;strokeColor=#666666;" vertex="1" parent="1">
          <mxGeometry x="1220" y="450" width="140" height="280" as="geometry" />
        </mxCell>
        <mxCell id="9KNl5ypowHNoxKs9fsh--7" style="edgeStyle=orthogonalEdgeStyle;rounded=0;orthogonalLoop=1;jettySize=auto;html=1;exitX=0.5;exitY=1;exitDx=0;exitDy=0;" edge="1" parent="1" source="9KNl5ypowHNoxKs9fsh--6" target="9KNl5ypowHNoxKs9fsh--6">
          <mxGeometry relative="1" as="geometry" />
        </mxCell>
        <mxCell id="9KNl5ypowHNoxKs9fsh--37" style="edgeStyle=orthogonalEdgeStyle;rounded=0;orthogonalLoop=1;jettySize=auto;html=1;exitX=1;exitY=0.5;exitDx=0;exitDy=0;entryX=0;entryY=0.5;entryDx=0;entryDy=0;" edge="1" parent="1" source="9KNl5ypowHNoxKs9fsh--9" target="9KNl5ypowHNoxKs9fsh--6">
          <mxGeometry relative="1" as="geometry" />
        </mxCell>
        <mxCell id="9KNl5ypowHNoxKs9fsh--9" value="Data Collector&lt;br&gt;&lt;br&gt;influxDB Database" style="whiteSpace=wrap;html=1;shadow=1;fontSize=18;fillColor=#f5f5f5;strokeColor=#666666;" vertex="1" parent="1">
          <mxGeometry x="1001.5" y="450" width="138.5" height="281" as="geometry" />
        </mxCell>
        <mxCell id="9KNl5ypowHNoxKs9fsh--13" style="edgeStyle=orthogonalEdgeStyle;rounded=0;orthogonalLoop=1;jettySize=auto;html=1;exitX=1;exitY=0.5;exitDx=0;exitDy=0;entryX=0;entryY=0.5;entryDx=0;entryDy=0;" edge="1" parent="1" source="9KNl5ypowHNoxKs9fsh--10" target="9KNl5ypowHNoxKs9fsh--4">
          <mxGeometry relative="1" as="geometry" />
        </mxCell>
        <mxCell id="9KNl5ypowHNoxKs9fsh--10" value="" style="shape=image;imageAspect=0;aspect=fixed;verticalLabelPosition=bottom;verticalAlign=top;image=data:image/jpeg,/9j/4AAQSkZJRgABAQAAAQABAAD/2wBDAAMCAgMCAgMDAwMEAwMEBQgFBQQEBQoHBwYIDAoMDAsKCwsNDhIQDQ4RDgsLEBYQERMUFRUVDA8XGBYUGBIUFRT/2wBDAQMEBAUEBQkFBQkUDQsNFBQUFBQUFBQUFBQUFBQUFBQUFBQUFBQUFBQUFBQUFBQUFBQUFBQUFBQUFBQUFBQUFBT/wAARCAHCAyADASIAAhEBAxEB/8QAHQAAAAcBAQEAAAAAAAAAAAAAAQIDBAUGCAAHCf/EAGcQAAECBAMEBAYICRkGBQUBAQECAwAEBREGEiEHEzFBIlFhcRQVMoGRsQgWI0KhwdHTJCUzUmJystLUFyY0NTZDRFNUVXN0goOEkpOUlaKzwsPh8EVWY3WFoxhGZKTxJzdlxOO04v/EABsBAAIDAQEBAAAAAAAAAAAAAAABAgMFBAYH/8QAOBEAAgECBQMCBQIEBAcAAAAAAAECAxEEEiExQRMyUQUiM0JhcYEUkQYjUsE0obHRFTVDYnLh8P/aAAwDAQACEQMRAD8A9Oq9BJfWoA9LjGftq1HmaXUN6FKSi9uoRriblgpN7R5NtmwyiepSnQjpAcozIWTO96Iy6qafCdXVX48Yg5+qTSXDZ9YFuGaJyrs+L1KKhYRT6hOB1fQ1Ed8Y3OdyYqquTSRrMOW+2MIOYgmx+iXP4xho3JzE4oJaQVX4aRaKDsxqFWWnOhSUnXURN5Y7lerehW/Hk+5ol93r6KjExRXax4Uy7vHilKgo3J1j0+mbMKbRWQ7OOJKhqbkRX8RYspVLcUxIoDqhp0Nbdt4olVV7QVzojTe8nY237H+sUmcwnLtKCnJhSQVXA4x6yqVl/eskeePnfsL2xzVCxY1LTC8ko+roj60x9CcN1ZquUxmYbIUVJ1tGdUzRlZnVGzV4ingrP6T8MAqVZ/SbDviQ3fZA7sRVqMi/AZZXFn4YTVS5JXFj4BEuWx1QQs9kICGVQaa5qpgE/aCEnMKUdziw2P3ET25HVBFS/ZDuwKy7s+oUxcKl2Fd6flER01saw5OXzSUur9yIuvg0B4KYkpMWh5nOex3w9MXKZTIettRHqMQc57GSlrJLTsyyfsXSfXHtHgq7aX9MClt5HBSvTFiqSFZGfJv2Mik33FTmk9QJBiKf9jnWWkkNVMrHCykH5Y00nf8A11x2iFUqc5pSfND6jFZGE8cexkx08reyU6hwpN8gWpF4ok/QcTYMRuKw1MSxAy5lk5Vdxj6U9BejjKVCKVtO2d07GOH5hhUulQWkixGqT1iOqGIdssimVO7vE+es1Xpp6XUgTLl7W8o3iFla3Oybyd5NPEfbmLbjHZ7O4JrMxJvhSkpJLajzTyjzyrJWl/XQXjQp2nsckm1uXBvGy22VJL6yesqiBexpPons6Jt0oPEZzEQmnqcazgwzKCFa9cXqkluVubZ6RSdoEwlSd4+5b7Yx7NsrxAmu9FThVY24xlllRTbWPYtgtULVSW0TY5hFdSmlFtE6cvdY0r4rQ25mSog9usLPNKcl1i/KHLN1NpPWIF5J3C+6M3MdtjO20CsPUmsKQh5aQeV4gJPGz6V6vK85hbbErJXO25jz9KldcbVKClBMz5StJovk5jWYU4CmYWBx0VC7GOJjKBv1X74oAJMLIJi7pxI52emSeL5hRuX1emPV9ltSXVmyCoqOa3GM0Mzi0cCbR7/7HGYEwp1CrE54561NRjdE4Tu7Hrk3Tjl4aRQq4wrwhQFzHs87JoUg6co88qlLC6gdLC8cUXqdDKW5R3EtocN7XvCEmwV1BocelE9iuqM01lDNwFKITEfRUhyotE66iOjggehytKLkqk5dbR4rtSpqparJIFrmNI09oeCo05R5HtWpaHpjNl1SbiKacssrjnG8Sg0Fjd7s30i4sp6Iio0dWWYSi9tYurLYyDqiVWWo6ewUJg6UmDhuDJRHPctCx0KZOyOywrgEg0dl7IHKYABgwgAmDW6oiB0cY6OiQgi+HGE0zCmBfjCjkA0pDY6eoiQjzbaBiucZfShrMnXSIaRrUw7kcWSFHjE7jp6Wnqk222kZhEPPS7cvLpSkdK140adsi0OOd8zJOeqrqWUkOkHnYwErWlZQkunMo2teIGZcV4HmOptcwzwjva1i+kySSSHJhJI7Abn1RLLoLNqbw2VSBpuGZfKNcgFz3RcFKdVfpQxwvI+CUWWbA96ImTLKTxFowpau5orRENVph2TkVuBwhXkp7zDGjUtzwcPurUpxw3uYf1qnTFQcYabQotpVdR5cIk22Qy2lv60Wi/sp2XJHeRHqlXFaKWojtMMlMuyr4CVKCVDridcs2nMrQRFVR5ZaSptFyDoBqYhHewpNLUQUl19eQOKy95jjIgcrnrMGpcvOKlw46jdlQBsrQw5elJst3a1N7E34ROStoRUuSMmELaBSypSV/Yki0IsTk+4ooU+4kg/XGJNunvp1KgVd8IOSM34UFoRnTbUwtdiL8sRKZr3z6j54aTTkwl5CQ6SeMSz7jjGimVX+CIqRnBNTq3Vp096OzlE4RlrLwReXYc+NJpjVyxHaIXYr2YA2SYOmTS90nAFGCPUthSbAFJivKyWZjxNWac8uXSoeYwV7xbNJ90k0edsRGoaSyoIza9cOmVJzBBIJ5QvciV09yPncE4eqVyqSZBPMJAiv1TZXS2Gy9JlTZTrYK09EXrciEJwBEu53RNVJrkeWPg8q8XbnOnXo848rxnVH2KoUNuKSB1GPdKglLcu8u1uJjOmLnt7WnjxF406HuepyVNENXai/NdFaysdseibFsA1DaBiFUrKuJlpaXRvZiaWOigcgOtR5CPL2ekrqvHs2z/Ec/hDD4RTlFp6ccCSscdbC/mEXV5KnC5fgcLLGV1Sie6UmTomA5lLKZRNSnmzbeKTmVe2vdpEVUq/Q8QVIMKpzSHlqCAlCPJ17BFFxNXn6TLBxt27xGqlkkqJ43i17GW2ZdaqjOo8IcmD0iqMqztc7Kk+nNxjwT1YwThqmSrSiAt5ZslsXJv1WERUrgmn1EzKGWFNLZSDlIUCb9QtHoLdakKXihU2qW3rYQQiwBKL8bdsGqWMpOaq8uWJXIyQd7mQLn0RFe1FM5OpK7PHJiVpEmsyy0LCs3SClm/qiZw9hOh1p99Kbt7lGdRUo/GIicQKk39oyXmklyWQdUgG2sW1cxIMSI3DAbdWcjmUWJTf5Lwpe3V8nTCTnFJboaYfp9FVWlyLLZcV0spueA48or+IMSeIq9uWWkmUSqy0jjbnaPTalPYaYlZaZp0qGpxGirAjjxjx7a8miUdbc03OqLj4zKTmzEHqhxgpMqqVGXFrF2HHly6pd1QWpWVxG819FonXZ6mzGVMoVKNrkqUD8UZYkK5Krq6FsPvKIB98LR6TgXFaPCEtTb5Knj0E2F+6IzpqDsX06bq0s/g9VVNISqwSpf2ohRmZQ8bC4I5HSAl5qXUj3NVgORFjCNQ1l1PMtHeI1Cr2vHNqRUYy0Q+CYNlhpT6izNS6V7xINtQVC8Pk2ULixHZEtyqScXZgW6oEQO+al3EFwZ7nyOuG8vPqqE5MnIlLKVWRlAAtDIHljqdLcYrGMKeJ6kPII1sYtTkR882HmHEW0UI5ky5oxpjTDa5h15pKekFEARCYd2Pzc8oLeQUt9saUOzBysV1awbIOvCLg1szeZlkttWTYWzER0dWSWhSqab1PAZHA9HwzKhb6QpaRc5uEQtcx8JPMzS5RSzwCspSn/ADjQkxsUM85mfcU52HhBG9g8qn3iT5orT1vIttbtMc1mYr9fdJmFu5P0tIypiKThOdUq5YVfjwMbhTsNlU29zT6IUTsSlh7xNouVW2yKunfVmI5fCs+y8h1tpSVpOYKA1BEbi9jLjiYnqOzKTl0utjIoKgidisqn87TFhwjs9GGqgl5g5ATqBziqrLOiyEcjPbN2FAEagx26g1Ou5KovqQIc7uOSxZca7vhHbnrhzu4Nkh2C423MduRDrII7LDsIbBgdUBuR1Q6yx2WHYBtux1QBb7LQ5yQBbh2Aa7sR27hxu47dw7CGxagm64gi4IsYebuALd4LCueCbetl6a5T1zTDYLzYK0Kt8EYVxvKqk5haFoyKQbFPUY+rVSpqKhJrYWm9xpGDfZUbM1UCfcqTDVmHT07DgeuOzDVMs0mUVY3jczi3UFpby8RCebMq8Nkq80HS5pG4Z46bMeibF5rd4qQ3e2YD1x5s2u8WvZzPeB4sk13tdWWIyV4tDjpJG8qbKh2RaV1phZ6QG7UB1QjhiY39IZVx0iVXqk90YBqmQ9ukqGKykj64x5i2rW149b9kQjd1JpX2UeOJcsI38O700ZlXvY+SdeqFUuW0hklzhrcwqlyOoqHiXDl04R7f7Gufy1R9onXMDHhKHOEeyex3zM19Z5KtFVbsZOHcjXcz0m/NHnmJ5wU9xbhNo9CWczCT2R5ZtMbKpZeWMdbnczyzFFYVUp4OgkoSeEWHCNQE1UGU87iKtL07eA5rm8TeGWVSdcauLC9jHXpaxRfU0bTrKlUW6o802nN+7HS+sek0lWaTb7ooe0hrMu4jljuXPY8eSgy84kjhe8XqTs4yhQFwRFZqEnoFpGqYtGHLPSYSeIiVTa4oCu6JVBw154kRKgQfwdOmmsc1y2xG7uA3RiUMsnujvBwnlCuFiK3cDkMSZlkwHgwguOxHbs8ecdk80SPg47oN4KILisRmWO3ZiT8FTrpHeCpiVxWIlxvSOblA8npGwESb0qmx0vHJppebGTQ2tDzBY8fxnLy9Orba0uDU2teCTEu3MNhYN9NIb7UMKzrc8HQVKQDcW74JRc7kqhCwSoaRpx7E7nFLuaGe5SVKZUNIndheHRPbVmCE3RLtqX5yQB8cR1QYLM3e3EXj1r2K+H/CsSVKoKRfppbBt1a/HCnPLBjjG8kawlW/B5doD3iREXWq+JFtSlLCTwAieebytKNuUeLbZKouRkkqQqxBHrjLprM7HZLRHrM1jKXlaKtxAQtakIVcd0UPDOIqliYvPX3TG9KArmdSOEZ6m9rU43T1ygcWpdsibmEsCbWKvhd51udd+h1nMARex1jrVKVnoVZk2jWOK63Ltpl2WXLK568hDfCNUaqU86tTyVSrQym51zaH1R4Zh7FkziGVnKi64S1lOTujzeU2qVOh1ucZYmVolVukkX7LQRpSkKUkjUm0vaB4FWJdmSypaccyjLw4aRM0muOytId3ziFLUcwUOHDrjHGLsaVDEj7S5V9Y3NlZgrgQOMWWX2qzs5IydN8IV4SpQStXXoLw3SllTsClHMzQjmKm5WXdemJsIynQcPPFioNdHiXfOPNqDqwpNjfokCMobV64tmnyzAcUVKsVG8Q2G9q1TprO7fmnHWUpslF+FhpEui3G6FnV7M1ZiTaA1PVRMhK5c9tT1CLRIS8l4nl09EvlIKiDrc6xi+WxlPSFSZqTy1ZVKubnl1R7JsfxdPY6xRNOpdUJBgBAR9kdT8FodelKjFL8ihKM22e1+CqT5CoKW3E8ReH2WOyxn5mX5SOcabeSQtNjDFyX3JIv3KibcZSrlDOakFOJsgxJSIOIiy6tTYsbkcYQqM0PBVA9FUN0vOU167uiOZgMQOtuSaVJI6QveJqzYlIqtac3dNeV2GM84glFrnnXBwzR7viSY3dPUFHQiPLpumtuklKuJ5xo0bx1RRP3FLp8uXJlIIj3XAVNl5yQaQ6Okyc40jy9mmBmYSR18Y9bwShLMqtRPvbCFiHmVmXYWpLD1M8XqQuPkrmHmmm7npgXj1fA7KJKiy6HNClIvHn0+2JicQpSbpSu/Dtj1KjspVSy+bBCU6xyvaxPuk2V/EeJmpeYcKVHo6Q89tRkZVhmVlkuvrTdRVbq1JJEV6pNt1aaDYT0M9ye7WKjjitO01xXg6ylQGQRRGN5FkqcYpSuW5ONH3J5aESSHHuJShIJ9Uel0dqnvUyVcnUpbmHmd64CALdQ4cI832QyaJDJUn0b5xehKhxj0jEFYZlarTplllCwk5lNqAIMTlHhijLK7ojU15Llcl5Rcju5ZaykOLbA0HPhFYxnPUmmzyiuly0wzmIS442kk69seg4r2hS0/T/cZENziVAtuqANuyKBtWqtLrGFGV7tLU8ogKCQLqPC/wDr0wLfQjdvcRwnL0rF04qXYobEuAkkviXQBce9uIlsR03DODZqVLchLvzPloO6BUOzjDHZbiJFGpPgZRcOcVWsYt9BrlDka1MrqEi3NJyZG3lNhRSOrXhEXvqWxqOMHFbEI3iQ1iaU1LUZtzdtZ3EZQkJ+Hv8ARFHmtoEzL4hUt2XaekGiUiVSNPRm+OL9Vq9INz1QNOT4OJ1O73iRbL1R5nh+kt4Pxuh518zraSVHe2N7wopO5KrJppJHqFDozMvT5yuTzDLcs4AtEvkKQkHsvx+SIRvE2apNOSUuhFMWQhRRcZVHQczoTE5VatKVZhBcRnlXLIUxwBTfhYWifcmcJSdJyy0klt9CQQlOgJ9URyohKbk7sr9blpiVnEIUUlbw9zSm+g7YeyssmVZS2nlxV1mJ1VJk5+kt1hTivClJsEE8B1eqKm7jiXoGJpOTEomffUc26VqLf6MONOU5ZYlcpqKuzw+pYwLYO7byEEeVElSp01CTDirZuwxljFm1KoTlYekpRlx7KuwUrS+vUI9z2PzdQmqKkzjSkHLzEZsXrud0otLUlMRYmmsLPB2XZU5c8EC5ieoePp6ckd67KuJJFxmTYwFSlWVvIU8nMLxcqLIyU9KoUy0LAWMWlZ5/P7Qqs2o7qTcUOxMRD20rECbhNOeP7mPZ/a6wriwIH2uMH84HohXA8Je2oYoTwpj57kwh+KjizT6Vv/xY999rUv8AqdPogPa3L/qdPoh5hW+p4F+KZi39anz3C0cNpeMAfyreHYQPlj372uMfpCfRApw7L8fB0+iDMFvqN9lOJJ2uSKDOsqZXbVKuIMejqZiHwzRWpc3Q3kHHSLIpqIE0tBgpu0Fyw8WzCSm4AsIFNo7LCuSAywCsEyx2WFMsDliQhLLHZYWyx2WGAjl5x27hbLHZYYhDdwGSHG7jssADbdx5htz2fs4wwtNNKbCitBHDgY9YyQhOSKZyVdZULhQgFY+NeI6K/h2uTlOmRldl3CnUcRyMR4V5o0p7MnZirD9eRXZdqzbh3b2Ueg/664zOnlG/RqdSCkZk45ZNDlK+lEph+a8FrMm7fg4mIZHbDiXc3bzauYIMXlZ9CNms6JrD7JzX6Ii2KPRMeW7Daj4Zh1jX3gj09R6JjAmrSaNSLukzLnskkZZls8elHhjbnGPfPZLN2SlXPMIz2lzqjYwr/loz63ex6lzXSFkL58RDFKzpyhZtyOy5SPUuR7nsDcSmpNq5kR4Mh28ey7DJnJUGRfnFNZ+xk4dyNhoXmlUW+tjz7aC1ml18zF6k15pJvuinY7Rmk1ngbRkJ6nezySXSOQ4GJyUZCpxlYGukQcu4N4sdsT8kr3ZqL7lZ7VQVXkW+6KhtE5GLThteaQR3RWtoSejeKU9SfB51u950TwOkPKOoyMyEK0HCGyCM4ESj8tnl0PJ4jjDk+BIsKUhQuOBEG3fphjSZrfMhKj0kxJRzl4TL2QGXhCsBaEMJlv3QGUQeOgAJlgcusGECIBBMsDl64PHWEAWEHk9UC2HUp6A5QZ2JamsfQDjvHKDpEZVFTjeRfQw88RPJTV2eg7GNj9Jx1TH6vWk+ENpdUwhgdYtcn0xaKp7FrDjk8p6SaS0hXvDpaI/2KtWcmpOtS4WSgOlxbaveqzEAjvSB6I9+VHfGTyqzMypHLNp7oz9NexUpUwsEtpPniz4D2HymB21olEJSlSio6849ZuY7NCleSs2JSs72KZWKAuVkXF2vaMxbd3tyzrwjYlYSXqXMpAzEoNhGYNsGB56vSB8HZUt3gBaI04qMkWSk5LUxvNurcnVZeN9IJNTb6vqp1HZFvxJs2xFhFPhr8kpSUknhyit+K5+ecQ8qVUhClAea8bCaOE9lwPJrZwMvMmxLceG1ZX00mARrnMabw/T/AMbTbBFszdj6I8ExlhGbla4/uWypOYk2jnpSTky6adkQMo9MIz7oEi3S0vEjhNt2axJKAC6s9zDSSnJ+npckkSu83pv1RZ9mtFnJfFjS5hlQGTjbTiI6JNJMqW4Ta8pxFQYSrgBFQpbapiYTYXQnU6R7dtPwMqvpl1y491ccS3pyuQPjjVOAvY3YLpWGZJtdLbW8ptJW4oXUojmSecUwrQgo5kWSi7s+etUmn1kIVcNp4aWjUHsSMNTbmG35wSyyl91Skrt5QGnxR75UvY3YFqt97TUE9lou2DcG03AtDl6VSmQ1LMpyp64rxFdV07DpxdNlTVQZm1xLLv3Qg9SJiXbKnGVIT1qFo9PuYI8y3MtqbcQlaFcUqjO6Z0dQ8oDIc0TYnsMLpo80rUSzhHYI9BYwzTZZ4OtyqAsajnEnqOAg6YdQ8knMOOTcutt2TcNx1R5FWMF4nTWW0vbxmkIUNUjpWjXGsJzEq1OMqaeQlxtQsQoRZFZSuTzGb53Z2iuSSW294tNrEpN4gl7CbHo+EDzxo6gy0nS6g/Jo0cSdLi1xFiyp6h6IkpSjsx3T3Rk9vYUlKgVKmIm5XZeunoyoXMAd0aUyp+tHogqm21aFtJ80PNN7sLrwZonsEvobIbS6VdZTEJ48eZlX6Uia3byeiUk2MapnGJVqVecW0gBKSToOqMNbUXHpXGk5MtKKEqVZJT2RKKzOzDNZXRaMOpqTdQdD6VKabbJz20NzFVxRKv1asMy6bhSnL5uVhFs2dV6YqVCmDMkFQJSD1gQulppNRbdWgWGkV6xZPuRdMG09UlS2WnTZQGsDiepMMOIsvKUjjEvItB5tKkJ6NuUVXEwlHppxBCVLSNNIhJ6E4wzaETL4gE8+pCnNEnSKhjSeM1iKQYv9DI6a9YmKfS2pVbq3TmKjcXiImZMTdQccNsoNkxXTstSyVJ01lvctkm8zLsJU0oBMJv4iTK8FJJJ4QzlmUSyAVEKTbgqIyrSaJ6eYEsA20k3Xa9zClYnGjKasnYnpqopTJuPrIFk5haIDDrzdWT4Ut7M7fyb8IdVCUQmTLLRUoLGWyjEdQ6CuVcUUry63tCg1G6udNWm5QjL8P8FpeqjsqEBKhcHgoxZcOuGrOEPFtLYF73uSeq0U5yXShRUu6nAOjqRrFkwPRJmVlnHJtebOrMAlVwByg0bsck6MrZ7l/nqqy3K5G1pyNJucvDhHmmBpddexZUa25q2hRbav1Dq8/qgdqW0ieZeTQN2lDpQltpSCDn0sDoNLX64t2CqOii0GVltw8FZQVKsk3PpjRiulRdR7y0X9zgk89RQ8as81wb7FqnSM54bOs7546kqGkeiVjA8nRqSpEsylvKn3otHuc1TW32yEgJV2RScUU5SZZ1Cxy0jz8Uo6I08/U1uZvrbJVJr6xFh2UzAeZcYWbqHXEPjCbbw/K1KbeZMw1LJU6WQrKVAa2vyjyKk+yM8STCn5HDqWCo3y+HKUB2aoMXRg57EcyW5r9LKctrQbdI6oyqfZe1rKQKKyTyV4QPVuoTV7LrEJUMtHlUjnd3j/ANuJ9KQs6NXbpP1sBukfWxlM+y4xFb8qpVI/ZQf7kE/8XGI7D6Vyp6yHAP7kHSkLOjV+7T1R26T1RlL/AMWmI1WApktfn7qPm4H/AMWWI1WtTpVJ5neC33EPoyFnRr2lqCTlBtExutLxi1n2W+I2U6U6XK78d6B8GSHTfsyMU2AVIy1h9knh/EiLozLY1YpWNhuN8Ybqb7IyOr2YeJlKFqexbndafm4OfZhYgOX6VM9vu6fmoXRmHViaxUm0FyxlNXswKyUgCjpzdfhKbf2UIOey6xAq+SmsJ+2dB/w4fRmLqRNZ5Y7LGS//ABcYjyj6XsFX24t9xB//ABc19ViKWyDzBeSb/wDbh9KQdSJrLLA5Yyen2XFdt0qU0P39Ov8A24P/AOLiu3FqU0R2vp+bh9GQs8TV2WBCfNGVB7LeuK0FJbT3vpP+HAK9lrX1AZaayNObiT/hwdGQdSJq3JHbuMon2WmJdCmnSp71D7yAV7LbExtu6dJA31zKv/dEPpSF1Imr93A5Iymn2Y9Zpu7dnKJKzTSXE7xKHQjMi4zAdHQ2vY3tfjcaR7ZJ+yCwPPSrD4qZYDqAvdvJCVIuOBBPGE6ckNSiyP24bIWdpmGZuSslK3kEBRHAxhd/2F+N2ag4xlaLaVWS4m5uOuPoIzt2wRw8csqB4pJHyw5RtjwAs5jVZa/a4n5Ysp1J0r5UQlCFR3bMPUH2CdenCkzk3uxzCUx6DR/YAst2VMTbqzzjV7e2bBTIO6q8jf8AZBCU3tooi27ytWpyh2uhPrETeIrvYSo0luzzXB3se04JkkMMvKypFulEtNYLdZOiwYmJnag3PC6KlTrE6fRKIYKxQZhX5OkD/CEfLHNLPLWxYsq0TPD9tOx2axJT3ChOa2vR4xjXE2HpjDVUclH0KSU8MwtH068Nan0KQuYklDmUzTenwx43tg2DSuOpdxynuSK5610K8JaSb9VyqOvD1p03lktDnq04y9yephZKuEKt62j1pz2KO0NtSgKdKLSDYKTUZf7+E0exd2iouPEzKvtJ5g/342cy8nBZnl46Met7D17yqtJuLhUNXPYy7RUkAYfUsfYzDR9So9C2a7Cca4Znm5iYozyE36ScySfgMV1WsjJw7jR9OumRbF+UVrGyM0g4R1Ra6TSah4ChLko8lwDUFOoiKxXQp92nPHwKYUEpJNmybRkq53aGfEvHwpYBtrFjp7mZTRiozDb7dUdAbUUX0NjaLDTVOpU0FIUB2i0dDKke54WVeRb7og9of1G8SuEXQqRRqOHXEdj9G8lbgixjn5LODzNKvdB1xZJEZpcAi4ItFaSk5h3xZqf9RTCmOIzSpVOmvsb6RYJd5LzYUk3hlNSSZpq3BQ4GI+VmXae8W3BZN7axS2WLQsUBCTLyXEhQN4PmhXJAwFzAwEAHZjA5jrBTHQAGzQOa8Jk21Ogjt4n64emAAznCJilhXgq7HoE2IiEU4k++HpiVps8lpvKFIIPEKPOKa8ZzptU9zQwFSjSxCnXvl+m56psD3GGq8tBORFRCm9frwbj440RGSHKkul0CWnWnLOsr3yTfmFX+KNS4brLWIKDIVJlQU3MspcBHaNfhjQpZlBKW5k4lwlVlKns3oSNoDLBo6LTlC5YSXLtOeU0hXekGF4JAB5ntto8lOYZU1uW9+oGwCQNIyh4pcYf3Rl+gFfWxp3bhVjTXpdy/QbHST1jWPCJ7bZhCXmFNvBKXknpAiDXgsX1FJOYdbl90llQyiw0ij4qbnN8pSZZRJ52i2/i7YOHBbY88Ivba8GTF85bMNZk72B28nljcrMJmAsyi81+OWLrh+YdQ8ha5Y7zhe0SqtrmCc1ilu9/PB/xZsGMq03Y6tYnJt8CVlyWehS66jiilS5azNqfClXH1vS+KNP12oKpGHW92cqsltO6M7bJcVUzGGOGmpJAsw1nv2kgR7VtKrCZOVQz9aB0YzcdKVCDzaOx34KmsRWjFaq5RWMUVPfLds7k1Nh8EXrDOJJlyUcU64rLpZKuUeeNYuSpsshlIJ0iflZpTNPaWejvDeM3DV1UtCLu7amni8K6d6klZNk3iXHE1TJVSm3DoL2EQNP2i1VTqektWZQGoPnhhW6ww24jeJzAcoNI4gl51TbbTCU6xB4lQqSzS24JrBupShljvyezYfm3p6ktPvm7i7nhbS8SKYZUVvc0qVSfrBD6PQQ7UeanpJo6Ojo6JkBnUKWzUEjMMjqdUOp0UmEWXJ6TRkeQmZA4OJ0J74koKtYbTdRsIAK5UsRvS5KWpJwEe+P8AlEG5jKrNudFg5efQB+OLVUKolKVBISe+KrOTeZR6IiFyeVjKtY0n3pJSCydRY+5GPHcQU5qsOqVNSq0lRNyECPW5l6/vYjJhlty+ZsHzQ1KxCUZPRM8Sbwg9IFzxfUFMpUblChaImco+IWHCTNZkfXJMezz9FadzZWrd0VOvUF1uVdLebQHnBmuxRjJDvCeLJiTo+VxQmXUoynrvaKFOY0dbnZgzEupC1LJAItFGbxJUMP1Z0pWpFlaoVwIi3yeMKBXpX6Zjwd5I8rh6DEpU2XRm7iM5ihbaStxNkq1GsQQxqtmYuEXTfhElNuYamxlFS6KeFyIZmn4ZUQRUhFdkuCzM/I69uxfICkWELs4obDiSDlHOI/wHDydE1MQdMjQ+VUSRCshqcken7NaXLY2qz8s/NplG2Wd9mVxVryHZrrD55rDcnWN25UHDJpcyKcbtr235fDHmMuaWyttbdXS2tPkrQSkjziJujVikSEwhRnmpjXyVa39MVSVtbHVRm5Nwb3/1JfFNVpcvNESDi32hoFFQUT26aQ/wntAkZWnzDc0pbb6QbJcBBPpi/wCG6XTZ6lifkJZpQVqQlI0UP9cog8X0On1mTebdpiUz5Nm3kpN/Txv3+mL4qG6OWTqK8ZGf8RV5VWx63OKXdKDlSfVF8bx1OpSAiYAHLhFPxpsUr8rJmdp5M0oXWW2wc6R2iG2yetYTfafw1jVDlMrCnClmecWW+PAZictx1Kt38o0akoSjGMeDjgpJuUlub+bmr8dIZV6TTUJBwcNOPVGfsDbdJabebkWagWZxI1plUQWXT2JCtFd6THqsrtIlJplTMw2uTeUmwzaoPnjzrpvg77K+hmva844zQ8SJd4oZcRcc4yUOimNhbfGFowzXpi1kraNljgdRGPL9EdcdNFNJ3Iy4C8+2FAeBgmU5SQOj6oNfMrQW7BHQViiSYHlD7D9JZrE1MpmH5mWbaSkpMsEEqJKr3zg9Q9ML4hosrR3WhKzczNJWOl4QlAynsygQw13IvNHZoIrSO1hkRXMToYEH1QncQZNzwhjFQrXUXgyVHzQknr4QZJhCFOECFQTNqCINl0HVAAe/DWOzceqCa30gbWHZDGGSq2ut4VzEJvyhJOoN4fSryWWD5WYq0yqt6RzEAxIKtoIOFWhV5QLItlvYaBQI9HEGAkyBnzkEcwCAeGmh4juhCEsxgE6q00h2lwMrSoLT19E8uQhqs5lEjnAIhcYqthucPPIYs+GWd9Sqcl0kpTJoWq3EhLdzb0RV8adHDc7p73jE/QXnGaZSd2TvlMtJQQQDmIAAvp12iXAuSxSspKvtrcUChG8Smy30oKbg3IJHS4D/AFrBPF6PCChKitIYU8CE8bAnQeb4YJUpOqSrSXJ6WcbaWoAEqQU3toOieq8K7moy8ipKkqRLhPHo3ANzYHjyJyjt0ivXyMcJpck88wUuOobmEL3fkrVmT12ta/NPEW7RBJintZmBKFDgWkEr3qcubKFFPAZSLnQ9XYYaO1CYeWha3My0XKVBIGp4k2GpPMmCuTz0w2htxQUlBuAEgG9rXJtcm3MxJXFoOFSjfgPhCSorSQFZk2Tc30HaOPd3ayDdBbW5LpLm7Dm6OeySDny3sL3uM3wGIt6pLXIoZcyFtm5ScgBHM6gXPn6hExLYfr28l5pFOdK0hC21Z2+QGXTN1ARZGE5dqKKlejRt1JJX8uwzTR1KcZBKcri1AOAdHKEhWcdmU3hRmloeeaZbcJUoNFeZFgkLy2I11sVAcofJoeIGpNEsafMFlIUEaJJSFAZhcG/Lh2nrMD4urze7KaS6hSN3daWblYRbKDrw6I4W4RLpVf6Sr9ZhX/1F+6IyalPBUtm7gC72Q8jIsWtqU3OnbfkYbbwpV5ZB7CYfJwzV0pSBSp2w6mFH4oD2u1YXPime80qs/FE1TnyhfqsPxUX7obJmnU671wH7cwdNQmU8Jl8fvivlhTxHVE6mk1AfwNz72Cqo9StrS58Dn9Bu/ew+nLwP9TRe01+6OFUnk6idmQf2ZXyxH4hxNVpOjzMwzVJxt5kb1tQfV0VpN0njxBAMPVU+dbT0pCcSOGsq597FcxFMNTmGZ11lwONKaVZaeGmnrv6IMrW6LI1IVOySZd6btSxS3Sabua3MSzW5S4luXAbAKwFKHRA0uecOFbWcYttKAxFPZLE6qB+EiKRSlDxJSOQMmz9wIWeV7iq+ptCsi1HtYnseM7lBxwtkEZUJICb35eTrxhNU9jtRObGCF5lXKVpSpNxbkUctIjcWUqZm6tKzklJKmJpKUpu+lpyVKcxNjmOZCh1gdVoipjDU6qYdJki8jxxMTJ3aEO3bUBZWUkAg9pjPzy8nVlj4LMlWOs1k4hk3dB5Uugi3EfncJy9Sxw5Lh5mrU8h4ZkpdkkAi+lrFvSIOeodZk6qajTZbcL3DcqlG7S2MikKSpWVKiAUkINgbaiI5GGZ6TYpDa5Jx1tiYmypJlw90ClAQSjMm4JB5+qDPLygyx8Fy8Jx0vRU/R1mx8uSRzH7FAOLxs4pJU5h9zpXGeRa83Fv/AFaKpWMPVdLlSmqew8GZkMy6pZDRT0N02QpKbm2VSSnnbh1xN0ekzEjj6bdak35iTmFOqcmpxotrYVc2CF5iFpJtYW9EHUla90PIivK2t1+VeWyWKPmbWpCgmmM5SRcH3vCEpzbdUae234QiktBWiSaeyCfPlipVAZapO9YfcF/3Ris4glWZzEGHUPstvtB14lt5AWk+5KtdJ0Nib6xoRjGVro43Jpnos1t6mnmVJQ7SUrUCM7cixcX5jocYLStr05OS7y1iRWUqyhWQhR5EhIVb+rFYZotKbUPpZTsyTcK8CZ0/qxLreU6ljoMsmXUXG/B2G2bKItrkSL6dd7QnGHgM0vJaJjbBPJUkIkqeQAOmqQ8rTnYAXhMbX6neyqfTrJ5+AkGKG1hOitqzimyylK8rOnNfXtg6sO0pAKkUyTHcwAfgiOWHgeaXk9hpVarS9ndQxe4JOVb8Zt0ynlpsoeQ6UlTqinybJBRlNgb3vewiovbVsVhw3rT3RVplCUjjp5IHVFWma/OyrNEoTT+5o6p5TypNtOVvebs9MgcVWSBc62FoQmF9JSvstYlGKQOTL1hvaBiSp1uXlXq1ObpwOEhLljognjy1A4RYZfGE0pmcW3Wqv4PJ587zWcNi1gQFAcezn2x51gp5tGKpIuuIabAcutxQSB7mrmYuU1h+SmZybf8AHlPl/CGVtZZcpbCs1+ksbwgkdlr2BjmraSsW01dE9L4tnJ6bTLsViuPqyNrVuwpaEJcSCnN0bAWIOvCx6oI3tMmWKSqdbxdWm5RtzcWQ8UrKrXtlCb8De/CIuVpMhKVUTaKzSnE5GGyHilSk7tASSkh0WJseINtIjHsEUlUutpNfkkky6Wz027b0HVy2fmm485MUX+pbl+hbBjquPTk003ifEzgYuHXG5h1TaOjm1UOHOEU7RJ96RTNnGleTLqQ45rOOXsggEEAaG6k6do5REJpMkiqzs0KtTFNzSl2LmUuIBQU2Sd4AND1GAl8P0qmzhfl61TTeUEupiY3a2lLsgLWRvBooI4dZ46QZvqLL9B9VMcYkTQZioyuJq+2EBIQJiadQvUp1yniCFaGKw3taxolP5qqv/O1gD4YeVaVkaTg+qSzVVlZt151DqGGHUhKAVp6KEZlGw15xQkrNrc466OqdznqaNE0/t0xC888yvEdWmlsqyLzPrXlOmmp0hk/jet4osypueqzQ0WHmC+kdtiDr28YhsGr3acQFAUFKqbnSSSNMqeqJ1U08LK3rnmUY6bJbIqux4rFzuE2y+hXioKCm2ylhMuCqxuLWSL+a8IM7Vq3MJSqWm5xaOIUzqNOqxhETBUglalFR4a8+uDeFOZQnOuydB0jpBoMkqdjjFVUmGpGWVPuTDx3aErFwSeSiokZeu+luOkDR6fKYJmJyXRKydSqQbs9PTcsHUtr06DKVjogA+Va6r8hYREOPLUnVZPnMR0hUFu1ioy4NkS/RAHac3xwfYCXZ9kFVMA1eZNJlW5GYWEhb0qylKlEXJIVboi58lOgtDhz2W+J6o8DMzjziuGZ5KV/CQYjJiaW82hpx1bjaNUtqUSkdwPCEHGm1EEtpV1XEElGprNXCMpQ7dCXV7JyualE0BbW4Qi4+CLrhLa9i3F1RpcmqtzDTU02VjLY5RkKhYcOUeRYgUhmkTJKQU5ekm2h1i27IfzWYfTZP1AkZTpbcK6opnThGDlGNi2NWc5JSdz1pyvVJU26ycaLW7LhReGRBLYSLqKjw00v1XgU4hqDM00y3jhTb7wQptCcgWsKAykW5EEWiMmMKVXxhVUy+7k5OcYmEqYMwp1t51QISsJKfczrc2J6odUzDNVplbl5pIQ4yJaTYcyzSm9WkZVEpyHOONgSPh0ybre6/ZGjeW2pOpx5iJMi5OjaPPiTZXu3Hd8MiFadEm/aPTBjj/Ejc0ZVW0eeE1p7iXBm1Fxpfq1iiv7MaiqnzTKJhAbeZLxYKzlM0FEJN7eTkPp5RO+1+qytaqMygJXKzWUC00pFrNBFyjLZWvDURZn/7inIv6Swy2PsUuy7T6doc2plxK3EubxJBSnyjxtYXF+q8Iz21XGMth+bqkhjianm5UgK6CSCbpFr/ALoRVKfs/nKaptFmZyRVIqQ9KrdKRv1oQHMqrXAJRcHl1QtUqXUKRs5rrc+7nPRLDanN4ptvOiySuwzG9+USU9V7iLirbEXP+yQx5uQlWKZtkuKCcySlJ7hp2coVnPZEY2p0qwXMVzGR3pIVMKQc46wSNRHkVTcU3OUh1Cihbc0kpUnQg24gw6MnLJJtLs/yY+SNXJE4czPRz7JbGP8AvQjj74NH1iJ7BvsoKzS556bxA85XqWlrKpmVabSpCr6LzJToNDxjxtUq0oC7TemnkCFZN5cil1Ms4uX3iClYaUUBQtwNuIiLpwJKTPd697LCYmXs1Dosu1LBWXNPkuKVpx6KgBESfZTYi50ukn97c+/jwyQczSZtwDhEKKV0TC6cR52aWldrmMJ6RlprwLD6G5htLiQsPAjMkG3lcdYTe2iYsfzJXI0FWticzwt2eVHnNYpL9Vw3ht+UlHJuZZk0FKFIaWwboSCHErI48iO2EalQ6k87NrXIh3PU2ZktthC0qSGiFEJUQCATax4xn5nc6rInq7IVDEj+8mabTAviNw+8kREPYFM0yUO02UUjhpPOi/wQk9R6q3U2J+mS5lVpl25XdqQlsZV7xK1ZUqIGQ5FWB5w0RhmelWKayuRdfallzaVXaQ9dKinIopKkg3sTxiXUmuRZI+A52XyijpSmgOpNRd+9hN7ZnJstrcVSxZtJUpKKo5fQXPFuHq6HVGquZqWac8DmZ9resqsChCChaVgDh78Huh3humzNNmKykSjqZRyXWsTM42lEwpRucpIUc44m+kPrT8i6cPB57usPlJJpk7bsqH/845Mph/j4FUgL8BURb+yiPQvoC+sMnmWZ2tMtTKVOM+DrUEB1SBmzJ16JF9L8euNA5SYnJWhpk1lhmpsv3CW1LnELSOu43Y9cL02jUxttS5uZqRdScyRLvoSOH2SDreI+TpVNk3g8JQuKH6Y84oejNC9QkGalql2Ykk2F0Srtkn+MCfhtBoCdtT27BnsjhgujtU5mjOzjSPfvTYCj32btFmoPsipbFmJqVTnaC5LOTk23LpeE4CEFagkG2TXjwvGZm8PyjeWzs64tJBzLmSQewi1rRYaFWhQZxqaakpV99lYW2Xm/JUOBFrEEHXjFPTilZFzqzk80mbrnqe5LpE4hSUuIOqbZge2w1HeIqOKNnOENqUo43VZBtmeIITNs5QsHrzDj57d5iZ2f4dksS4NoNSnylTs9JMzLrYWooClJBIAJPXFsd2bUlyzkrlZcAtodPXHLmcXoW3UlqjOexR3BnsqsHzU/RW1U+fknd3N0mqJSstqOqVBaeR67colqjspxngAKFNmX3JJJvuJsGbl7dhvmR6R3R497G3Z43sewbXppuumaqdVmWUNMyzSkBCG1FSlKUeelufGNBYf22V2k2RMOJn2B717VXpiNkR9x5FtSxfOTGzeuSFRpL1PmFtJAcYc30urpp5myk6A8vPGWNI3V7IPG+GcWbHcQrFLEnW903ulpAF1b1F7kcdL8RGGOXbE4iYbekshFgBe/DUwRKfMbQHIiA1vwtEiJZcBttOVCcS4oAqQ3lvztmv6xDrH1PXLLkHrdBW8RxF79G3x+iIDDbrctUplbxXlyJTlSAevX4IkcQV1qoty8glDhWzmdLrigcwNhYd0BPgglRwSTAqTxsIFHwwyAb3toMm8AkdK3rg97XhjA6hAx19O2DC6tDAIFIveDa2tAIQVKsmxI14wI6rQADl4eqOv1cI4a98GCcqtdYAOAOgMHT2wXqEGSLwDHEpkS+grCSi+t+H+vNDl4S+5Vuz7oF3Gnveq/+UMk6GDDS9tIQweHKC84HjHDlbU84kRITHF04bm7/WxP4dt4LQCBf8jG3nTFfx1f2tTmvvDE7Q20u02ioV5BRL87fWw+CPJfsSSa2aWEqmA8Q5exTY2iHnKoy5TywwhZU44lbinUJ5AjlxOvlaEjjErXn5rxc0h+VWw6pYSouWtbrvy5QlWZ1pllQTffKWkFIWlWZIKj0re96uY9EU6FrK7cC5EclxObLcXte19YPUHEqqU2psJCFOqKQ2AEgXPC3KK0FoVti2ctPNpdZXVWUONrF0rSVgFJHMHqjois1kc85ZE2ywzDgMu7Yg9E8D2Ro7Z7K0meZUxPrlUz7ko34vanphUvLvu2HQU4AbG3Ac4oXso5WnSeOaMKdR5ClKdpc0XPAJZLIcyuNBJVl4kXNu8wrRdpVGlaVLiXqmGZ5DrDaXJepuodSLJGoAWCkx30L5ZJPU8t6pUhKdGc43im/r4PTxhks0nGjtVo5pM/S2GnmJVMwXUoJIF83v0q1I498K42o9Pw7SZFUrRmphyapjU0qaXWEMrbdWCNGCCpYBsdON7coob21p+ebqu/xFQXU1RpuVmW0uICG2UeQlqy+iRrxvxg9W2pCuMsMTKsITgl5VMmxPLv4S22m4SQQ7bML34Wvy5RdarpqZWfBWksvD4+v28HpVW2fyM9I0Z2i7zwgusS9RacUSGlPMpcQvhomxPXx7IX9o+HpzHUjIU9c1MUmdo3jJpZdCVrJK8tiU6AhI4jnHnbG1KeYRV0y1XpaFVOTbp727dAIaQ2EJWnp6OBN9eHSOnCF5HabOyFSkp5ldFfXIU5NLl2VOEIdYAULrsvyulysNOEL+d5JZ/T9Hl8X08PX91uWKh0OkT2JH5esSE7h2nS9OXOvuOzzb6kgHywpCbAABVwRygk5giUo1Qk5GrTqpJS6yqnuTSlJDW53aVoc14FWYa3trFPl8TJlWZ1un0ih0lqbknZB1mUeWpK0ODKVdJZ6QHDl1xJ1bHU/XKdR6ZPS1OqUlSrlsvOKCplOTIEOEHSydMw6gYkutdeCqTwDi7pX43+mmwtjGhqw/Wm5MUep0xN15Xp11t1uYSCMqm1IAHC5I5XEZcqXuWEp5J63/7RcaUmsVTlWkadSk02XpFGkVrcalm5lcworVpfOs6JAvZIFtYzVWSPavP9V5j+0XEK2bpxU97mp6SqP6qq6GzSJCkq+kFIvYkSTPP7AQ4T0k9LWIBvEdPodEoTU8/uC5ItFHQUq4CU9QPZAJx7QbX8PF7821j4o4rM9ZdF+axJWSypSKnO3Gc5g5dKQlINj3/JDlnE1acmHWDWJlKs27Te1ic4GvVpHnqMfULKQak2kG1xZQ+KIvEWNkvyrSaFPNPTy3wCkJzXTY30I67RT0k+CzqfU9ZTiWuuKKk1h8spUhKlrCR5VgLDn/lraElYwreXMavMFGVOX3NBNyVaWI4dE8+qPGU1/GWqi6kqOpJSnX/VhAt4mxWmca37iUMlaUvKKALIuL3PYPVD6K8IXVfk9qlcU4hmXGENVN9wuDMbsp0FwLgZTfVVh1mEHMdYgbZQ74zWlKrBF2mxfjf3vIp+EdcUpzGNJdWCavLqUixQVPAkW4W6uAhL210dWVPjOVISSQnejS9rn0AeiF0l4JdR+SUceU484teq1qKlHrJNyYg6kgPYsw0hSlBvwklzIbEpt0hftGnnhb2zUkqUfGUrbr3ojlM+GYsw6lHTzuKUkpPEZSbjzRbsiotr7dKmpWZMm46060gr6LoXYhJIBunnaGbartpObT/KJSUwe5JSc08CwklhalqSLKNkHS9tePOIqxU2kDieEURkpbO5IPYi1zw+OOvbtHOA16+EArlrFgiKqP5e0HlebIPb7m5DmYBU4rqvDOqfl7QevwpX9kuGM7jSkys8/LuPqDrayhaQgmxB15RaiLJyXbHSCwmxsDnGuXnbthZaGkupKUtqRkVYWOlwQP3Q07LxWhjekafRCrfsavkgfbxScovMqv1ZDCcWwUkXBTMmXH3Glp6JUGkLtlIKSATcciR6ezUiWZdTiAksBIKirNe/vvJvytawJGtu2PMapWKhO1B12nThEmQnIm1iDbXiOuG/jCut3+jje3WPkg6YdQ9SHgSEN5SCoJUSgpPlXCgnu4pv5+cN290lDKVEcSpWnmAPZcX05GKPh/EjkmZpVXnFLzZAyMt7eVm4D7WJb26UnUeEEn7Q/JBkYZ0Wj3BW8SVBCFLzZkC6gnMBYAjqzHjyF4RmsnhCy19SPSAta1xe3E8Dpx5RXfbtSQr8kKAHPIYc0/EkjVphTMq6XFpQVkZSNAQL/CIeVoMyY4oaJFqVnTMNXceqLozX4myNND9kIkWpVqVqb5ZTkCmW7pvxOZevoIhCg0dM1Jl4rUgpqMwsCw5JZsfST6IkFMpTMF0KKwtNrnrClfLCvqHB3ZBgYIrmOJg0FxAOHQHlEHSSfbNiEE2GdNtPsExNOeSIrlJey4qxNc2AUDx+wTElswJibbYyq9zSg2uMpNhYcdT54UHkgX1hdNNXvEtuEIU6opA4nQce75YaJVrYQhkbizTD87Y65L/CIWozqm6fJLbUptQZR0kmx8kQhik/SGcv5OTX0iCMVKXptHknJl1LCC0hIUrgTlvEvlsRWjLJT5p16caS9NOoYTdbqt6odAakAi9ibWGh1Ih0lSkzrbXhrjzV3LupeVZeUqy2F+dhppe/KKknFVKP6OZtz6UN6hiSXdklinTja5q4yjiLX1+CKukvBb1Lcl9VlTNJJnXVsKm9zu0vEKyX8u9+HyHhoSKfyRKguOELaWtaN+pfSCVZeBHEgcLXvaPL0V6r83myftUwRzFFVb6JfaSeZyiH0CPWPVZmYRKuPIQ446EtLUnM+u6SFWHBXGx4G/CIlU8+62UrfeWk8UqcJB80QacUUs6GfaJ6yr4YE4opXKfZP7qGqduAz35F6srK9Tr85lMSebUkxA1iaSpVHWlV0LmUlPaCOMTObUxNkOQ5cCU3sFaeSoXBiOlZlDkyotWBSlQKU6DQdUSUmx4ZNJaJsClaie5JV8UR7dPWzvnwPc8qhc8c1jBoMa0V5T1LS4oAKU4ScvDUCHhcvpEThglyhtcT0uH7kRJ5h1iBgTMniKsJEvKy9SmW0DK22kOkJSOAHYB8EP3K9WG96UVebWhICkKDgIsQTdRBI5FOnOKxnT1iCTMz4PKvvJTvC2gq3aT5Vhe0c7pp8Fik/Ja2a1XZhqXcRVpjePOFCUl3QCxtc8rkHjYDQ31jm8R1lSCoVedukuBf1qQm2vXbXmL8BaPNk4wesbyCv4/+UFGO3EqCRJqBUQOi7bn3QdH6D6v1PTZjEVYl294mrTKkpvcZhfQo9HlH0Q3nMXVfM42mqTS2j0TnI16+UQTjylaFZKRoLmCX6P8AnC6cfA878g5gnhoIaZd5WJay8ii2sCwvxsfihwbwlLS7kzWpUN2BCXFXUbaBBJ9UXFQ8SzMNuIzvocQVWIyWPDviQZuqyQLkmwAhotwOLVbQ5gqHbasriVcbG/G3OI3GOfB3Aoiwvx8oW4264SXcKUk6EacYcGdSm5bTmNiDmAtxB4AdnHtho4oFSuROvCFcZsbZLI4gquCqEmTn0sNokWghtQT0U5RbmLxe04XxigZk1VPmSD/eijbMpd6Y2e4XWxPolXvAWk8VDgLWNhHpeBZp1VUmJebqSXTLiyWrmyieJ1EcGbWzO1w9uaLMjYQmUqw3LkKuc7h/rGJrwgK1IsYouD57NQWk80rcGn25h9iLF8jhaizlVqDpZlJNlbzqrX6KQSbdukTUdCu5H7YsTsSOGUU5ZKn6k5uWgOWVJcJPZZNvOI8IUdYulVxlRdsOBqfiilLdZNPmVBcvMJs4M7akWNtOYPmMUtV7xJKxC9wvO0G6udhHWPEiBHDthgK0VnwicmUkJOXKrpcLWhxVKO9JTLU2ooLLyShGVWtxa9x5xDnDNPbCZubcUpKVKDZy6X07oc4keSlmUkg0pG5zLC1KvmzW04dnwxV1I5st9SXBBc4O2njpYwdUm8kBRQQlXA8RHLZcZVlWkhXbFpAJa3bAjTuhTwd1KUqKFAK0SbcYAtOBVspv1QDCwZNrCAyjjA8eUMQon/V4Mba3NzBbDlBk9IWFoAO8mB7eBgAM3OBv16wAClJJvAp1gOqDJTfnaABRNstuf+tI7lxjsoFtY42tw1gA4coMk9KCiDDjEgIPHCh7WJy/HKYsOF2fCJKhoLgbBbY6Z4DQaxXsc9PDc1a5KkmJ2hqe8T0dDIu5umLdpsmHwR5PQMTzco9SWnGZhLylL3WVKuBtz9BiMnqVJyra3BZQDgbO7e1FlKBsCNTYC6fh10lMXsK8VNuPoCUFQyKTaxVbh32vFVXUJh5xtxx5xxaCClSiTYjge+KbMsbQFQZRLzjrbYUEJt0VkEpNgSkkcwbjzRVHlZdr+zs6j6asfdiLM88p91TizmWo3Jta5iqzv/3VwArhaqsn+uI6aXcjmrdjNC+ygRl2gYZV/wDj5wf9xiPJVSrDyytxhlxSjcqU2kn4RHr/ALKROXG+F18/BJ0f12I8kzc4kzmoL+WJqpskqwMlKnvYR8kFTS5BN/pfJk/tZv72Fknl54OnhEbs6sqGxo1NzZvFdPv1mTaP92ARRaYhQWilU5K0m4UmSav9zDvjrA8rQZmGVeBmmi0xu1qTT7dXgbQ/ux3iOmD/AGXT79fgbV/uYeK19MAVcr35RK7DLHwIKpchb8r5K3MCVbTfvsIjsUZU4fnEobQ0lLJCUNpCUiw5ARLFR4GIjFCgcPz+pvuleqHcMqWyLBsLyr2rYBQ4hK0qokzooAg/Q6bRqp6k090nPTpNf20ug/FGSdjdSlqbtK2czU2+3LS6KW+lTrywlKbyoGpPbb0xqYY0w84LivUw/wAMb+WJGZiW8ws5heiu+XRqevvlW/kgJXCdCk3g8xRac04BbMmUbv8Acwl7dMPfr/S79s6399B04ww/cfT2mEdk6199EWcWZkl4vkgkAU+RsNAPBGj/AHYSco9LeKi5SKY5fQ56ewb/ANSGqcW0JXCt00/wxv76De2iik6Vmnnum2/voiSzy8kFMbJsHPqUThqmDNqQJVFvRaEvxF8EODpYZppP7WT8kWNOIKWrVNSklDrEyj5YWbq8gvVM9Kq+1fQfjiRHNLyVRzYjgVTKx7WKcbJNrS6b8Iz1s9pPjraxgenBOj7ym7J6t0dI1oqpSgZcJmmLZT+ep6u+MubHqwzRdumBZ19WWXZfeWsgXsncLubRmepznTwNaVN2koyt97M0MG7yeY0/tI2FyeEsM1GbYE50JR9YUp1Kk3DZOvR7BGUEp+hUngOUbk23bUpN7C9RoiWkImpqQmFpS48ArKGVkEC2vCMNJVmZTx8nnHgP4LxX6iWJ6GJnXw6y5Jz31TzLVRbSa3t+5tVla2lmKIaU4pYQm9uVwNTwA6zCYVmVbsg7LwZUVKSVEKSpPStqkEDzawkL6X1P10fTkzmIuqEePqAffJmlk925cj1zZvhzxhh2XfMoyvOp05lNpJI3ih1R4/VlEV7D9h5Uysf9lz/KNBbJcTUqTwjKMvziG3kKcSpCkqJB3iuoRajhxbahp5HSsHpv+V8v/JJ+SD+1JAH5XsEfsSfkiz+3Chk/lgyP3KvkjvbhQ1f7RZPmV8kFmZGZkZTcHySkneyEulXP3FPyRIJwdS0kWkpf+ST8kH9uVD5VFofuVfJAjGFFPCpNn9yr5ILCzMZVDBkgpkBiSl0q/Yk/JESMHm/5El/4ifkiy+2+j/q9P8mv72A9tlHPCdB7mnPvYAzMricFrXwl2Un7UfJHjW1inO0vaJKsuZRlo90hI63/APKNFJxhSc1hNKP7w797Hgu3GpytT2ksuyi1OIRSEoJKFI13yjbpAdkM68NJuoiDwW2iYpc+UtZ92+tdydTdIB+5jpxSA4lCEBtFj0e28N8Gzxp9NnAVWSt9VydbCwIt6VQtPqbcbaebJN81/TFeuY3OBBR88LOMpS0CFHeZAtSbaAE24+j09kNUuE37euDCZWpvISMo7O08/OYkRBXw484rFFOfGGJArmrX+Ij5YsalXHGKzQ1XxhiS3AOf3ERNciLl4Q1vw7lu8nQKJOml7xGp6KiLw7SGN402tat44oAgEaC3/wAQzFtT2xBDZE4ucCcO1C2nuRix7L5BFWq1EYWhDiVS9ylxIUPqfUYrGMPzO1DsZVFw2KvJbr1GU44lCRKHpLUEjyB1xZwU1O1nsycFy6f0NLj95T8kPqfhtiTfS4GWRb61pI+KJbxlJ/q2WH78n5YKqrSCTrPyo730D44Ri5mKTCQ1LqLEvLqcFsqXbITxF7kJNtL8oVTlQTZKQPtREZPVSnTEqpsTtNeJUk5Jh9CkaKB1F+ItcdoEHVXqXcnxpI/zlv5YlqK4g9h2TdcUvIkXNzZIiExnh6Ul8E4idtq3TphQOnHdqieViCkjjVZAfwpv5YhMd4gpS8A4kQmqyK1qp0wlKUzSCVEtmwABuTBqNN3M2Vte7TQQeCZlsf1Yn0uCK3iRzMujX4eFo+5MTwVygexurceyk0qVmkOINlC4B7xY/AYb+NPDG30BvLlKk68yAYWpzbT08yh4KU2cxUEGxNkk8fNCKmWszrrCC20ARlUrNYlJirkmROz2VaqUnT5V5KVsvzCWloULhQNgQRzGse7DYthrILUen2I/UyY8J2VvobTSVuLCENzbZUtSrAAEak8hGpE4kpG7A8byF7fqpv5Ym27mfiJOLVinK2L4c/Wan93g6YUlNkeH5R5KxRacddR4OmLZ7YKV+usgf4U38sF8f0tWgqkie6ab+WFdnHml5G6cE4aFj7XqXe1jeTbPxQl+J3hPpH2s0cki11STZ9Yh8K9Sx/tOR/nSPlgfH1MPCpyVv2yj5YLsed+SlO7GsPqcVlpEhYnT3EQCdjNATp4okP5EGLmK5TTwqUmT2TCPlgfHVPP+0ZT+cI+WDUWeXk8b2ubNaRhvAc3UJSQlJaYQ+wlLjLeVQzOpB17rxTJWaTK16UuL5m3kelChf4Y9b27VKUmNmc42zNy7y1TUtZDbqVE+6p5Ax443KqnK5TkIOVRKk9LrI4QcGhh23F3JhtDbObplR0B89oXSeMNB1DU/JC4VEDsFgrlwECo8TCIX0uuDlXRsYBmsNnVNfcwNh4peyF2TQpIJIvx4RYHKDOTDe939lINiQrpDW2o42jJNe2iYnTJ0uRknJmWlZBpKWFspVqAOfIiGydquLG3isPzIQ4LONZDlV2gcj3Rxuk5bnVGtkd0O8I1It0NNwLpdcHH7IxT8WYqpW2XCeK8MUCeD1TaZcYLagUhTgGgBPEZha8PKTObuiKQlf5455jnMeK+x9wXXaHiLEVTmGHGZKnuFl9xZsFLUshIF+OYXIty1i1R5KHLWyLvsrwTU8D7JZoVaWekJuefSRKTCChaUp98Qe29u6DHTSJfE+JZqcrkjTyoql3Zd95V+N0FsJH9cxFKSQq2oN4T3GtrAa/64RyRltcQOvVBv9EQiRZ8NzEomlzDT82xLL3gKUPocsoW5FKT8NoJiKaYmG5Zpp1uYcbJUp1sKtYgadIA8uqIFtRCdIPmvrHD+lh1OrfW9x8DjftC1ipV7BVxa1urWEnEozDIorH2Qtb4YTJub8YHNra/wR2WAfIeZZS0oZnea08De3I6wVb7ZD2VKgVKukqsTY8bw1v6IAw7AAeqBTZOsdpYdcd8IhiB07oMn0QTTvg6YYA6mxjuyO4q6oEd3DWEIG+gHKDJ/1rBAefCFNCNBY98AwQbdsd3x1yomOHXDEGSIMnkRAR1+FuEMCDx0r8bc1y0MTFHcUzRqQscQ2x5PH3sQmOulhucF7WTFhw84EyNGUo2SG2Lk9wh30FyWusyKJeRDDRmghpecJedKxwtwPfyiFUy4kG7axYkHonS2p9ET1cVOJpaG3Jht9TbgWopBSSm1vPqYdTWLKe44XEsvXWtSnECwuVWQo3194nq5nvihT8IscSrolX3nUttsuOLVqlKUElXcOcUzEDjkvtEwUoDK83Um7JWLahV7ER6Q9WpdxmWbJUSyhkJVl6lgqH9VJHn648wxM5lx5gw6E+MG/K74voyzS2OetHLBmmPZQMzacT4admg30W55CS0CLjMxxuTHkOc9Wke2eyrWpVUw4tTe7sqcTbNmvqzrHhqVgRN7lGH7BwLcRB0qhslw8RxhQLtpAdIv763KB5QgFDjeA33bAAuVDmbCEVODqhNTnVBVOcDwiQhYriIxQfpBPnraVf0Q/U4DrfnEXiZweIZ3tbV6oAZYdhbm72o7NikkHxc9r/Bh/lGv1PLB8pV++MUYBrbeF3sH18sb6Yp8qypAKlC6Vs5FpAB1uDpcHUCNbt42pLzaVhyaAUL9KQmB/hwzLxSeZMni4pXE374JlTzSn+KIgvbxRs1jNOJ+2lXh60QX290L31RSn7ZpwetMI4rk0uXZVxZaPegfJCfgUqq4MpLq198yn5Iifb1h/nV5VJ7VEesQT2+YcOhrkiPtngPXDFclPFNOcJvISZPbLo+SA8QUpXlUqRV3yrfyRGe3vDSdTXqcO+ZR8sGTj/DKuGIaX/PG/lgIkg5hujKl3r0anKGRX6Db6vtYyBQ5jwXaDhsgJUnO61lPCym1J+ONJ442vUbDtDU7Tp2SrM66rdIl5eaSrKCDdSstzYW9JEZik1fj4oS0lKMi3FjMbDRsm14qqpSi0zTwcd5M9gxc87PvO1mdaSudTKONIdCl9FGRQtbNbgTHnTTpLKATy09EXWexDL1aUfkw82o+DvKCW1A6hBNvgjz5EwFNC51HZHDg6dOlDJTjZLhGrO1x+hBemEIBAKlAZjoBeC57hN7XVDRmY3byT1EK0HEg6QqpwJPQOZAGh80d5AjKsq2IsP8AUZpzS9h9RXGmtjLik4Hp4Cjwc4H/AIioy/VlpViLDn7YdB/kVx7JsT2gOtvTFGeYemZWWbztqkpVx5bZKjcLCAeNyQT1GLEcOKi5U9OD3bfL5LV6YDfL+vV6YhPbVK/qOrg/8omvm4IrFkt+oqt/RMz83EjDJ3fL+vV6YNvl/Xq9MQHtqlv1HVv6Jmfm4N7apUfoOrf0VM/eQATu+X9cr0x28XzUr0xB+2qW4eBVa/8AyqY+8gfbRLj9A1b+jH/vYYydQ4u+i1DzxnX2QDu82mMk6kUdGv78oR7eMVMZVKFPq5sLj6WvfexnnavXGcQY4m3/AAJUrMyzAkwp7Ol0thecZkE2TcqvwvrxgO3Cq9QjsGspmpKeuhtZQsKGcX97b4oTnnPdgkBKEhPkoSAOMMsM1LwOWfIUQFOFCrDjYD5TDqacael23UDW6ge64irW5ucDfMAfXCyd2phZuregi31ttYZ5s0KbwhJCTYE+qJERTMbHSKxh9V8ZYkQD7+/9RMWXMbRVaA4PbpiTSxz6/wARESXIi4l5vMhW5bK0++yglNgDfz3hjn4690KCal255mUUc7rikhXG1iBDXedJVtbGIoZHYqP426lz9wXf0Rb9isnLzdapDcwwzMtJk8wQ82FgdADgRx1im4qVfDtTvw8HX6ok8EYgmMMy9MqEqG1Ptyrd0uC6SCgXEWcFM1mi0jVKaDSwkWpUiB2SzfyR3iWnp4U6TH8HR8kRknjqgvybLiqvJNKWgKLan03TcXse2FVY0oH68yZ7nQYZh6i87ISErLFfg1OlumhO8mGEZOktKbctTew18ojjwhbxVJjhJywP7Cn5IjXsZ0Yt+4VySaXmScyrrGUKBULXGpFxe+hN9bWg3tzoXKqMHuv8kIRICnyqOErLjuaT8kQu0CUl29nuJSJdlJFOfNw2kEdA68Ic+3KiXt4xbPclZ+KKxtKxzS1YXm5Bl1M34cgyy05XEgJUCCSbD4DzholFNySM74l6CqKeFpxHqiwK8tXfFcxcobyjkaWnU2HmMWEq6Sh2mB7I3VuKsPFt9KuB64btVR2bemGVNBDYzWP12hh5S20O1KXQ4nM2VG6TwOhhJyXS4p6YShLBT0A2i9jcHXnFZYQ2yeyl0gKAUkzjV0nUHpCNZNysuplF5dk6c20/JGP9nc0uTpLEw3besPJdRmFxdNiLxpbCO0SRq1DYfnnEyU1cpcbS2tSdDxBAOh6uXCJPczsRF2TLSZOWHCWYH70n5IIqRlf1Kx/JJ+SGKsXUjnO6fsLn3sE9t1H4CeHdunPvYDgJDwCV/Usvpy3SfkgPF8px8Dl+r6in5IYe26ji154D96c+9gfbbRz+jQT2NOfewiI98WySuMnLfyKfkjvFkl+o5b+RR8kMTi6jp4zyR+9OfexwxbSeHhv/AGXPvYCRTtvNPlGdms043KS7S/C5bpttJSR7oOYEeNNzhlK3S1gZlZyRfryx61thxPSa5hZVJamFOqeebc9zSU+QoK4qHDujyRuWE5WKWjMUAvBItyvp8cPg08PfISqcrYNsxsB5R6zCyVeiEEXV0UnMk8Vd2sHSqKzsFs0CpQy/5wjmjkuAJJgGaw2azmGvxOsPNTzLK5hEsN4VJF7lRPxxYd5gok3YlbfaxnChSNYqdJlg3PMysrkshJX0rdsTEvgEudOYrovzyrA+OF06W8p6/Y7o0pSSbsjwen1AmRPSsneuaX+yMQm0HaBP4ZwXOvMOqcSwMzTKiSgOKISFZfPHNzW4l31E9FLqz8Jjzul4pltqUnVaXNtKlGHApDbiTdQTfoqPK9wDaEcdy8bPcTu4wwq1PTqUmfaKmy6lNrg2v6vVE24pSlFSlKUo8STrDLCtLkMO4flqTJub5xltS3nrZS4oqFyB1AWHnh4YrluSjtqcFEX5wYXuOuCcO/nB08/giIwyfgg9z6OEE8+sGKTwgJAwIgvK/wAMG8owCDDhfiI7jAXgRAArucraVbxJJ4pHEQVJy8Nb9cBmsL8Y7qgAEWy+sQYJKrWEFTr3wdJI52MAjlJKfKBEADZXXBlc4Keo6GAAYG8F5fHA34dXOAYfTWDJUeHLhCYJtA5j184AFO31QTMAdIG/E2tBFche0MRA47V+N2a196RHsfsccGymPsUUOjza2whcslRS6LhVkX9PyR4vjtVsOzJPJMXfZzWpihzlAm5aYclXktNo3rSrEZk5e3rjO9To1cRgqtKg7SaaWtv8+PF+NyEldWNK7aNjErg7ANYq6BJh+XWhH0NMlV0l1AuUHnY9ceCTjOQzGWVY3gX0k5UpsyCrp9Q970u7jfWbxjiKWqFEeSiYS8HFhASlFlJVe9z2aGK0nDzDzjzacyS2+poK36F8CNcoFze40B6POMD0DA4n0+hOGKqyneV1mbk0rLS74HTvyv8AMGtNMtNTLgQlt1LqUBspShSQoBQulIAuAlQ0HOPNcTWextg5JUAfGCPNcxc5pphuTYel85bdJtvFpzC3LKNf3XCKHipe7xfhRQNiJ5B+GPZUO5MhW7Ga49l5uGKlhhDb++Wpc4TZNgPqUeBpWNb8Y9q9l0ctYwueHTm/U1HheaJS3KMP2DwOejsjt7zENEuaXvBw5aEdQ5U5pBc4POxhsXOd7QG8584AF1PQUu6w3U5xPOE1Oc4kIdb254RHYiXeiTo57pXqhYuHuiPrjn0omwf0tXqhiFcAywqWMdlssRvEOMZijilWVi4uOdjqO6NtSrziZdCFKVcDrjFey2cEjjrZbMFl+YCJRfucu2VuG8tbRI4xrU4vZSfysrQ6/pW997EjIxd8yLLvl/Xq9MBvV/Xq9MVxOM5b31OrST/yeZPqRHKxpJp/QVZ/oabP+HCOG5ZQ84n36vTA+EOaWWr0mK0nG0if0LWB/wBFnPmoE44p44y9XH/RJ35qGK5ZBNO2+qK9MD4Q5e+dXpite3ancdzVR/0ac+ZgPb1S7joVId9InB/hQh3FdolFbxPg+ekZlvfpyFxOpBSoA2II1B7ozVsXoLWKNs+CqfMJSttbqgsOC4I3RuCDxjR05jqk+Bvk+MR7mq16TN9R/wCFGYtl+K28G7VsP1pZSEyZfeGa9iQ2VW89oyfVsz9Prqne+SW2+3H1NPBP3O/0Nv7YdiOHsK4Jq1RplMk5Z1mSmFhbLISRZpWnpt6IwoysJbTYcQI2Nts9kJI1ymzuGpSbafcm6ZNFxTTRIQdysgE301BHnEYtYUVNoIVyjwP8ExSli6uGhUhh5OLpqpmvs1K2Zt2v9Tbra22vzYk2UhxSU7wZlFKUi17qJNhbs5wAeHvRcdukIMzJl0ru2hZUMpK73A7LEWvBNNCCbcdTrH1A5rDSpuE4jw4OXhDtv5Fce77DZHwWkommWg3vluqWpItnO8ULnrjwKoKtiLDg/wDUvc/+CqND7I6tNMYSlG26FUJlKc4DzLkqEq6atRmeB9IEWIz8Z8M9VCydY7MbnWIPx9PJ4Yaqh/fpP8IjjXp4f+XKof32T+fiZjE6IMFEaxAe2Cf/AN2qp/LSf4RA+Pqhx9rdUH79J/PwATsDeILx/P6D2t1T+Wk/n4MK9Pnhhuped6T+fgAnEqNiB1WjMG3STEvtom3k3CnaOyoi+n1Q69+kaETXJ/lhyo/y8p8/Gett009ObUnHH5N6QUKUykNvLbUojeK1uhShbz3gO3C/ERF4BcU/K1VN8uVy47ejBp9xRsF6WuND2xFYZmnJGVmS2lawt0hWUG3AHWHs29vpVK8pT01DXzaRS75jd4G+8ynrh0rKmXQSiylapUSbq69OGXt6xz1tHFXS0hUzTimggrWUjgkqJAiZEX3mYad0ViguZsZYjFrWVy+1TE+leloq9CXlxtiPW91f3UxJcgXQTqsyCEJ4i/DTo6ee8RyVe6K74cpmm2JyWlg0V5lozrtcEG2kMUqKXCCecRGMsUK/G7U+vwdf3MTezGUbqE1QkPNh0JYQ4AoXGYN6HzRA4mX+N+qaX+hnPuTFp2MzrMnUqM6+2+62JJICZeWcfX9TFuihJPntFnBTUftf2NQU6aeMqhKlq4dcON85fy1emK+3iuSSkDwOsf0PN/Nwr7apTiJOr/0TM/NwzB1JWcmXG2MwmHGTvG050Nlw6uJFsoB0N7E+9BJ0teDqec16SvTEG9iiXebyoYrjBzJVnbpD97BQJT0myLKAKTzsTYg2MG9tEsdfAKx/RT/3sAiY3jl/LV6Yp22aW8O2Z1/MSrdyq3BrqCBcEdt4mPbOxyp9X/ox75Ir20TELUxgHELXi6qpzyLqQpyQcSgXSdSSLAQLcnG91YzJihRbFCTyE02PQItCtXFfbH1xUcXOm1GI/VaB8Bi2uK90X1EmB7G7HcO24W1pUOIMNJepTD00+07lDYJyW4kW5w+p2XxjLAhKk5uCgCPRBXGy8p59xKQ6ghKcqAkEc+AiosKts5SmYkGG1J6C5hCCL2vcgRrDCKBI0diVaTumUCyUp0A1vGTdljoS3IrUhSwmdaORIuVdIaAcz2Rq6SrjbTKQmlVYacpI/LFnzGdir2VifK1X8pV++O3ihfpq9MRBxEnLfxXVif2kflgvtiT+tdWHfJK+WAz9SXKlG/SPpgd4uwGY+mIf2xJ/WurW/aavlgDiJI/2XVj/AAM/LCES6lKNukdOEF3iutURAxEk8abVb/tQ/LHHEA/Wuq2/ah+WGO5RPZFsqGA0zjaiiYYmmsjgOozKCT8BjxdycclapRnEHp74Em3MDqj2XblVhPbN5xnwCoMfREud5MSxQgWdTzvHjrbKZqqUZtZsFTCU6dotCZpYZvIyYZUnedFASR77vhRK7J7OuG8uoOBJTYC/XroLwdK+HVEDvFVK0gUqGW3OESvlwgQoQARlYxQ7T6g60madTkCbISoi3RB64inNoVRb0bfcPeoxDYuVlxJNi/1v3AiIDnC8d1Odl2r9iUpq1kiczb6XeQdQpawe65iOwfgOi4IwDUJmZn0u16ZnG25VhoApSwnMVuKPveKAAes9UHbmglDgGnuivujFZ2gTjvtcmN1e90JJT1FQBjPIvyW7DjbjtecmEnPLiSWgFOozFxs+oH0RYeBB5mKzs3ptQpmHG1T7DjAmEFTClgjOgKAuOvW480WjL1a9kVyepZHYFJSbEoB69YDu01gvYdI4GIDFEnr1PXBrm1r2hMQeAYOvPhA6QHC3VHQwDpIgdNPhgo7rwIgANAcYC4BtA34jibwAGB48oUTa2vLthPX/AOYHN6YAFE3Kraa9cE+AwOuaAuNIBndfXA+qC+qO7IABKrcoFJum/OA5mAJJgAUv2wmo9cdmNjrpCaldKARX8cKBoM0L36J4Re9nNAm8RTFEk5JkvvbppQbSoJzAJB0J0B05xQMcKtQ5m3HKfVHs3saceSmz3GWH6nUGd9KeCJbWOaehoRfn8sZvqlWtRwNWph170nbS/wCbLV23stXsVVLpOxN49wnUZGiz0xM01cuwyLl6wslVwLad8efJlak1MAMTAU6XFjeNL/PDfNxA16MaQ26bYKbizANapklh6Vp7sypLpfadBXotJuQEi50+GM6qrU04pTz0m+8polaV5lAICs1grono2WbcOEYH8P4zHYujUeNirqVk0mk1Za2lqh05Zr3dyPqb06hSWJwNhaSRo2hKk2JSU3SNBdJ04R5/jNW7xNhZd/0Yn1xfapNOT26dcZKC0jdKUAbE5iRfqNiB5oYUPZnO7V9ouHKLITsrIPpWqaL06opaCW0lRuQDbQGPaUd0V19IM0F7LtJNTwwbfns0PgbjwzxfNp4y7gF+qPePZmN+Lp3Big43ONzUzMoS9KqK20Et5rKVawNkHSPApwjw6Zv+mqI9JhyepThewU8BmidJdw/uTCTiHGV5HEqQq17KBBtFw2b4Wkq7MPTc4tDqJVQ+hRxJtopX2PrtFSnvq1gkJHSFhpbpqitTvLKduVpXEiod8FKsuphP1wBVEyIOeCqXBTpzgilDURIQKl9EQyq6r0uauL+5q9UOVKtDKrH6VzX7Gr1QxEzshXlx5srI/Uyh/wC2MbGKieJjFuzGadl8XbLnWJVyccQxow0pCVLvLkEArUlPXxI4RrX2wVH/AHUq4Nv06S/CImjGxfevsT4J64G8QKcRT444VrPmdkvwiDe2Kdtf2r1m320p+EQzgJ3MY7MesxBe2aaza4YrSf5sfU/A+2WZ/wB2q1b7WXP+NCuBOJWu5uonqgcyusxAe2Z7nhyuD95Z+dgPbU5fXDtcH8GbPqchgWJ5ajKPC58hXPsMYjpqr42oYVYjfrvmFwbpI9RjXU5ipaZKYPtfrh9zVr4InqP2cZBkW1LxdSCi+8BdUkJ43CCrh5ooq2jFuWxp4Ldnq1fzyspMTCN2XHGXbuBpIWeidCbXMeaNr9xHC2kX6bcmplp5t6SeZbVKTC+mm1srajf0j4Y86bV0Bz0jhwtSnVi3Taa+hsztfQkpLLNPNtEqTmOUcLX6+MEU5nSlSDYWv2w2amC0oKRpYjiAeH/yYHeBCRa4HACO4rGc84HMSYZ/bD1hz+oqjTexlQVg2Rtxsv7tUZhnnCcR4ZTayvCHrH95VGiNkM3WUYSlBL0uReYGfI47UVtqUM6tSkMqt6TFsTPxnw/yeqc46Ibw2v3t4npv9Kr/AAeB8MxB+s9N/pVf4PEzFJi0G88Qnhtf4eKKb/Srn4PBxPV/9aaYP+qufg0AtSZ+CBvEMJzEH600v+lXPwaB8LxB+tVLH/VXPwaAZMjjxjN23pX/ANUnCDp4qY/tFx7wJzEGn0ppX9Ku/g0Z520Pzrm06Y8OZl5d0UxgBuWfU8nLnWb5ihHby88I7cL8REFgB7fS9USpZAS50cp56wedcUspzEq1Ubm/ZEbhoPMy8wuXaU77t08oJ4pB1/1zh/MuLMo2pxstrLivK42sIq5N7gbE5VcdId6eL8xRa5GVWQWI5nNfU/Y20hgpV9ecDpbthkRw2rQdcVeiK/HtiMA3908/kpiyNqAVoeqKnQ1lONcSjmFce3KmJLkTLmJ6YUUhLlgkC4vqeiCLfDDNKukdIdub1qYl22mVKauhSlJST1Xue6GCVneHW4+CEiQ1xIr8btT/AGs59wYt2wVZ8dUW/KRt/UEUzEyh7Xanfh4M59yYs+xWack6pRFok5ieX4GBuZbd5tWxr01JTbzxPgoq9jNUpVoIMCeUQTdenMo/GzV/5ST/AAiDivzx/wDLFW/lZP8ACIkYFiTnlHwcWD5O8b/IxAX9UT1+9+u+xzWhdSuMQT1XnphstnDNZAzJV7nNSrauioKGqZgG1xqOBFwdDB/Hs/8A7s1QHtfk/n4YExziu7Sj/wDTvEg1/K977kw7Nan7AjDdRJ6t/Ken6tFe2hVefcwHiBJw/OspMg8C45MSxCBkNyQl0n0C8PknG90ZZxgohNI1sPC0A/xTFtze7LFrDMYpeNFHc0nlacRx7jFtUo+ELF9AoxCWyN+KHG8s4lQNiDEfKzT7lScS47dvNdKeoRKU1wJqkoVEJSHU3Uo2A14wVx0vrececU+6D7mVqJNr68fNECwq+ylWVUhroJ9r7sRseTc+h09UYx2YvKbEspKC4UTzZSgEAkhY0uY1nJ1ap7lJFAfItym2PvonyZmJ4LBmMBvM0Q/jep/7vvg/ttj76A8bVP8AWB7+eM/fQHATfKC5oiPGtU0tQHj/AAxn76Cmr1P/AHfdH8MZ+WAiS56xAZoh/G1V50Fz+eM/LAGq1WwtQVn+GNQAVjbxpsvqX7Kx/bIjP09MLl56irbUUKTMpsUns+WPb9tk5UZjZxUkvUlUqjOzd0zLawkb1HIa8Y8VS22/UqGhxOYLmmxYwM1ML2Mmm3ilKiEpAy3untgcwywgysLVYEjj0LcrGFE9UVHeHzHTsg+bnxhC8DmITEgKDjJz8ck3ryR9wIhlOFJiTxkr8c03+4+4TEMo87x0x2K2BOTipdmYcAvYrULDjqTFT2b16crTMyucPhQSQopcGZOvLui1TDL0nNPys4w5LzDTikOS76ChaTfUFJFxDOXdo+BcLzDTDawFvB111dioAXCW09l1eqOQuej1PRKfi6bxLU1szatJWSbZYaQLNstJVYISO8k95MSQVl0EVDATzNQcfqDR6LrITr33i3acIqktSSd0cR26wCtOVoNf0QXLaIkgRpw4wdPLq9EACdCeqB4WgAGBHrEB1QPVeAYYKjrwHwGB88AweqA59kBAjjDEGHpgbjvgBa3bHE9sIYObWOBOt4C8d/q8Ag3HXjAefSAVzgb2VxtDANqbAm0dcdffAXgMw88AHG1oIrt80CeEFVzgArmOSPa/NX5oNvRFkoj6JWRpDi3ENZRLjOsgAXKYreOvyhmSDY5D6on6WA5Q6cFAG8s3cEfYiB6qxDk9LxlR8QyOH3XZ/clhDgCnGXUXKSbAGyjfUj0RVZuqMFxavCC/vG05kpzWvvUqtrw0BJFyL8IrqZFhleZDDaV/XJSAYONOesUxppEkyfq1cS5Iolm3vC1nOl19WcXBUFCwNr6WGo0y6cjDrZvLVKaxtTFU2sIovg+8mH3nVrS2WUNqLgOQE6puBoeMVjN0YvGxtrwjGxbte9OnL9X1BQ+OLYxy7HPiJfy5MkNuz9R8Q4fmZmvS1fpzlUyNuyTjityoNKJCszadDdGovyjz5uYamGwHs90gBLqACbfWkEi46tdOHd6V7JimqomzzBbRVcO1xalEG1xuB8kedlTM85NtMN7x9JUG8jKGzo4nRIT5WgVrxsYlLQ5cCv5YvSakKJPNzsnNzDT6NPqCSFA8UkZ9QYaTcwiYcBRmsBqVpCSSSSdLnr64fOSiPB3wlkDdpOdZRmSFBtOhWDdBCr2FukTaGlSl5ZlRMstaxv3EnOgJsBawHSN+cRTV7mlrYaZrE9UFUq0BfnBFKiwgCq9+N4IVdcCpXbCZgEdmv2Q0q35VzX7Go/BDq8MqxfxVMjhdtWvmiYiV2SH8eWytR/Sbf+3VGyvPGKtl70w3irZgqUl235gNHIy86Wkk7hVwVBKraX5GNcpqGI8ovQqffsqyvmIkY+M70TsHTpECmoYi50CSP2tWv62RCgqFf/3flj3VQfNw7mfZk33wGkQvjWu88Ot+apo+8gPGtd/3bSr7WpN/GmACbtA5YhE1etj/AMtL/pBmO8dVpP8A5Xf/AHM/Ln+9DsBNzNkyT5P6Wr1GMx+x2l2Z32QOEGpjRIfcUnvtyj3+erdaTT5k+1eYPuav0dL9R+zjJuCsRzOGNo1DqEohwzjZmAyls9PebslNrcTcRjesUp18BWowV3KMkl5ujUwOkm39D6MeyVocjLYDrD6SUOeLZvo5zYndG2nPS/oj5vJV0Aoc40PtF2313G0zP05yRnmqSmnTjTj0yskLUWV2UBbza9ZjOaVDcJ56R4r+EfT62Eq4vETw6oQqyi40017Uk09tE3u0vJuVJ5ra3H8hKqnFOFLbi0oHBtNyVEGw+AnuBhulelj5oQStOa99Rwg4cASARcW9HbH0dFDG04oqxLhk8Poh89n1Exp3Yub4LkD+yfdqjLk0o+2bDJt+fv8A9iY0bsiRW/ajJ+DTNNbYuvIl+XdUu2dXEhwD4ItjqZ2M+H+T1bzx14hN1iI/o2j/AMze+dgwbxFznKOP4G989EzEJmBTENucRfq2j/zJ756DbnENvybSP5i98/ABM3gc0QoZxF+r6QP4A98/HbjEPOfpP9HvfPwhkyIzXt1UBtWfvzpcvf8Ajrj3pLOIr/ljSB/0578IjO22wTjW1CYTPPy8w74ul7KlmFNItnctopajfjreA7ML8VEDs/cSZWq7y591OXsNhB5pSuiVG46XHvhhhlmackZgySUqyu2VdQHFKTzPfDuY3zcmhMxlDpdX0QoKNrJ10ink3+BML5W1hwFNJkFBK0FzOhSuiQu/S0B6hp5z3RHqcJUD1QOY5cwBy9fKGIcNOHMO+KtQXPx74kPPP8SYsSV9Id8VeiOFWOMSn7LW32qYmuReC5tvuKUkBSglNteN+gNPTf0w3aIzHXnCkwqd8OlEy4T4GndqV0wNdCb6690Nm1dNVu+IIkNsSXOHaoOfgrv3Bi0bB12rVB7ZW3/b/wAoqmJFfjeqdzYeDO3/AIpid2JPTTVTw/4JLtTL3g9g28+Wk23R1zBCvVFi2KKvYzWaPJSYOnsiCbnMRZU/Selj/qzn4NCnheI+VHpVu2rOfg0SMDUk5xlT8uUpaL53jasiXS0dFpN8w6rXtztbnCvPtiEmFVyaZLcxRKM63mSrI5VHFJulQUk6y3JQBHaBBzM4i50qkg/80e/BoA1JW9ogNol1bP8AEotf6WzH9mqFVTOItR4tpA/6k9+DxB44exC5gfECVyFJS2ZCYzqRPuqUE7tVyAWACbdohrckkZQxsrLL0tV/0Y39yYt6ui85y6Ril42V9BUwk2+i2/uTFxcV7q4bczEZbHoEKJzKUlKQVLUQAEi5JiPZlpyVrSi+l1tDmqUOJKfXEnS5hEvUpR52+7bdSpWmpAOukFZWhKnwVJWpZGX06xWSKpsxcybrl9HNn+vGzaefocRivZ0pSAbWK0zqbBRsLhZsL9V411T3q/4Om0tSbftp75qLOTLxXBYo6IXwjEI/QtI/nT3zUDv8QcBL0j+cPfNwzgJrS0FiI32INfoekfzh4/4cF32IP0ik/wAs995ABM8r8IJziIU5iDSzVI/lHvvYDeYg/S6SD9u6figAru3X/wC1dZ15sf2yIzlU3CmYovZNo9Ue87ajWl7M6yJnxaGAGivcb3Pbeo4X0jw5stmoUIuFIT4W15egiLNTC9jJZtxeUqBGWwHnhTNdIvCDCsygSkga2twGh1g6VadUQO8UDkGVraxBGnD1QjeDA9UAFAxoq2Jpvqsj7hMQhVmHGJfG35pZn7Vvh9omIO/COmOyKXuTc1i12oybcnXwqqS0uN3Lz4AE1LAcEhR8pP2KrjqtFPx5h+YqVF3UkoTaXFJU243wWAddORHV2Q/nXCyxNFCd4sZikdZ1iIwzWZxykqnkyrngWdLb6bHJmIJFjyNgfRGKs+H1veP+h76pLC+tpxmlCv5Wil9/r/8AfQ9EwlgDEWH6KxLUcKqU2mVEzOMsJSvcFSjlbN/fWANu2JTC6qq7SnlVlG6n0TK2iyUhKkJASQFAc9YS2f1R1mRnX5WaeZQ4tPSacKSbA3BsYc4bmTNSdSUpSirxk+VKUb5ictzeOrNm1R5KpRlRm6c1ZokwnrEBbn8MPpOQcmldBBVc2vy9MdUJFUmoheQa6hKwq3oMIrsMkqjoA6W+WAzQxB4EQEDz0gGDfjHXvAQZJtyvCGcnlpHapPG8AO6O1BtAAY847z3gI7kYADBXA9UdBU8oG+sAAx14A+iOCtIADJvm4XjlWvBb9RgYYAEwyqiXlyLwl1FD5Sciki+vLSHhtEZiJ0tUOdcTxS0og+aADziu0jbAqRmHZyizJpCUqWp5yQbSjd66lQGgIiYpu2nD8tLydPeTOiaabQytKWQRmAAIvmiz4iqkxN0hpxb63A40lSgpZI1Ah8qn4cdoZLmFaL4QiXU4meDCg8lQSTmuFWJv1iLMya1RXlfDH2YLSFC4BF7GCdkc2oOS7bgN86QrXjrAqSeNtIgMC9jEjQMVVjBVVRWKG9TkTzLa07uqS63mHEqTlUkpSQb2OmtojVDKbnSG8woqbIGsMjKKkrMPjzbZjXbJ4rkcUy1BlZOmvGYaFJlVsqUrLlsQVEWt6oQkz2WB5RDeDqTMKVbjEzK3A10ht3I04Rpq0R5cWAtpHe+vAJNoBUIsYZRhNSrd8ApRguaJETlcOMAqOuYKrqgEdbkOPKKZVtpOH1S83KmacRMAKaKFML0Vwte0XHUG44iIurU3CjmFjMe1KlrqD0ol9yeUp0rLikZlKtmAGpiStyKxMbHVBzGOyrKbjdk8P+AuNpJ5RiPZL4WrEWy8SRYTM7uyFTAUW9GVjW1jw7Y2BlxPlBDlEOn1j/30TMfGd6+xPXgYgc2JxyoivO+PiMFLmKRwboZ/fHx/dhmeWEdusCIgUvYm/U9EP8If+bgyXsUc5Shkdfhb4/wjAInfXHRBb7FBJ+gqHp1zj/zMCiYxPwMhQ/5+/wDMQ7jsTM4fpfMdjaj8BjEFFt7eqIpWoD6z3cAfgMbCqD2J/F00PF9DILS/9ovj3p/9PGRMI0SexJtBo9PprJenZhb4abuBdWQlIueRVlHnjkxNSFKlKpUdopNtvhGrgU7v8HqWLPBk0V5TSrjcKzBRHG2vmjyNKuii2oyx7biDZHjjCqJ6YrUkpmnop80tSraAhpVtb+fhyjw1KsqQOdoyPS/UMLj4Slhaimouzs9n4fg2al9Lqw+p7YdcUChTmqUg5CsAk87EWHbCKeHUO3jDfeZV3B4ixg+8VprG2UjeYUFYow0L/nz/APZGNQ7FlXwTTr6khd/46oyzMH8deGQP06YP/ZMaT2P0+ovYOkVMVpcs0c+VpMo0vKM6tLqFzFkTPxnw/wAnq6u+OEQqqTVuPtie/mTH3scmk1b/AHie/mTH3sWGITojohPFNW0HtjmP5lL/AHkD4pqv+8Ux/M5f7yACa5wa45xBmk1T/eKa/mkv83Aik1K2uI5wnslJb5uEBNp4iMy7fj/9VpjX/Zkt925GgU0ipHX2xz381lfmozltwlX5PahMpmJ16fWqnyyt48hCSOk5YWQkDr5c4GduE+KVzZ/MCXp9SDhsXHCEqJ7INNjKy1dRULqGYnuiNw7TX6pTZgSz6G1Nv65idLpF+AMP3m1ylLYZddQ4+XnFnJwtZIHqMUu2Y3/lG2fshdTyVSjaCtJUkAAJzBXEk3vpz5dnbDPPoTApQrdhwpUGybBVtIkIXbV0hrcXis0RWXG+Jb28r+6mLG2rpDvir0VX49sTclZrDXrSmGuRFu3Tq3G1dMapy2vZXRtb4YTb8o9sHnJJ6Yq8jMNTCEyzJZUptRIsQEk6Qln48gYiSG+JFZsP1Lr8Gd8/QMWXYD+XeHjcfkb/AAzFVxAv8b9THPwV3X9wYn9hqZpyqYbEk8wy8WR0plpTiPqKriyVJPwxNbFFXsZrlKeiLCBzXIF4hxLYlyj6ZUYf9Ne/CITEviRJN6lRx/0x78JiZ58lKoptMg4XvBQ0FIv4bbdeWm17872t22hw4q/dEDM+PZaXW7MVmiMsJF1rcpboSO8mZhUyWI/12pP9Eu/hMAyTVENjQfjKr+mni+Y/slQcyOIyfy4pX9EufhMReKqbiBzCdbS5WKapCpF8KSilrSSN2q4BMwbegwDW5j7HCvoGlg9H6Kav/EMW9X1ZwXzanXzxScbKtTaWSdRMs8v+GYualdNYBvZR164hLZHoIizbannW20DMpSglKe08oZy9KmJKprccHlG5s4lYTbTkTbjD+mTTctUpN91JU00+2taU8SkKBIHba8HbqEpmnEtpN3bAZjcjpA/FFdywpWz1Zbcc52nkj/uGNo09V5dPVGJ8BKKnpzUA+HcSLgHOY2DTpOuhgDxxIkD/APGK+ei7ky8VwWHjAREeBVz9eZMf9MPz0d4DWzf6cynYRTv/AOsBwEwDBhpEKmRrfOsyx/6d/wD0g3gNat+XTH9Hj5yGBLk9Ygo5RFeL6x+vTNuynpH9+A8X1jga233+AJ++gAgNtlvxLa9y9zb1/fURmeoILyaUEglXhLfAX5RofbDIVNOzWurdrAdaQyCWxJoTmGdPO9xHgsm8yxP0ByYUEM+HMFSjwtzhM08L2skEKOVRJPk8IWSqCy/uYWp1AICHLuZuF0KHxiASdPNFR3ioVA5uHCEsw16oHU2IhgWORwDTq5Jtz8xKpdedFys87aD1QZWyujXv4An0RdsAvIew5KMgBTiM1xz1UT8cWMyp/SSPNFTlJMtUUzEMwoJz6++OvniCxRip+l0NDEuhtLCHcyWkICUlZ98bcTYRMVF2nsXzVunrBJ6Tbij/AHYqlemqLPSqmHKildlA+4oJ1B7bRPL5JueXWL1PU9ls14Vhlx8gILqwcpPO2totGF5F+Uam2ptpxneTrjrWZAAWhWWyh1jQx5LSq/KYil5Sn0qRXLIkZcBw3vvVZjdff0uHZHrmFG3ZWkyRczZ9SArW1jb4opyqOiJ1K0q0nObu2L7c8dGWo9KpVPXuWpdNiEWF1HiT16Wjx/DdcmnK0guzC1ZjbLm0MONp02pyoJbcN1oKhx/12xWcOzIXU0cld3GJxtY529T3tZek5QPONF1GTOSy4hZAtfgFRUZbaxhuam25dM66lx1YQkLl1pufOI8n2kyDFFflFSpcT4SlSnEZuiCLcB54r2H5xRrVPQBmCnkg6criJKKYOWtjVjbgVY8YOL21hrKZQtIHkj0Q5PE5eMVlgZPpELMIQ46kOOhls8XCkqA7bDWEE8r+mDA6QgDczrcdcdAX0gLwDDXjrwX5IG8AA9UcSOFoCBuNLwAD1x0FuIHgeMAHeTfrMDm4X0MATwtBVK4i0AAqIuIiMUKV7Xp/InOvcqsnXqiU52hlVGW5mnzDTqsqFNqub2PDrgArdcmRK4fYaWsNzDbCUqauMyVBIuCOItEoJhKsKtLcc3SFSgzOHkCnUx5jNSMy/MTnRUsJfcbzqUCpVlEXPbElL4on52XZp5cAly0GC2EJJIy24nnE7Fdz1mWKfBGMpBRkFrcxaLphWjysthyp4mnvB5pmQUlCafMJUQ+VacUkWtxijybS5emSjTnloaSlQGtiAAdYf16sGRwK+wF6FDi7ciqxAMIZBJxhIVSeUzKShl0e96RV8JJMPHG12vlNjzANo8qoM8pucatayT1axGY3x9X6PiablqfWp+TlU5CGWZhaUXKEkkJBsNTE1G+iIZrK7PYktJUQOcPXJFUvnstDgQSFFtQIBBAI77kR4hs7xNUK1i6XTNz82+tYWte8fUQohJNyDxMe6vVgzmcTBW4lSlKPTsQFFJsNOtI9MRknF2HFp6hXJN9ttC1N2StJKVAg8Bc/AYb5uj2Q6NWzKcG7u0ppTaUFfDokJVfrF/Pr1xHqV0QBEVckGJB1gNOMBm5QFxfjEiIYmCk9kd1wVR58IYApVZWsV/NnwXLHyr05Jv8AvYibve4vqRHm7mKJpMq7J5G2GW0KlxKpQMrYAy5Qedrcb6xJaiZ6ZsZQ8rEmy11DDrjDY90eQklLd2XAnMeQPAdsbXCszaTyjBGFZhaafgamtFaJqoMsoYdT+dkJzZjryAuO6NpyNPxC5JtkYjlldEamki/9rE0Y+MXuTLJ2QAiC8W4iH/mGTPfSP/7QPi7EnLEEh56Qfn4kZpPpg9zziATIYk/X6nf0Or8IgfF+Jv1/pnnoyz/+zCAnkq1MdziBNOxNofH9LB/5KvX/ANzHJp+Jgda7ST/0Vwf/ALUAyaqTgapM2VGw3Sx6UmMx+xvmmqf7IbCCnk5Qp5xBHUo29Vo9K22UTEkxgWYcdqknPMS6g+uWlZJUspxKQb3Up5YNr3ykC5HHQRnfDk24xjyiOMOFlxQfQlQsLEsqA+Ej0RkerUZ4nBVaNPeUWl92jXwKUbyufSH2T9ekXMBVthFnF+K5yyhfRW6Nj6CR54+aWcK6ViEngkm59Mes4zxNi2sVacnqnOy/iw0+YYVLtEWOZpQ053JI9EeRNqsykR5X+GfTcbhKmJxvqDj1K7jJqC0Vk0l9Xa13yzYqSzWSWiHlPCFKcCwM2dGXME5cnSzE5uQsnhrrxEIJUcvbaEQq6tSD3Qpm7eMe7KBs9rirDWl/dZj+xMae2HVKXmcIy0s2+hyYl82+bSq6kZlKIv5oy68r8dmGRe1nZj+yMey7BKAuZmJyfmJ2ald9mabTJubs5UrIOY2NySB3dt4tjwcOLSdN3ZolUBEL7Wz+vNY/nn//ADAe1vrrFYP8MPyRYYROCBvEEnDY/XasDuniPigU4YTfWrVn+fq+SEInSYLrEMcMN31qtYP/AFBcAnC7aeNVrCu+ouQhk6lREZm2+NuK2nzE0N0uWMhLshaXkFWdKllSSgHMNCNSLRoD2ssrBHjKsW/5i78sZd2mSxo+1CtUsKdeaDbc0l59wrWSs6gk6nUE3MI78Jbqakfs9d8HlJ1R13jpSnza/HB6iytllpZB3ZUtIVe9yCL+sR2FJJuapLhbcWyW3M6jluDdIBtrw0jqk79By7G83uRa15rW420+CKfmPQJe0je7nDpyYQ4wgaBSUhNgkDUc78+WkMc3EAQsltW5Lt0lAsD0hcE35X7DEysVbVw15xWKGoDHOJTyCv7o+SLG2rh3xWaCoqxtidJN7kW0+xAhrkRczKOIcYDgybwtqbGYXUVIAA89xDXMUtgEQ5nphqZqUhMJXuzLsy6Ciw6RQhNz5yDDU2UknlxitE2kNa4b0KpafoV37gxP7DajL0uqYZmpt5DEshlIW64bAAtEAnzkRX6x+UdSA5yro/qGEcEy71SpVCkWEpLkwhDeZV7DoXJP8WLVsUTs00zc6rFII1hJXG/KK3Q6DVZahyLBxJOthplDYT4LLaAAAalsk8OcOjQ6mpOuKKh+5lZT5qJnn2SU874PIzDoeVLlCCrepaLpTbnkGqu4Q8PlHvivTFJqErLOvqxNVlIZbUspZk5VayAL2SkMEqOmgAJMLeIalf8ANTVP5vJ/MQxEwYisVPNS+F6uX3ENoVKOou4oJFyggC57TBDQZ/8A3oqvmZk/weKvtIwLUq7hGbbZr9QnHmRv0y8w3LhteW5sd20lXwwEo2ursyJjglNLphOi/Cmrp426CtIuKvqiu/SKLi6aM3h+lTJGQuTLLmW97XQo2v54u+Y5jfrvFctj0KHMrLuTk4xLMi7zziWkAmwzKIA15amCroUzITLjiy2sIX08iibagdUDIzXgU9KzQF1MOodCftVA/FDh7ESJ5Uy2G8q3lC4v9kDpFepYULArgbdqCibJRO3PcFHWNo4dqEtVqY1Mycw3MsL8lxs3HaO+MUYLVdVWSBf6MIH8ZUac2T4Wep9AXasTsm686XVNym63Y0AHltqN7AX4RbyZuJScU2z05N46Il6hzSlqPtgqovr+h/mYJ4jmrfl/VT1/kf5mGZpNXjohvEUxb8vqt/HZ+ajvETx41yrH98aH+HAImYC+sQ3iJ3NrXKsf35v5uC+19Z/21V+7whH3kSAidsWZ3ZriBhsZ3XJbKhvMElRzDS5NozNMSr8waOw0hTj5nGUhtOpJsdI9y20URVLwVOVIz9QnRKlLpZffCkkA2OmUdcePUWrM0mr4dqrwUphuel31JQMyspGa3VflEJGnhbZWL29xWklWYoOnmvf0QoOUJZktsqUVgjKb6a8INmN7Wis0A2vcIUv0YSBgb9sMZecJNvIkd83OJYVqAi+sLorlSaqymZmeUWUJze53F+qKhRm2pyqbgOqaeSgLUoE2tbTS8WSamJFpYlN8XH1gFR4HSK3Xqxf8xXgv3Ru0qWFxVKNKn7av+TMxVLZW6lL6N3JypWDu1E3y8bcoQo2zpim0txM5UGHJ9TibKQ2SkIsb6m2t7QhNViZcWpJfcIuRxgjkjOpYQ/MOuSzJVcqKLqKey+gv1xFyktzwVOPqtR29p7DsXmJHAvjWcal0T8zMJSzvNAEouSRYhQ1NvREo9iY1x6Ym0sNyyGXFtIbbtewUdTawJ7bRT9n8/IzdHmkSUu4wltxKVqcczqcNjqerzdcTdBl0qpc2lBvd509L7YxG99WegoxqQgo1neXNjyTHMwZuqLczXCieHKI3DrKTPhVxfiBDvFDZZnnUr0OYw2obakzrdwel5J6+2LVsPkT2tqT9LdLHdq19EQWAaoxJVaWS8wh0rWEpKk3IN9I9KrOFUVyalH1u5SykpKFIzJVe3H0Q6p2DZVl5t1IaCkqB0bAOkSUklYLXZ6NSW0PJSpa8qBYGwhypORZAVmTxCrW0iPp7paTlIzI6jD9Tpd10HYIpLgL8jw6oHNbhBCdTaOHRgAUzGBz9G5Bgl/NBc2ZJgAVuIAHqhPMeu8cpY88ACgUbwYq4wjfNzgyVDvgAPm7PPBr3tYwleAzgHjAAsVcdbQHD44SzcNb9cClXG5gAHN1coZVJ0pkZiwvdBBSeYh2o5hxtDSdKfB1leqbajrhgK4rx43h/DbjNPo8qxMKSUmYWSuxPFVreVx5wzkdneFabg2XrTuIEodTLCZU1mbKirjlCb5j1RXdpdk097KrmdL8oRrSs2z5oj9RoI9AiS2K3uXNLqnUhV+29+2InG9Q+kiWLnMUKEP2nMyEm1oqONpomYS372xEAPYq9OIbmAqx4+iKtj9SV4qcUvgoIv/ETFnlr75HfEZWpFuZxBNGapk1MNlDZQ80ypafIFxcRbF6lQps/blZfF0mtg9IIc5/YGNBN1K1Qknw6hFnjm3a0qyounS4tZPUkjTzx4ZhCmSrNcZUzT5pldlWedZWlCdCLEq0j1uTpuUv3czBtZSgJsC4MpVfXhoB/Gimq02WQvYlWJjeyai660UFLinsxTvFOe9OvSOuXhw6V+cFrlQbnZg5EqUUOOe6LUCSCdALAWSLaceMJTFPbl5ZTl3DfUJ3iBk6KVa/XeV72Ep6VRLttqbWpYUopClAZV2tqkgn0HUaeapWuWajfPrrBtPjhLSOzC2ukWkRQqzcIJ8MBnAvpBc3HWAiHR5Q0tDKi7PcLLw+is1WvKCphC5xUtLBKnAhRKkpsQTe1vTDlR6KteUQMir8ZckOP0vSP6kTTZFkrsxlzVcU7LGQbJUnS44AMr+SNuyLBlmUoJ4CMRbGZdc/irZgymaek1qbcKX5fJnRZhw6ZkqTr2g8Y2UnDk/ofbXWyLfWSX4PFiMfGdyJuDRA+12fvcYrrYH2kl+DQY4enxp7bK337uS/BoDPJ5MGEV9OHaj/vbW7fsUj+DQb2t1C2mLa1/JSP4NDET/VA2iB9r9R1/HbWv5GR/Bo72u1Hj7bq1/IyNv8A/NDEOsXU8VTC9Sl1G2aXc1/cmMSUtwM48oCr6JW6ddOCI2ZU8PVBVJnfx2VgWYc03EjbyTx+hoxJNke2mlnPlSfCLk6EXQR8cVzV1Y1cDvL8Hr2KquxUqPMIaCA4mXVfIeICdSRHlgWd2L8QIkpSXl20qmjN5i1LuIsDcFSklIHDtiHQopQAdTwiinDLobEpZtR5JTa5VwrStTakDMAlRF1DyeHUdfN2wmlVrC2luMNT54VvwN4tICLiirF2GdLe6zH9iTGnNh1JAwnJzAuVuFwnT/iKjMKz+OzDFz+eTH9iY0tsawzS57B8m89LuLdWXCpQmXkgnOrkFgDzCLImdjPh/k9cSlVuB9Edu1fWn0RB+0+jW/Ibn86e+/gPabRlfoNf85e+/iZhk8G1W0Sr0R27X9ar0RBKwZRbfkI/zh37+C+0uip1Ej/3nfvoQywZFdR9EDu1fWq9EV9ODaIoD6Xptx+quH+9HKwbQxxpyLfsi/voBlhShX1qj5oyzt4l/B9sVQWBYuU2VJHbmWPijQ7WDaJ+trZH26/vozrttpcpSdqE2zJsJl2jISysqSbXzL6z/q0KWx24T4qK1hOeTI0d8uLQEuqLeh14c+20JzTiHGW3GlZkXUg68wb/ABxAUqoseA7h0G651bYIVbXKges2iSSG5dIl2ypVhvCpXaSLf1Yptrc9BfSwHPsgfCCpCUgWF7n/AF/rjCazwMFSq5hkR02vUd/GK5QfzcYmHGyr/wBQRYG1dIRX6Dc43xOSQQFDzdCJLkC1PS7cu+y08+yl11LS0JuSemgEcvso4JsLcTDZ4tzU83MuFWdkNeRp5KRYfBCqXt82F2tm1t3xAbEK1l8RVL67wZzl9gYnfY6pS9izBYWARYmxFxfwdyICrdGjz4V+p3PuTEr7HuX8Y4nwVLF55gOZwXJdwtrFpd06KGo4RYtiip2v7GznR09Bp1QTzRDuYUZzH6aVs6/rm98sE9qcvfWo1o/9Wf8Avot0POklPBRp82E78KLK7eDW3vknyL6Zuq+l7Q4TdQBsRfWx4+eIN3Css224tM3XHVJSSG01iYzKIHAXcAue0ga8YBvCsotKVKmq0gqAJQqszN09hs5b0QrgT9uyDNN7xRQRcKFor6sJyR08LrH9MzfzkKy+D5BTiQZmsan9epz52GMwljIbrDdKTYgJfYTbqsgxdVKGZVuF4p20BlMnRpZhOganG27KJJ0ChxOvKLco5l69d4qlsejiKttmYebaBsXFhAJ4am0c5SUSc85kdDqkOWUUpIGhsDBWniwtDyQCptQWAeFwbw0crhmKhurAKWpIUBzuREdSwq+CVe71YcCJ8fdqjZeFaauRk0X0uIxhg9SvD61blP6Eae/OsbHpmE6eqWSN5UibcqtNj/Fizky8T2otKr9p05wXKeoxCKwnTjxXUjbT8tpv52C+1Gmj31Q/pWa+dhnATwSrq+COyn60mIM4SpquU7/SUz85He1Cl80zavtqhMn/ABIZEnMijyMdu1fWn0RBjCNKCfqUxb9vTHzkAcI0nnLukftt77+EBFbZpUzGynFGZJOSRcXw6heMzNyjk8xR5VnKXXJlhCcyso1FuMaI2nYWpbOzfE7qJdxK26e8tKjMOmxCSQbFVj54ztKzop/iOZspaUTjByjjzMJmphO1kitvNKlQ4qRcC/nhbeAHrhsopYk8wObIngrnyvC2oJHMGIGiKpg14R0gyVeeEBf8G4NNcpM1OMaza7IA4cBFn/ERnZKVlak4FvzATdxtPEXhbZvhXEkvhWiYjpaW3JF6ZWhxAUc+ULyk2t2GNPSUqlyVSp1GqhqDHFLETpytxcnGi5PNex853JfAWxiTVMzim8V4ksVJSv8AIzB7vfGPH8Q4+ncfzzs9NrSqWQsJ8HZTkQByTYWsIr09MLqDjm/WXFqvdStYfOzlGoODpeRlm1Ln3JgvzUydEhITZLaRzNyST3CLKdGW9R3Z2VcTG2WkrI9G2b1Bl+TqoDTEohKmzkbGVIuFAeqJ3CNSlnKXNKXMNpUmceSRm5Xvfu1in7OdmtTxHvZp6fZpNPcbCgZxSkB4i9stgTpc+mLkn2PTe8zJxfSGULuShMy75WmpOWL5wcHaSscalfURxBRqDXGlqmm2FugdFxteVY84+OK5R8N0ujzC1oc3yjoN6sEjutFpmtgEvL3IxdTHbDUb92/bbSICd2SokdU1KXmxx9xmnAT5iBEUP62JDPKo9+jq1VC7MzKJObeoFueYRDSuzKXmEpzTAb75ld4l5fY7TnLZqrKovpYzj2nwQ7Id34H7NSlbH3dsc9VCHDdYlEpH0Q2f3QhunYPS1cK9Tk3/APWvfJC6fY+0dIucSUsjq8Oev3+TCsvIXfgU8bSn6pZH7sQXxxJ85lr+MIH/AMPVEy39tNKTf3vhzxP3MJf+Hmj5dMV0kK4W8NeP92FYLvwG8cyXATLf8YQZNWlAn8ks/wAcfLDY+x5paf8AzZSh1/Rb33sKJ9jpTFZle2+jgJ1P0S+f7sFkGvgU8dSRNvCWxy8oQPjiS1+imiPtxrDY+x3pKdTi6l9yZl+/qg7PsfKIpWVWL6Xc8vCH/vYNB6i3jiStYTLXdmED44lMoPhLIP24gE+x+w6gWXi2lqPEkTMxb7mFW9gWGdArFdMHLWbmfvINPICBrUp+qmj2ZhHGsSltJhrT7IQq5sDwwLgYqp1r20mZn7yOTsDwplN8WySOVvCJj7yHZeRaifjiWIHu7Y/dCBTWJTMBv2/4wg/4g+Ecpvi2WJ60zEwf7kJubCcINnTFrJ/f3/jRBaPkeop40lNT4S0AB9eIjq9UGVUiaLT7aylNyErF7X5Q+TsRwSjy8XX0964/p58sLObE8CrZdCMXKbcIshRU+U3txtk+C8Fl5FdlGx1UGJyl+4upXdOa17kC3OHNRGbZ6yDp9Bt+oQGNNldCwtR1zMliyXrKwT9Cpl3m1ZerMTbTujnsJ4wn8MsLl6VOzEgqWbW2mXk3F505QRY21iWltCOty1pRu2203zdAa27Iq2NqO/NspmpZV3E6KbI0I67wq25jt5Gb2n1VrkEu090EDlwTCc1L44dZIdwtUgn9ovD+5BZhuVyk0uZzBT6QgpPAG8WNEueEQfhFebcKRR5gKvqCw5fu8mHLPtre1aw/OOfayrh/uwaiViclpcpUCOIN4lkTLugKzYJKfMb39ZiutSOOHEpKMKVFQPA+Bufew4bpO0FwEJwfUiBz8Dc+9iLjcmmWRueeUzulFCmwLJzoSSm4A0NrjgPQIVmpx2atvCniVHKhKcxPFRIGp7TFcFF2jdE+06pjkPoRY+KDih7SeWC6mB+1F/JAoCciY17+2O7eURPiDaZzwVU/5ov5IH2t7TdR7SqmLf8ApVRKxG5LZinutCeYZiIjk4Z2nHT2kVM6fqYx3tV2oK1GB6nb9rHqgsBJOX3a7G2kQcrZOEpUW0EiNOP53DtWFdqASU+0aqG+ltxrBfxOce0+jpdm6LUJOTZlrupmJVWVlATqCRpoOd4YiR2EK/HlsrTm6Rbd/sFkxuME5RpyjCOxmQYqWMNlUu6p5CFNOkql31sr/I6+C0EKGvUY2cMG0/T6LrV/+ezvzsWIxcZ3r7E/xgbHqiv+0yQ0Bmqz/Tk787Bm8HSCf0XWvPXJ352GZ5YE36oGx6or6sHyKv0ZWh/1yd+dgfabI2v4ZWv6cnPnYBFggRFe9pkjxE5W7/8APJ352B9psif0ZW/6cnPnYYEzU9KRPHkGHD/VMYFqWVWIJC5yC0zpYnXJG3qlg2RVR50eG1r6g5/tubPvT/xIwvV1H2w0cWtrMX049ARGRqYHTMWpODJuiU+eedMuCtIWtQnmV3sdAAFm/cNYiMx0ANj6oKllCU3CAD5oAK6QtFRq6Bkg9fyQrroOEEsErICsw5HlBk2ChfWGA3ct7asMDid7MafvJjUuw+aZTgeQBebB90uCsA+WqMruK/HZhjWx3sxf+SMab2LYepE5guRefpUg+6veFTjss2tROdQ1JF+UWRM7G/D/ACep+GS/6ez/ACifljjOy/6pY/lU/LEenDFE1tRaaP4G397B/azRf1mp1/2m397EzDHvhkrzmmB++p+WCOT8plt4ZLa/8ZPyw2GG6PwTSKeP4I397AjDdIVxpNPv+1W/vYQ9BVyrybehnJa/a8n5YIKrJLFjUJVX7+gfHHe1yk62pUgP4I397AOYcpLlj4skhbqlkD4oB6CkvWJEOlHh8obC/wBXRp8MZs28TTM1tXmCw628jxbLAqbWFC+dzS4jSSKHTArSmSX82R8kZs28SzEntWfRLstsINMliUNICRfO5rYQnsduD+KjyvC6ZWpKmA48WPBZ1wlxxslBWMnRsAeFgeFonJ8NJm87EwmZSppIKkIUkAgq0soA8COUVjCLmVis/wDM3ef2KIm8x5GItG8mKKIOkFzGwzG57YT15xxPCIkh02rUG94r1BUPb1idPag36+gYnGTrEBQ1FW0DEnegf9swcMiWqTbkpjeZ53wdwpN0OSzx1Sm3EJIN7aawZIytpFteEIpV0oVXqBz1iKJDeq9KlT19PcV/cmJn2NasuMsCga5i4Bl1/Qz0Q1T1pk7rxYX9yYdex/aZfxFgVl8BbDr26Wm5TcKacTa4NxxixbFNTtZtxTa8x6B9EF3a/rFeiK+5gXD1z9K0H7Z1w/3oS9oeHv1pZP2yln+9Fh5ssTrCnG1oLayFJIIBKTw5EcO+EpOXdTKMJLC2lBtILallwp0GhUfKt184gPaHhz9ZZT+KT8cCnAmG+dDkVfbMgwhljDLn1ivRC0u24l5JKFWuDwiq+0PDJ/8AL1NPfLJPxQdvAeF8wvh2lH+CI+SGFjFO15oy7s60NCzVlItbqWsRYUHo8bxB7bZRqn1Ssysu2hlhqtuNtttpslCQ44AAOQtaJhtVkgc9Irkeip7L7Cyrag3tzyi5t2Q1mJWXM5LuSqZxxwup3hmGm2whI1vcOKJ1HC3OHAV1RzeryB2xC5cU3CR3c/XtD0Z7++Y3DSUK8FSbXFow5hm3jLEI974Zr/HMbGpOC8OqlUFWHqUTYcZJr72LeTMxWyLQro8dI7TjcemIP2l4dv8AmepX8xa+9gwwdh4cKBSh/AmvvYZnEzvEXtmT/GECXEc1oH7oRDjCNA/WKl3/AGk197BvanQk8KJTB3Sbf3sAiT8IZ/Tmx+7EE8Ml9LzDI/fU/LDEYXonKi00afqNv72BOHaRw8UU8fwRv5IYEHtSnZU7M8Ujwlkk01+yUupJPQPbGXHE5qfTeyYZIHWQlRt8BjTe0yi0yX2cYnW3S5JtaabMKSpEuhJSQ2dQQNDGZE/kWkH/ANQg/wDbXEWamE7WTk5Jjxc7lebcdslKUJC7q6Q4dG2g11PKBUrUwW5ta8Bmis0A176eeFL6awl76FEq43F4QzUuxLHrFG2WUmQWzvVNuPk+d1avjj0Kaxg+7S/DA0GZa2hSrUnqtbjEH7HbCNMr2xSjrmW2i4t2Zuo2zaPrA180WxOzeToc1Lv+F76TaXmDLjoIBvGdUzXvE6o0lLebPjy3LPTk1kYbUtxStEgaxb5em0nBzbc3WG0z9QSQtmTGqQrlfrgs1VpPDo8X0RsTdScORUwdTc9XZFZrFJmpRsTs26tyZKwCVAixNzYeiPpUcLhfR0p4lqdXiPC+5h9SeI0hpHye14JxBWMQy89MVZAZUlaEtS4sA0kgkAAcOUWJKgE8bjtjzvY2tTlHqSlKKruo18yo9B4R4zGV5YivKrPdmpSjlgkgjh5w0cSCbw5c107IQWL3PVHGWiSbDW2kLtq4C1oSKbEQo3pyhiHTZtz0MHv1winjzhS9+8wgR3DnHchHd/XBVdKAYbzd0dpaCjTvgDAM69r8o7NbTnBFGAuU84QBzw7YKU3gE+VfnAKuVA306oYA9do4Eag6iAV3wXjCAMpSbZSBmv5UJKsrugVdKC35coBAHrgEjs74HSAzaQwK3jhP0nfV9gq3oi1YPxhWZHClHaYq0400mVbAQh9QSNOQvFUx1rRngP0tXqiQwyR7WaT1eCo9US4I8lyVjyvc6xOknrfV8sR8/i+szCSldUm1J5gvK1+GI4q5w2fVyhDAeqU84lThffUPrsxt6Y5muT7auhNPDTiHCIkEqLk0w3vnmZgBCUMrTmRwFuB4HjwPHnDSTV4OlpaRqEPqseGiOHdAMdM4nqybBNRmh1WeV8sO28WVlSRaqzlv2dXyw2pbHi+famEC6S4hMspXO58r9yLj7a0Ho58Flt8XWWlOq3eVwkZm/f8AAHQ6DuvBmESDOJK46SlqozzirXsh5ZPwGBfxFX5e29nqgze4G8cWm/WBeIiYbMnNONJdK0oV0XE3GdPFKvOLHzwuXCquXJuUzJP9Yw7gOm8R1t7Nu6hPOEC6g24skDttCHtqq6v9pzhvz36/lhm88tuTlAhRS0QSSk2BcvrftCcvp7YQmt6X3C9m3xN15tDc66w7iJD2zVVPCpzg/f1/LHKxPViLmpTZH7Or5Yir9sd77sgAlPbPVdPpnODufX8sR9YrM9OU2ZZmJ2YfaU2slLjpIOh5XhHnCE4M0m/fQbpev7kxNER7sIObHOyrrDT39guNxp4C3VGGtghCscbLr6ndPHu9wXG40+SO6LEYWM719hUG8D22hNPR5wpDM8GOCrqItHR3OAQaB5wWBEADesKIos/b9TufcmPn9WlFNeoybk9J8/1BH0ArCstFqB6pdz7gx8/61+aGjfwj+zEJmrgfm/BJFzTn1wHLU3vBRHFRT64rNcUT0Rppp54OFAa35wgFX64USrhpzhERu8r8dmGTYfVZj+xMat2G/mFp3c4f+6qMmv8A5rsMG/54/wDA0Y1fsL/MHTuqzn9oqLI7mdjvh/k9JEGhO+W99IBKlXvboxaYYqIMIIDBkqiIBrwirL4Ygnyt0r1p+WFbwipRM5YcEtai/wBcrT7kwwFknpC0Zi9kEbbWHSP1rlj/AF3I04k6jrjMPshDl2rrPXSpY93ujkRex3YP4qPHsJj3CsH/APJujt8lETVvTFfwmo7qsm+oqjwt+5RE3vCYgzeQpeAv1HWE83bHZteMRJi7ajmGmsQdAUBtAxKLe+bN/wBwYmUKuoCIGgqH4oGJrcy39wqAT4LWnyoUcVoD2winpKvCjx4aREkJVBWamzgAvdlY/qmO2DvbqvYCcvYeHs8OV1EQScv4DNAHi0r1GCbCUhyqYKJ0Am21ehRixbFU9jbxqDGhKwIL4cwfz0RT3lHhc2hupR+uMWHmS8iaYPB5v+MI4Ptng4k+eKEpSvrjBC45+mKHngEeg75A99HJmGwoHNFBRNTDdrPuDz3hRuoTRUAX1HvgJIy57IRJ9s2Ikk6GsKUNeRUSPXDltV0JN76DWIbbZMKmKrXHVm6vGpT50qKf7sSbKszaTw0B+CISPQ0u1fYdJVqBBkW3ib9cIg5dRx6oFKwHBFZcVDDf5cYkF9fDL/142/RwfA0HsjDtB6NYxLr+iL/1o3FRfyG2b8ot5MvF7RH8BAx0Mzjo7nA90BAB3mgD3wKoKrshgVnahb8TfFI5eLJn+zVGUkqPgdIFv0S2P6i41ftMTm2c4puL/SyZ/slRk8H6DpJAsUzLX3KoUuDTwe0ie1gE6cdTHJVxjjFRpBr9sHBveEs1rdUGSnqgA3Z7FlmXc2I0RS0SZXvpoXe8r6uv7Ex6wqRknEkLapZB4hQv/cjMOwdxX4mVN1IG9fHHT6qqPRA4rmpXpjmcFc6Yydj4/tuLZeDqVELB8ocYXrFemJilsSxIDLCi501EqWo6XJPUOXfDVV81hcwScp615EPAtJJvmUOrlGnUnKpPNJ3ZxRWVWR7Nsdt7XZhxNwl1aFWPXZQI+CL5rqIqWzeek56jutSDCmZaVQ0zdZ6TiumVLPVcnh1ARa44ZbnVHYBXOElJ5wporvgpv/oRAkECe3WBTygRbvMCkDrhgHSfRB81+6CjSDJFr66REAFcdfRAcPVAk9kEHwwDBVflHJ6vhgpcHXc9kBn9HVDEGME79Y7PfiIC/MQgDZrq4QTNrx1gAom9/NA5hxhjOKrEQGt+NoBUBpy0gA4m14IVFOsCoDQcYKrugA5SsttYAXy8YA9cFUqGIrmOlBNGmL8N2r1RJYZv7W6Tw/IyPVETjzWiv8xula+aJXDZ/G3Sv2sj1RP5SPzEkowkr0woSeEFy5oiSD+GTKWS2H3A3YjIFaWPLuhtnUEgZiAAQBfhfj6YnkyrakthuWYfl8ozbt0b86akDNmuDfQC2nOGVNUhKszjLLrLQ3i87YJUOQv2mw88ILEeHXEqbO8UN2bo1PRv1dUDvFFKRfRIsBfhCiZZbjK3Bu0jU6uISe4JJufMIeMspmJF5YaZS2y0bneDfKVa4ITe516hYDj1wAMS4XLEqJKRYX5QYOqS5vApQXe+YHW/XeHbaG8qJYspzqaCi8Cc2YpzAjXgLgW7DHNhuzEsW0FTyem4dVAqOlj1Cw0779hcY2ZnnpcjdOuMde7UU377QgpRKrm9ybk3vcwXNmTcxxulRSdCNOMSRFnFViNYKpXbAFXZAJMMiGKu2EZwZpOYF9d0r1GFAYRnFZZV+2nuavUYZEcbB5pqXxvsycddbYbSw+St1QSn6krmTG2fH1LSBeqSI0/VTfyxin2PrLc5i/Z0w+2h9lyXfzNOJCkqsysi4PHUAxtZFApSUC1LkfNLI+SLkYmM719gycQUr9dZH+dN/LBk4ipH670/+dt/fQCaFTBr4skv5sj5IVTRqdyp0n/N0fJDM8A4ko6RrV6fb9tt/fQHtmo36803+eN/fQsKTT0cKdKDulkfJApo9OUr8r5Mn9ro+SAQ3VieijQ1qmj+GN/fQCcTURIH05poH7ca++h2qkyFreASv8gj5IJ4pkR+gZUfvCPkhi0I2tYpohodQArVNVeXcGUTjdz0D9lGFaolT2JKOGwon3cAJFyeh1RvGvUmRVQKleRlT9DO/nCPrD2RhCcmTL4qpEwENuKZD7iUuIC0khI4g6RGRrYH5vwPkpXzQoC172hJStbX5cIdOYsmq9JvS8xLygS2pBuiRZbVcLBBBSkHiOvqhllNhfS+vG8VGuKJ6oVT3Qgk6jqhUddu6GRGj35rsMafnr4v+9GNN7E8RysngqSZcYqS1tqdBUzTJl1P1VfBSWyD5jGYphRGK8MdRef0v/wjGsNhKs2AafqbZnrfyq4nEzcd8P8AJbziyTKgBK1dQ/5PN/NwIxVJ8TJ1c/8AR5r5uJkd8BlNuqLDDuiJ9tkp+o6uO+jzXzcD7bJQa+B1j+iJn5uJTKo84HLAIi/bbK/qGsf0RM/NwQYqld6pXgNYKyAPyqmeAv8AYdZMTHwQRSbOX6xY+bh8cK4yNTiuWUqwkax/RMx95GcNvFSRUNqi3ENTDCRSmBlmmFsq0dcN8qgDbXjGpE98Zl9kUANqwN9TSGP7ZyE9jvwfxUeO4VlZhMpWHTLvKaNSc90Q0oo1SmwuBYHThEiHkqcUgFQcTa6VJINtRfXuPoiEpc1NyZUZdakhc+sLCV5bjo8e4XPmibccfcmkLfKs6mE3zKvrmVz88Vs3kDfn1QIUOQueZgt+MdeETF2/KEQVDcJ2iYiSbaBu1gANEH4YnGyOiR1xXqGofii4i1t9T4nX6mYPImWozjLSuk6m6fe3hypWdIsePCIZVWnGXktNOuhsKsAlZsnn8sSMu5eWbI6h3CIjBmOlJv319zV6oZbFZ5mmu4Tmph1LLLMw2VuKNgkbwi5MPXj9DujrQq9+6I3YuqycLqQbFMy2rq4OxNbFVTtZp57G1AuSKxKK7nLw3Vjahfrmwftcx+KLG444rpZla68YarU59cq/fFp5kglY2on64JI+xbWf7sB7cqOrUTaj3S7p/uxLzDikSzqytxOVBN20lahp71Njc9Qsb9UFYU5uG7uOOHKOk4nKpWnEiwseywgDQi/bhSf1S6f4G/8AeQZnF9JU4AHpjjraRmD/AIcS118bmFZda0vJUSrQ34wh6GQNp84iot1KbbUS3MVNbqSUlJyqdURobEcRxiwtnop7hFPxk8XsOl5XFx9tZ867/HFsbXmbQRzSDp3RBno6fahwhXS10vBFTSW3GwtLreZQSCtpSQSeGpEADxI0iHXMP+NWEqKlt508yefCKy0i6QoePsRptYb75I2VRcYU7wFvSfJyjyaZNEcOxuMX0e/jzE4Nvqtjz98BG5aCoqp7JB0yi3oi5bmXi9l+RL24U36ypf0TN/NQPtup/JqqHupE381EsonQ3vHakcYkZpE+26Q09wqp7qRN/NQHtuk7/kWrH/pE183Evc9ccVGEPQiPbXKcpSrEf8pmfm4L7apZX6Bq/wDRcx95EvcwBhiKTtExIw9s/wASNiSqqSunTCcyqc8lIu2rUkp0HbGYEufS+mkX+rtX9BjW+0IBWz/EwPA0yZH/AGlRj9xSm6NTVpJCvCZexvqNTClsaeE2dix+GMp1LgAPPlC+hvrDCcccRJvnj7iogjjwh513ik0g3bBhBOZgeR5QwNB7H9olAw7gOTkKjUW5aabdeUptZ1AUsqB+GLp+LNg9Nvp0x6Ywdjh5SK9bluUeqK+Xie2JqlfUfUtpYpjTyJWcQ64nOlKsxSNLi/CJOqTCalQROBhTCFTAS2FkXPRJPm4emIl/6srSwzHjEfVph8y3RUSEaDsF4T1aYtEj2bYsnLRalx+qt8e5Ueg5svdFK2TN5cLtv7tTbjqUlWb31ioA/BbzRdCer4Iok9S6Oxx5WgL8bGOJ69DAeuIEgeEdy4Wgojr+iGAflx0jufbBL8LaR17p11gAOlQTcE3PC94DMLcYIVZuWkJ3A7bwgFCo9UBmgArr49kFzDUXgGG525xx0gmY89IEWyjqhjAOtraCBuOEEza35wCnOjppCAOu2a6bgdV4C94IXNOvrgCeFoYBufxQBgt/PAKVy5wAcom9oKeZvAFRv16QTMdYYiAxwM9Bm7cUsOHhflEhhm3tbpNuHgyPVETjh7JRJrpFJLKwPREphtWbDtL/AGsj1CJcEPmJSDZr5dALaaCEu2BFhwhEh8mohtSXUyzfhCbWcN7XHA5b2v8AB2Q0DhTLlr3pIUTzNrgeuEyTfjHKUIAB5Q58YJDagJdsPKQWi6Cq+UpynS9r20vbt46wzUqCqI4QgHXhx3Vt02XMhbDxBzBJ4jjbgbXte3mgETxQ3l3bZcCChLpvmQk3vbW3M6kaX0hobDnrAKVz4dcABirLok2HCCZr8YKTa0Bx05RIQbvgM0B54DWGRBzceqEZtX0O6TwyK9RhW/CG88byb/7Gr1RJER57H+pylLxhs6mZ6aZk5ZMrMBTr6whKTulAanvjZ4x5hndp/HBTlC3vZlJ+OMd+xp6WPtnWtlCTmj/2jG6C65YdNXpi0w8Z3r7FcTj7DJP5fyH8uIUTj7DSbfTyT/j3+KJ4POD36vTBkzDv6Yr0mA4CDGPsNEXFbkyOxRPxQVWPcNKUPpzK3Hvrq+SLD4Q7pdxXpMG3y9Omr0wwK77fMOfruwfMr5IJ7fsOK4Vdg+ZXyRZFTDh9+r0mEy85+mK9MAtCpV3H2HhQKmPGrRV4K7YZF6nIbe9jEE0FuYopIQnP0Jjo9fQ4R9AK84v2u1S61ZfBXr6/YGMK4bLf4oVC3oSpv3YqChccE8YjJ2Rq4HeS+w7k6PmlX1OpylDKl9EcMovaIvTS3CPW8Z+BNYdfMm3LoU4yoHdJSCOFwQOwn0GPI79ARzxlm1NqUcuh3ZCieUDLspcFiohSlBCABe5IPH4PT2QVKuHVEysZzSvx2YX6g8/f+RMae2H1aaZwPItt0GozbaVPAPMuSwQr3VWoC3kn0iMuzCvx3YYBPR3z/D9iMa12A9LZ7T7HUKev/KriyJm474f5LomtT3+7VV/lZP8ACIHx1Pc8NVQfv0n8/Et38I6LjAItNanrW9rVU799J/Px3jeev+Zup/y0n8/Etw5wIiJIh/HE/fTDVU/l5P5+COVifVlIw5VAQbiz8pY9h93ic+CCHXjAPQhm61PuWIw1U7H/AI8p8/Gc/ZATUxNbUAXpCYp6vFDIDcwttRI3rmt21KFuPO+kagOeXWp1CVONnVxtOpH2SR6xz5a6HM/sk5htzapLJSsEqobKxY+937ljEZbHdg/io8opMo67JzKmQb+EEmw7IdOSr7LaFvklSrgX6tD8cSeAZhMrL1IXN3DY2B6Juq3xHzwlWFOFMtvOPTv1cRFGbWx6PL7bkbApgNYdJZCpLPuxlCSre6+VnACerhrbzw7kRJPERWqKrLtKrwJ0ypt2e5KixpPSAitUm/4pVdJHJv4WyIkuRPgn6g3MNJlnJaxSR7p0bkRLP+4zC2ySciykX1OmkRm8eS81u0FaFEJUq/AQ5bUVKFzrECQu9YsuDh0T6ojNiMwiXbw446y9MNoe1bl05nFe6G2UX14/BEg50m1AakpMMNg6/d8Mftn++oxNbFNTZmtk4lY3aS3hivOC3F1oIv5heEnMQJP/AJTrN/tkD1mLLKi7KTe+kHUnmIusebuvBUZir7+XcbThWvN7xJTnZcZStFxa4KlcRy0g6qwpKhusJ1sADjMKl1k9vRdTFhnmS7IzSA246pTS0htlzdrXdJ6KV3GUngFXFiQbiFW29BoRpayjcjvMIL/QrK684kD8ZtZ7kuyqL9ty+q3daCHEE2ltZ9qVXaTqQrfSayPNvReLUpkEi8A82lDKyTYZT6odh5l4MD4pVfBrZVmCiWSBYc1axbJVZLLd/rEn4IqWKHUPYJacbUlxtSWClSTcWzJi1yv1Fn7RI+CKnseiiP2UhSgFGw0h1UKXLS89M6pUkatbs6BQUNPReGCSdYZNpe8M1+p6d/HWKy4rlJ6VfxSSbK3l7ntUI2Zh/EEwqly+WgVZXQTqEMi+g63YxnS1fjgxOR9cD6FJvG4cMq+k8qb/AJ2n1CLuTKxe0QBXpm4Aw7Vz2/Q3z0D4+m7fmbq/nMqP8eJbNzgpPoiRmET4+nTww1VvO5KfPwJrk9yw3Uz+/Sg/x4lOsx3fDGRPjqocsN1Ed78r89AeOajpbDc+P4RK/OxLx3mhDsim48rFQVgTESTh+cQlVOmAVqmZfogtK1IDhPojLUokOSFNCkhQ8IY0Vw8qNc7QHAnAeIyryfFszf8AklRj12xoMnbX3ZhQ/jQmaWEtaRYZxlSN+k3sMw6PC2txCyeuGswVplH+lcbtYt5jDnhoDwio0g6VcbwOa4EEHODptrABdMLbG8H4wpqK9iKszrT6rtIkJUpQLIJF1GxJv2Wi1UnZ7sroJCl4cVUfspp5xfwFVvghnheYkU4FobMpL5q4/MvNKVrYoK9NPTGiT4OrDLUrPy7Jl2mClaMotYJ498e5o4j0/A4KjUq0s0pb+dOTxdXC+oY3G1YQq5Ix2/PB8l5pJ37gvfU6w0cSldgoZk8xD6ZHuyyBpcwzVzjxJ7M9n2Tzz1Qo86p5VwhbbSE8kpAVYAf64xdbi0UHY9dNDntfz1B+AxfTpqdI55bl0dju20d54DS0crheIkjrx0FzDLAad8AAnqvAZrWgu85c4DMIAD3HfBdewwUqsbCOST3QADwV2QCjrpxjs3UILexhkgde+OzcLmC9ZveCjo8TcwgDlQ69ILmvygOPdAZrcxDAEqA7oLmynsjuHbAXvCGDm80FUrpXgM2XvMFVwgEdnvc2guaOVBCrSJESs7QFfSOY/YlRMYdP43qWCNfBkX9EQWP3D4jmQBxbVqYm8Pq+kNN/a6PVEuCPzEpmOnOBv64TBtYGDXEIkceswCiI5RgqjAIHNe8FKoLftvAKUT2QDOzH/KAzGCqPbHeuHYR147u0gvDujhpDEGvwtAHtgubhzgL6QCDdnGG9QNpN7l0FeowvyhtP/kV7n7mqw8xhkR1sVrTGF38IV12XXMuybO7QEqN8rgKF2SPKNiLd0bZbxtTXmwsM1ci36yTvzMYZ2JSaqlirZ9KgKWjwZ9wt+9UpKLgkdl7iN9SLjglUIUT0RaLUYuNtmXkjPbnTv1NWD3USd+agfblIJ/Qta/oOd+aiZzEwGfW19eqJGaQ6cbSCj+Q61/Qk581BvbrI85Ktf0LN/NxL3jrmEBE+3GUtpIVs/wDRZr5uC+3GT/W+uDvos183E0FR1z1wAeZ7WtqysO4UX4DTJxTk2vwUrqUi/LtJSpKr9JQTc2GgB6zGUZRavbxSFthOVO/OXl5NrfCI2VtYpYrGz3EEupO9SZJ1YSoXspKCQR23sfMIxvSXhL45ortyMq1m3da/qMQmbWAcbNW1LS4/OzLc81MNgMplXVhQFtQm/KKnbopJ6o9RxhVG5ihuqadGZaFBSQCLDqPXfWPL/eiOeDujWqaMOy8plKgkgBXG4B5EeY6nXtgE2y9kDLpQpwJczWOgy8bwROqbxYVjCZ0xdhjS/uz39kY919j1iKuqmpyQk5dqcprSOimZeLCELzahKghWY8bi3n6/CJz81uFyf05/l/wjGmvY+UdxOF2JzgFOv2/lVROO6ODGStSeh6j4dX/1mp/9Kr/B47w2v8qNTh/1Vf4PEsIGOg86RJnMQ8qPTf6VX+Dx3hmIBxpFM/pZz8GiWjoiMivDq/wFIpfD9dXPwaAE5iBX+yKX/Srn4PEpAiAZGCcxEnhSKXc//lnPwaMxbYsQVKfx7PyVWZl5eal0DdtNBKzub3TZzKFKTcniAL30EayTGWfZHyYl9r7Tw/P6GgnzTChEJbGhgpWq2KHhmXfckKiJa+fODoOGqoUn5N+VlWg+vNmUSBe/IfLC2BVuS4nFpbU4F6KtyupevwQOIkFJljcke6f3Y5vmPR/KQ+b0QZKtLcBBYXZcCWJlGRBzIBClAZhZSeB5c+ETKwrflARVqSs/imVlI98lu/V9TMWRJIPUIqtJcI2pVZAuMzafOMgiS5F4Le+p/wADbDDikEJ6SUkAnzwu8oeELy+TmhqiXeXZxoXN03vwtc3+KDNpUjoqOoNjESQ6BzAi/K0VTZxOOSeG5F9txbDra15VtkhQOcgW53i0JI4cBFc2RtmYk6I0ACVTiQAf2a8TWxXJ2NiYIr2IprCtOcnKCuZmlMpK3jNtN5+pRSdQbWuOuJtVUratRhxsfbVJA9STC9AklyEi20rkLRJq4xajzUmm27EA/MVucZdZXh2WU26ktrSqq2ukixFw11QPhGIUAJFCp4CdADVlcv3iJmYbDsu8gttupUhSS26egoEEWVodDz0OnKAlQEyrCQhtoBtICGTdCdBok2Fx1Gw05QxaEKZrEfKiUzz1df4NEHjSfxazh+ccl6XT2FoaUoLZqK3Vi3UlTCQT3kRedUw3qUsJySeZIvnTaGCdnexg3HtQNUw2/Ml7wgLU0d5e9+mm0WCTVeXZ5Hdp9Qip4kZEtgdbVvIDYtw4OCLTJm8syTr7mnj3CKZbHpI66j9s9JOt++JCoTMul5aVOpWlRs3lN+lca6RFJOkN5inzDc826QcibcedjFRaVqi9LE2JQQMpc4fuhGltiuIMSzVHmkLkzU5NtaUy7sxMhpSdNUgkEqA6PdcxmekqCcUYj0sN5fTvEa/2cy7ktRZU5cqVNpV/VEW/MjOxTSp2sWHxlXculClgepVSt6mjBFVCvm96LIgdtUPzES3GAV3xYZOhEpn6+TY0inXPXVF/g8HE7iA3vSKYD/zRz8HiTHGD+eAjcivCsQ6/Suk/0m7+DwRU1iLS1NpI7DUXT/gRLnsgICVzznadPYkYwrUXVy1NlpZLRLymZpxxQb99YKaSOF+JjOs9MonJdp4vBaVvtHeXuD0xzjVO1BnwjZ3iNIFyJB9XoaUYyHu/xtybfGy2iP44iMuDUwb9rLlUG2xMTRTYoKlWKToBCfZwhN5lHgTgSs5ylYKfMbCDp15xUaIb4INfKnrgtx1RyVZj2Q0I9B2RLfexbKjI2uWlUZxnVrmN+AjSs9MSdQkXJaa3wYebKFhpJJsRYjSMjYaw7XJ6ZVVaK94O5KpSkrJ0WSTpHv8AsUqeInqo8vEL7RTu8qUN6i/XrEatRzsm9i2lFRu0tzCOPMBN4bw7Qa3LTZmJaquzbQSoWILKkdIdhDifRFFTLOOGyEEx7dtWx9Q8US+HKDSpRxFAw3Kql5VKkBK3nFqCnXV2+uISAOQAiBoOF69XkIXSqO0ywo2TMPKAT6T8kRUnbUbjroO9lbLsrRp0LQU5nE29Bi75j0RCUrhGp4PlQiqzbE1MTBzjwe5CAOWvfBlK10GsReupJK2ga8BmKb/DHZuvjBVKASIQHZhlvaChZ6o4qGUXguY89O6AYcwXNrprBdNQIGAQN7wXMc1o4qA74KFdusBINw7Y4K7IKq+lhA30gGATAEm4twjja/CAuDfvgEdmBvbuju+O3m7tYA98C88HlZ8qW78kCw9EABFG/CAJN9NDBVJ/0I7gIBnKPE84KrWOzGE83EQCBUodcEV5MBfiDAZriJESqbQFHxLMj/hqidoJy0Om/tdH3IiC2gkCgzRP6UqJuhH6S04c9wj1CJcEeSTSqDZhrCSVc4HN1CESD5u6AJgvUYAmADs3bBTHZu6AJ4wAB3QBUQbQGbnAKtEiIN46/MCCXvA3sIBAwMFzQa+sAjobT5CZOYP/AA1D4IcHnYw2qH5Bf5+5q9UMRJexvmzJ43wI8JWYnAmQmwGZZIUs3QBcAkeuNnJxM7yw9W/5Fket2Mdexd6WPcE2GqafNH+oP843BFphYx/zF9iG9ssyP/LNbP7mXH+NBjiSb4+1et/+1+fiXBgYDhIZOJJ03/GrXPTJ/hED7Yp7N+ZStH93J/hETSbwMMLIhfbHP6/jTrX8pJfhEAcR1H/dKtfysl+ERN6wHKARVMR4gn/a1V82E6vl8Edvd6SsBkOp+iOEYvlW3F4vpIaN3bPAWHWkAfCRG6sSJAwrWBaw8Cf/ALNUYZo814Hjuhu87uEZT1AK9QMVzNfAbv8ABam6bV25SeVOuLmJUSzqgVJINwkkfDFWA6MepY0rrVSw64hsOb0tK3gUNBaxFjz5x5em2URzwldG1UVnoAnQg3seUB1Dq0h7IS6Xs5WznQggrVc2QnXhb3x5X6jDO3GLCojJ1X468LDX6s+R37oxqDYV48VgWUMq5TES+9eCA+26pdt6viQoCMt1BX47MLfs739kY1r7H/TZ7I8vdX/7ZcWx3M3G/D/JdsuIwPyRR7/sD338B+OP9UUf+bPfORMG0BFpgkUlOItD4TSP5q987AKRiMfoqj/zR4/4sTCU9scrt4QgIbLiL9V0j+aPfOx2XEZ4TdHHfJvfPRMd0BbtgAi0oxGeM3Rx/A3vnozn7IhE+naVJeMHZV5zxKnIqVaW2AnwhXEKUrW/bGo0mMzeyYIO0ymg8qJf/wBwYUtjtwfxkeV0Knu1xmoMMg3QtKzZQBFioefjEg9STS6ekKczuLcvbmDbX4oRwJNKkZiqOXSnMRbeG3Eq7Yd1Re8l2criXAlSsygQdSBx9EczbzWPS20uRndwgb8Y46qMOkqKae4C4Dm6KWgoC2oOYjmeQ8/nkRGd+l284qdNJTtUqJHDdp+5EWsXzCKnTzfatUdbXaQe/RMSXJF8Ftmm1TEu0lp5TTiE3IuQDr1iF1W3yiDmF+N4R8GedSFNdG1hfz6/BBkApvfriBMXb8qK9sfcebl6SphKFvJnuglxZQkne8CQCQPMYsDV84iA2Om3ioEaCo2/7giXBXLY2yzM4mLKT4uoo0/XF4//AK8H8IxMoXMnRU/wx8/4MTEuQqXRbqgfVHQeYIJSsSqTYs0MIIsrM68RbnfowSTViByUZMqrD4lShJZLAeU2UWGXLYgWta1tIsI8rTSGlNfTM0uTeS+xNBxlCg/KpytOXSDmQLqsk8QLnTmYYEb+OfNq/RU/wd8/4kGbZxMpWk9RUn9ovn/GiXgU8e2GFzAmOW1IwzPIcKc6VpByCwvvQNL8onpHWVl7/pSPuRETtEsmj1cX0S+fgfiVkfyJL/sSPuRHPI9JDZfYeo6Tahexvzh/P1SUTNTW7O8S9dKBbydbg6xGp14C56oTnKO+3MJeUClKeKbdRiBdexU6TpijER4AqN/gjYeE/H5o8lukUnd7lFitTxURlHGw4xjylq/HLiHTXOf7vyRtfBN/a7Ian6g39yIuW5lYztX3HJ9sPJdHQb/pbyv7wjt3iFXGZpAHZKvH/FiVA4wJ4RIzCIUziLlP0gfwB4/48cGMRG96lSR/010//sRLWg0AEQqXxD+utKH/AEp38Jgvg+IOdWpo7qW5+ERMmCEcYAKhjWTrftLr+8qsitvxfMXSinKSSN2q4uXjaMqFSWqHLKdNkpW1c/uxGvsdX9pOILfrfMf2Sox1MN76gsI4klq38YRGXBqYN6SLzUHWHJiZU0pC21KUQqxGl4ZJV0jzMJuypl21NrSpK03BB5crQbgePnik0w/lc4Om2sJQom9jeJAe17K2iMC5ktKK3ZhYuE8bWjTGz/Dsq3heXk5iSCJrVZdWnjm5Xjzz2L9STJ7JW944hptM+/qs216MepT2JalJTknuJXwuTWqzqriwjPkve2dUX7Uj4wtzU09MsIWtQPAiNTbKZd1NFkmDcqy31jNRlwxUm1g6aG8a72Yye8pclNZRZSE8uyNr1KkqM1GOxzYWWaN2MtocquTmJIL98kmKhHpG2RtLcxSSNM7SyfMRp8MeaK0Nrxlw2OmW4Gt+yAzDTWCBXHS8dfTheLCAbTXS8Aoka3gubtgbnnx5wgOzcevujlHS40gp8qO80AA5gU3gulxygqr2twgMwy9cAw2br16oEqNh1QklzhA5tYAOKul2844KueEArrguiewQDDKVzgM3R1gMwV3QUqykDlAAcKtzsIDMbWhNRHfAKUdSIYB1K6Nu2E79ekdfowX4YCIU9fZAKjj6RBFGGBWdoQHiCYVf87VeJyhkGi08/wDp0eoRXtoSrUKZ1sN2bxP0a6aPID/gI9QiXBHkke7jAi8J307YMVWEIYbTvgqlawBVpBbmAA2blBVawEFUrrhiBKoLeAvygLiGIG5jgqC3zR3wwCD5oGE+6BuYAFNMp1hpUlfQL4AuS2r1Q58rTTzmGs+r6Eev9Yq/ohiJX2M8w/L44wctiRcnnE02a9ybWhB8lOt1EDTvjZqq7VQr8zM5/PJb7+MeexTsraBhPTTxZNH4Ef688bcVFhg4z4n4Ifx3Vve4be/dTzA9RMcK1Wj/AOWyO+oNfJEv28YMCYZwESmrVw/+XW79tTR95HKq1eCgBh+W14Xqgt/ZRMpg2ikkEQAQianiJR/M/JgdtW//AIx3jDEdxag0/wA9XV8xE0kZU2vccr8YGJAVTElSxEjC9ZUqg08BMm8T9N1HTIeW41jF0iwuYxlR22vqqi5ky9ZAHxxunFmuEK6Bx8AmP7NUYVp75ZxpRVp0IUs27QAfiiuZr4Dd/gv1WoszIy0wtx10s+DvGzgP1hA17yIpQPuYPZHoGKawqoUN1rcbopbOZWe+bUG9racO2PPkkZBy0jlhtqbU99BRtxTZJSopHOx4wRUO6Y2HXFBaQUe+OUEjQ9Z0HWRqNIaa2EWEOCIqB/HZhfr373H9iMag2EStVfwNKrl6szLsb5/K0qSDhHuyr9LOL635Rlyp/mrwwOe/d/szGtPY+67PZL9lmP7ZcXRMvHfD/JefAazzrTP9Hp+/jvAKxb8vUeano++iV6xBFKy8/NFhhaEb4DWOdcTb9oI++jvF9X4+Pf8A2DfyxKR0AET4vrF/y9/9i38sB4vrH6/f+xb+WJaOgAi00+sH/bv/ALFv5Yzr7IqXm5faPTxNzvhylUbor3KWsvu50sOMagTe4jNnsm0lW0Wlq5CjG/8AONIUtjtwnxkeUYephxAqoMpICmylZBNtAVC/frEpNU1ulyaUBRK1r5kchr6xEfguYMlOVBzftsZsqRvPfXKjaJKqTDc0hCm1pcCFqCrcBcf5GOVt5rHpUtLkXw74MEqylVjlvbNbSCaZjaHLLzbcu9mKVLUkoSFZsydb3TY2sed9dNImRG/vtDFRlVbva1Pi98zLfMHgExbe6KdLDLtZmwTe7KP7kSRFl2dUxMMtMrslTaVWKk5hqTygSoe91ToAbdQEETKBSStWVIUmwUpQFrKvAKGUW5dh0iBMWbVra8VrZapxLMsGlJadFSORS0lSQreCxKbi4vbS47xFhZVlVxsOF4rezG6t0hSsg8bFJUeA90TrE1sVSNyMyeJhLoHjejJ0Hk0h7q/bMd4Hic8a3SR3Udz8JiaaVmZRpygY6DzFyFTT8SKUm9ep4P2NIUPW+YSlZeuTku1MN4jlXGXkhaFJpOW4IuOLtx54sKfKHOGtNXvpFhanXnyUAl15ndOLNuKkEJym/Kw7oYEWaVXdb4iT+5pzY9ajHJo9aVxxM6nl0JBj4wYmyTpHJgC5gvaQ2tFIriFuF1xEwtJWQE5rP8bDQeaJOnfkKW1/OUfciGe1Qe44oFj0Z16wHZMmHVNV9AyhvrukW/iiKJHpKey+xIp8njyhep1xlM86JdJUHyU2ULZUk8e+GSXBlPIwFQoLiZxSlmzrIJUgcrHjFWhcVWl39s2IPtz6kxsDBchWFYfkS3WmW0FhspT4vBsMo0vn+KMe02/tpr45ZviTG18CqKsM009cs2f6gi5bmZjNIoceLqxwVX8p+xkWvjvAik1X32Ipj9zJsD1pMTSSbWgpTaJGUQ3iapnysSTtuyWlfmoN4lqJFziapA9jEp8zEvlgQIYrkOKDP2ucTVQ/vUp8xBHKHOG3446rYH6yV+YicKTaEik9WsMLlOxlQZlWD65mr9UXaRfJSrwcBXuatDZkaRlFTyZehy7jlylKmiRz8sRsfGSVDBtesD+QH+X/AA1RjWYb3+HW0k2Ci2L2+yEQlwamD2kXapVJuempl5pRDbi1KsoW0JJhqlYKrDUcYJNywYU6yUFJQopNuR4RydbxQagfNbhCiFA8eEI5uvhB02GgEMRqD2OqXnsBtoKC5LeGu2FtAbJj3OYUG5dLY4JFrdseM+xb3szgcSjKRn8NdX01WGqUR63VJGry80EeB6DjdUcknqzojsfNDapshrOH55U+1TXhJrVdQQ2QE9oA4CNC7IZPfYNp6h0vcxrHqGJCEyKsjaHUKHkuag98eSU3GDOz/ENphlLdJmF+7tN8Gz9en4xzjprVZ1YpSew4wjTbaA23JLcxRQRb3FzXziPLVKA1Gserbep6TqCsPzUjMNzEo8y4pDjZuDqmPJVKOa1ujFMdiUtwc10nlAg8IILDvgM3LlEyIp1wF+le9oKDm0v5rwVSstrcIBB8wKuHYI64SDe/DSEs2Y34wKlWOsABs19LQCzoqOzcOUJ7zUwAdmI15x2brMATlFxqIA+mGAdSuYgLgjUQQemOzX7YQwTYXtAE246wBV2QXXv7IBhhr3QW57o7gLcoC8AgTe9zBFQOqdITVfvhgdfrgizAqPVBFQyJVdoN/Ecx9k2YsNH/ACpkDxBYQfgiu7QFBNEmDa5yGLDSejSZEf8AAR6olwR5H0dppBRHQEgc0Bm/ygpPGOvaERDqV72CKMFKuY1gilcLCGAY8THX48oJmJgc0MQaAguY90dAAa/b3QZKingbGE+2B180ACgScwB0PDWGtVSW5SZSeIQoaa8jC4J1hpUlfQMweptXqMMCd9i65NIxxhdclLMzb3iuYO7efLKbdEE5ghXotGyVT2I+IotL89Wc/BoyF7EhP/1Cw2CeFHmTr+9xthdotMDGfEX2INM9iRR/Kekj/qrv4NA+GYkvpS6QO+pvfg8TNoDLAcJE+F4lsPpbRwf+YPH/AAIMmbxMq30DRh/DXj/hRLp7YEDXSAREqexN+p6N/LvH+5Ab3Ev6VRQf2V4/3YmvVAW1h3EVXFCsTe1WtHLRbeBP3sX723auGnGMWycuahiqnSyPLe3iUm9tSAL388bqxUq2E62NbmRmANP+GqMJSEwtnF1GcT0VpW5YnsTf1iKpmx6f834Lg5g17DkvNzDwcbaMo8N2tQUAopITz67RXGyQkG9iOfUYudfrDtQo76FusuqSgmyCL2B56xS0eSbDTjHPFt7m1JJPQOLaQCtdId09LOV5Tq0oWUKSjMm4F0q1772A7zDQ6WPOJkCEq2mLMLm1zv3bfyZjT+welzU1gOWdbrlQlEqffsyymXKE+6q4ZmlH0mMxVb81WFzfTwlz+zVGr/Y967PJQ3uA/Mf2y4vhuZeO+F+S8GiTv+8VUP7mW+ZgviObzfmhqvolvmYl9YHzRaYJEihzQ/8AMFWP83+Zjk0ObzH8cFVty/I/zMS+sGTe/CEMh/EM0OOIKqfOx81HGhTA4V+q/wAZj5qJnXqgusAEUmhzGlq9Vh+6Y+ajPHsjpFyR2gUrezszPZ6Qs5pnISn3caDKlOkabva0Zv8AZQKy4+oZ4fShz+3TClsduE+MjyzA8q3UqhUG3ACG7KCSOOqh8cTNaTLMyoQwjIStObW/kg3PpMQGCbS9Qqjqni15JSoC54q0/wBdUS1XcD6g4Dex1001tb1RyvuPTRtluRfC8GSlS0qUlJUlIuogXsLga+cj0wXvhxLzTSZR5lbSipeuZKgNbi1xbgLH0w7kRAa2imt2/FamrGwUwi1/3EXPSKShxSdrEwL2CmEA9uqDE0RfBe2ZphSSw+lYypKkKRyJJ64ItSboSkkpCUi5HGyQD8MHl20JS6pxKSlaSgZr6ag3HbwhIqDbgsQtINxfgQdfjiBM6/S9UVbAJKpWYSFqbUKksZk2uk506i4I07YtGbXTSKrgdQTLz/MJqTotfqIifBVI3UzQar4O3+Ouo+SOEpKdX7DBva/U1f8AmyreaXkh/wDrxLy6vodqxuCkH4IVzCLzzDZCJw5UCeliusW5e5yQ/wD14IzRJqYZS6MSV5AV7x5Es2oakajcXET6TrprDaRzeCoumYSbq0miC55R4kE+bXhaGIifazMW1xJW197rF/gajvaytSulX62e6ZQn1IETuU9RgMpJGh9EAGE9p0v4K3ilnO46G52YTndVmWq0ydSeZMOKen6Xyf7Cj7kQO2Bu0xi9J97OzJ1/ZzBaWfpbJ8/cGz/VEUyPR0+1fYeJsq4J7IUqteU5UlrZJbU+ClYWb9E8oT8kHSDz9FZEwpQWHH2gQcoNrcePOKjo1KlSxlxVXdLjPp/FTGwcDUN53DNOWK7VmwqXbORKmQB0RoPcr27zGPaa4Tiquaa3/upja+z65wjSSNfoVr7gRdyZmLftQ6OHVqvmrlYPdMIHqQID2tj31XrCx+3VJ9QETW7Ubmxgd0r60nzRIySDOFmXDc1Gsnr+mbw/vQp7VJXKfoysH/q8z8TkTQZWfeK9EGU05l8g27okIgfapJW1mase+sTfzkIqwjIFVy7VP6Xm/nYsSmV28hXohFTZB1FoAuyoYowjTvavVzefJTJvK6dTmlDyDyLliIyQ/MbjDrTls1i30e9Q/wDmNo4qCfarWcykgGTe5j9LVGLHUB3D7KeI9z+6ERlwaeDeki31CaTN1R+ZStSQtZcyA6cbwVJ101gs9KmVmVsFIWW1FOYaXsSL90CgWuL3MUmqDqBxuYOk2FhBPNHNjW8AGrPY1U+l1bZ2JfxmzJ1luoOqSzvkpcUkpRY5SbkceEaFlZeaYl0NTTqn1pFgpYsYwJg/ElBk5MU2fq8rI1BSisMzZLaVIPA51AJ4g6Xv2R63Q8ZYjwy2yqQq8y3Kq1bSV71lQ60pVdNu0CI9H5kWqWliuUPEzlboyFKeWicT0brvunj1A/XR5ltUeW5KuqIyqseja+sbnr2BaRVqQ9TX5JvwZwWyoTbKeRB5ERjH2QWAavgEFEwpc5SnDll57L6EOHkrt4H4IhKcJTeVWXBZZ5dTy3BtQmJyjPNvuKcS0/7mlR0QCkXt1XtEupWY90QOCcyaTN6aGY/uiJ25HHugIrYC/McI7ML8YIpQ5iC8yeEMYqpQHC14LzOsE4wRXHSAQfeEdkDccCLwmbka93GASeXAwwFUqPDgYLxPHzwHIA8YL5NzBYYpreCqJ6/84LqoWEAntgEG07xHdXKA7ecBxMAwxsLnjBQrNygCrL26wHdoYQBu6Av1QHOAzdZgA5SvMYKbW6oFSuuEyq9vRDEcryYTUqOVfS5gqjAIqu0IjxI/+xmLHST9K5P9hR6hFb2g3VQ5hXII1MWOm6U2T/YUfciJ8EfmHnKAUojlAD4Y68AwecFUeqAvrHdcIR3wQWBMBfSAAI7hHHjAXhiOzeiBTzPCC6x14BhyLaEWgM3SgmY5oH1wCDX88M6sr6XTWuu6V6jDnMbdUM6qo+L5nkd0r1GGRLR7Fczp2gUAyCJdb4o8wbTKlJTlzI+tBN42KpWJVX6NGQe0vK+SMjexIAZ2kUMKuUqoUwoKtoOm2LX642qsBOsXGDjPifggk+2b3y6Mn96eP9+DbrEvHwuip/gTx/xolcqvCA5foZMuXtvxhYQHCQoZxIU6z9GB7Ke8f8eALOJ0q/LKj27KW9+EROpHOOIMAiEMtiblVKPb/lTv4THCVxNzq1I81Kd/CYnE98D64YFQxVJ4kVhOuXrFLy+Av3y0pwEjdq4HwjQ+aMY0qVE9jqhSy9EuLUnsFykH4CY3ViwhOEa3cgEyTyU35koIA85jBkmtxjG9FU2cqkKd1va3Rv6wIpqGz6fz+D0ytYPlKJT6hOBtLLi2HE9E6XIIGnnihNq6Iv3Rd8QVd+o0d5pTyXA22eiEi9u2w188UdHkgGOeF7am3UtfQVSCoEAE90Bc6Q6kXEIbcSspShaklWbNmsArybc9efZDQcuvnEyshat+anDB/wDUuf2So0/sCoLM9gNp5c1UW1KmZi6ZefeaQDvVcEpUAIzBV/zU4W04TTl/5JUai9jfWpRzC7lI36FT7LrrymRe+RThIPw2PfF0dzMxybpO3k9F9q8t+rKsR/zWZ+/jlYZlTxnKt/S0z85E0W1fWq9EFLa/rVeiLTz5C+1iV/VdW/paa+cgVYZlT+iqtx/Xea+ciY3S/rFeiBDa/rVeiACHTheTI/JNV/peb+cjlYXkv1RVP6Xm/nYmd0v61Xojiy59Yr0QyRBjCsnf8kVUf9Xm/nY8A9kfSWaXjiibl2acDlLdJ8JmnXyLPJ4FxSiPN1RppLK/rVeiM2eyWcE7jOlvszLBTKSDku7Lkq32dTiVJIFrZbA3uQdRpEJbHZhPjI812etpn6lVmVm2QdEEXB1OkS2IHGEyqG220trCsqikWvbmfSPRFdwiEy85UXVFac2Ugo48VRK1SYRNpzg3IVrftH+UcrvmPTRtlIw84OllSmysFNgSLFQvpYmw88FvzhwxNbuVWySsoVm6GboXIAvbr0+AdUS1EhAExRz/APddw3Auwg2t9rF4/wDiKK5/92CTp7g3z+1icSEi/ImkhK2XE5kWNuRBgjikqtlGlgn0C3xQKkpbSpazZKyUcL352+CAVokAWt5Q0sdYgTC2N+EVLB9/A6xqU2qL+qeWo4RbEnWKng9O8braAQgqqD4zEaDWJLYhI3XL4XJk2Qa3WlDIP0YBy7EiA9qbd9atWiP+ZOj1EQvgvEEnirDcrPSDheZKcirghSVjikjkREvu1adE+iOhbHlpJqTTINOEJS+tQrZ/6zND1LgrGFZR5kF1yuMqzKGRytzRNgSAbpeIsQAR2HWx0ifS0s2sk+iEafKuNS5SZZcv7q4d2XC5xcUc1z13zW5XtyhkSK9ptO5vVUntrM4f8WAGC6UpVlCoK681Vmz/AIsT+4Xe2RXohrUJ5mkyL83MHIyygrUb20AvCGYl2wSrcjMYulmcwbamphIC1qWdHTxUSSfOYLSyPFkl1bhsf1RB9rU7K1VeJZ6UdU4xNrefG8byWzLJta5vx46X6hCVL1pkkf8AgI+5EUyPSU01FJ+B8n4IJUq1mmN2lO6WvVZTqSILYi5AvD2oUeWTMKypUXkN3zKHZrbz3isuKVTdMVVwjkef2qY2FgPCdPmMK0x1ap8qVLNqUE1OaQm5SCbJDgAHYBGP6bri6tgWFz/dRGutiuMJPEeHU09kLRN05ttt1twDUWsFAg6g2PbFy3M3FJ5NPJZfaZSSOk1NK+3qEyr1uQCcE0Xj4GpX28y8r1ridcAb8opTfXpECEVTkukdKZZTbjdxPyxYZN2RPtJoJteky5+2BPrMCrBGHiBehyKh9kwk+uH66zTWfqlRk0fbTCB8cJOYnorYuus01A+ynGx/ehjuMfaLhv8A3fpf80bPxRysEYc0/G/Sv5i197CxxlQM1lV6lJP7fa++hNeNMOJ1OIaTb9vNffQC1GGIsH0BvDNYLdCpiVCTeKVIkmwQcirEHLpGPXXlNYdbWjiAjj3iNaYy2iYfl8OVBtmryM466wtoNS0yhxZKgU6AHtvGUpmTS1TEyySp1CChF12zHUa6RCRp4S9mWaoVY1SaQ642ELSMqUovbiT6yYKlRPvtTBZqTXKzzsqbANqIzK0JECjRI64pNNCkGQNBygvbHJXlueyAYD2xnGW0ZD1VwvRHa8zKI3T8vJLSuZRbXNub51DXikHgYpUrP4m2d1NyWbeqeHp5B91lHAthV+pbarX7iI9WwPtNrmzfEkpP0F9TM0bIy30cBNspEfS6n4Na2n4LlmNotLolYUtoFKXmkPZbgE2KhdJvzFoHVcN1oCjm2IB9u8VvFmF6fiyizdLqksiakphBQ42saEfEe2LU7r2wzeb4xws7jAG0DY+7sbqztOTM+FU2ccU/JuK8sIAAKVdo0156RUioX4xoP2YSSms4aA47h/7pEZ4V0tPhi+Gq1KHozr37NYC/IwXhpARYAbhrfSC5vRA8+OsEuAdDAAbTLe14FKuHXCfKOSrs1gAV0gpuB8kFzawOpteAR3dBQesmBKuqCqI4HhAMNfL3QFzm6oJppygb9esAAns1joLzgMwEAg2a0BmPdBdYBR9MAAHvgtyD2QPGE1a8oADntgioG5Op1PbBVKgAqm0IfSN/ryHzRY6d0afKD/go9QitbQulRZgEabuLHTz9Ay37En1RLgjyO83ZAZuyAvAGAAVK1gOPPSClUdoYQw1xY9cFubx1xbSAgACOvaAvAa8zDEGBjtdYJ2847rtAAa/VHJJ6+cFUYFJKTcGGINmhlVyRTZog29yX6jDy8MqvrTZr9iX6jDAlNh9UqLVYwzJ0l/dzqkpdyqvlDaSAsqAIuOAtfW8baSziRTSCKlSBpw8Wu/hEZD9iTSW6rtIpgcFkS9Cdc0+u3jYja2Xd2SOAiyJhY5+9IhUSuJOBqtL430pjnz8HTK4j/Xin+amK+eiXhRPGJGYQ4ka+rjW5VP2tNHxuGO8X13iqvNfuacj74xNi4gNYBkJ4rrZV+aEjrtIMwKqTWCPzSPJ+1kmPjSYmhxgTwhjPGfZA4arzmBTOJrb1RlpNzfvy62WmvcwhVyMiRci/A9sZmpiUu46ojLlkodcUlR6hpeNz43kW6jgXEMs6nMhchMD/ALaowfL3OMqLlVkJU7lI68unrimp5NvASvFx8HquKaczIU2cfsjMppSej2i3xx5w0ropv5ot2IZp8ybsrMPqU8239TV70XvpFSTyjmjtqbE99BdpCnErKNQ2Lnjrr/o+YwQHs4wrKvIQ0tKgLlYVqL3FiNDyOsIg8L8eZiZUQ1U/NRhnn9EucP2JUe1ex9wuzVqhM1abK3G87kshttamwAFC5JSQSTbujxSqOZsSYbsLfRLmvP6kqNTexslU+0FSwjpGdmNf3Zi2OrM/GScaTsegqwfSFG/gy1d8w6f70FODKNzkr97qz/eiZN036x2wClBPFQHeRF554hjgui/re2R2qUfjjk4Nod7+K2D3gn44ly8j9MR/GEFMwyni62D9uIQyL9ptCV/smV/iXgqsG0H9aJQ/vYiVM5Lp4zDI/fE/LCap+W/VUv53U/LDAjPaXQFcaPJnvZEZs29UZjDe0iVlZJhLEpOSBmS2nyUKSoIskcgb37++NR+MpMcZyWB/Zk/LGdvZOLYfxrht5l1t4+LphKi2oK/PEHlEZbHZg2+sjznZ+W11KppeOVKQMpPDUn5Il8RuICW2w2lFri4Fr24euK/hPdtzFUW+0p1spSSlNtbKUPjiQqU8mc3WUKSlF9D22t6o5XfMenXaR+vnhZlkuMqczJSkXGvO2p9YhvzN4eSs0pmVLNyU3WRqbDMkJNxz4CGRQh7098UOYVl2r8Lky6PUIvvvbRQJw5dq6CbG7KO46f5ROJFnoHhhZ3iFJDjJJJCuA1/zhPeBzkQEgJAJ6haFUpShtxxYUoZynTW3CENOKeB1F4iSBin4XcMuziNwdJTc++qx521+KLf74RTsP23OKU8fo1/1GJIhI2Jsn2eyEphKWMwmbU7MJD61InX2UqKkg3yIWE8LDhfQRa1YEoZPSlHl/bTr59a4mqGyU4dphSiyfBm7WH2AhZQCT0lAfbG0Xx2PLzk5SbZXjgLDyuNLbX+yOLX61GAlcAYfUkl/DlNQvOsABG8BSFEJNyBqQASLaEkXNrxOmbl2/KmGU97iR8cM5WpU2RbdSqbpcoFPOOZWZhABzLKsx4dJV7q7SdTDsRuNfxPcLf7t0n91JNn4oSmtm+F5qVdZ9rtLRnQUhbck2lSSRxBAuD2iJJeK6E3fPXKYi3HNOtD+9CKsb4aQrp4jo6T21Bn76GS1MVbRKS5QW8UUxxSleBuPMt5+ORJ0v16QNHJNIktb+4I+5ETO3SdlajiDGT8m+zNyzinCh5hYWhXuaeChcHXqiEo6r0mROn1BH3IihnoqTcopvwP0WNwdRaOqFYemZohdgtSb9EWvBW+esO56WZbmHG7WWgWzKtr2RWXFOpp/HfWtOen8VMaV2L4JpDlMM3P06Wqb0ylKrzbCXQ3pwSFDTj6ozTTR+Oqs2Gptb+KiNebNsTYeksG0tLtbpUu7uEBaHJ1pKkqsLggquDFy3M/FNqGhaU4Nw6m4Th6kj+ANfewdGFKG15FEpqftZNof3YQVjrDSb/jipJPZPNH+9BVY5w2tOlfp37mZQfUYsMjUkUUOmt+TTJJP2ssgfFDhuQlWdESkugfYspHxREpx1h48KvLKP2JUfUIN7dqLa6Zxax1tyryvUiANSY3KBwbQnuSIIokcDYRE+3GlK1S5OLH2FNmT6m4BWLacrgipHnpSJv5qANRHHUkaphGrMqFz4M4oaX4JJHqjGJnHnsPtPuG7y8hJSLe+HKNmz+KJJymzgEtVVhTCx+VM0B5J624xlKt7ygy6LXBCOPeIhI08G9GW+cmnZycffdAKyrMb2Hnt8kESRcHtg9SSWKlMS5JSAohFxxhHNl0Op4xUaYZSxpawMJbw2OYkDsgqldQhFxw5fPAIvexrCBxptKorCkZpWVBmnzbQhKjYem0b6lX3GW20BxYSnlmNozr7EHDLXtZqFfIG+cmFSY04JQAr4c/wRoptMclR5pF9NWVyTKgYbvCFB3wk7zis6DKnsyLis4Y5+4P/AHSIzqSNevqjRXsxrmtYYF7jcP8A3SIzqpPA8xF8NiqW4nxVfnHZtQOcBY90d2kaxaRBJ9NoLzuBrHJ56R2ghCOjjHchaOhgAeIPGO7IFQ06oKOjAAObmeMB8MCBpprAQDCnu46QKe3TnBVX5QXncwwFDeAtzI1gM2vHzQClaxEQJPPjBFc+UCVDnBc0MADBTw1gxOsFPOGAF4IrhpChHHWE1wgKntC/KV/tT8cWWQP0DLfsSfUIrO0IkUd37XSLJT/yDLfsSfVEuCPI56oAnrjtdIBSjCBHEnLAJPX6YD30AT1wEg99IKY46wB5QxAXgCrqjoCAQOmsdzgBHXgEDAwTWOgAPeGVYV9K5sct0r1GHWbthnVlgU2aufzpQ+AxIC++xBl5x/HifAJpmUfRQFFbjzBeBTvmxYAKTr23jWypDECla1qVH2tOHxuGMsewqbzY8ml8SnDw1730fJGx1N31EWx2PP4z4pXvFtc511IPWiQbHrJgyaTWb64jdt2STH3sT4ZJtCcsFvMpWtstquQUq4ixI+K/niRw2Ig0arcfbLOD7WUlh62zAJo1U4HEs+e6WlB/gxOJbX0ri2undBgyf84iIgfENS1viiqfyMoP8CBVQKipP5p6qO5uUH+BFhDHpgdz6IYymYiw/PpwnWyrE9VUkSL5KSiWsRu1aaMgxiqipQ5tDw2lwhLKnXM3YOiY3piptPtVrafrpCYH/bVHz9ZdRL4tpCnFZEpS/cjj5IimZsen/N+D2XHErLtUeYmVNoLpQfdE6lV9BHlqVdEcjFjqs02/Tnm0uuKXkv0rnnfzRWUkaEcTFENtTana+gu20t5eVAv5wPXBc0c25u81tVKGUdl+PwaeeCKVxtwtEyBEVZX448Nc/otd/wCTVGmPY84bo9SwOuYm6RIzcwqcfCnn5ZC1my9Lki//AMRmOpEqxFhu/DwtQt+9KjT/ALHbEFLpuCVMztSlZR7wt9W7edCVAFehsYsjuZ2N+Fp5PSzg3D4VrQqZ/Mm/vYN7T6DxFDpo/gbfyQurGGHuPjqR/lhBfblhwi/jmUI7F/5ReYGViQwpQxf6S07j+pG/kgycK0T9ZqeD+1G/kgfblhzlWJU68ifkgDjbDiTY1dgX7FfJAPLLwccM0rlSKd/NUfJAe1mlfrTIA9ksj5I4Y3w6m/01aPchf3sEcx7htu96o2P3tz72EGWXgVTh2l8qXJfzdHyR4J7JqmytPxRhpUrKsSxXIzObcthF7Lb42j3JOPsOfrogn9hd+9jwr2RNWlsRVugzdNcM3LSsrMNvupQpKUKUpspBzAcbH0RGWx14VNVkec4MclkuVAzi9zLpQRvFaWN78erj6Ie1maQ5LS7aSFJAUEr01SLW9cQ2GZxtlybbLAfN/JUdL3J9RhxNPLecUwuVVKqYNwDwUlQBBGnDSOW2p6VP22ETbS2h5wtLspfS5dwoKElXk3FgNNb8zYeeETzhRLhQ0tItZViTz05fDEhBFGyeHCKBUMyNqjXUWEn+qY9AVwEUCppzbVGdD9QSP6picSMj0BuaUzMEJF0quCkwlvC4q9so4WA0hy2yMzjhuSFkBKT0uWvw/BCDiQFgp1SoBQ84iJIKTrprFOw6rpYqH/rXvhBi4jyhFQw4nPNYpQkZyqbWOjzJvDRBm6MO7P8ACr2GaQ8vDVHUtyUZUpSpBokkoBJ1TD5Oz/DCeGGqOD2U9m/3MNcKY2oErhKiNTFXlW325BgONqUcyVBtNwRbiDyh8do2FU3vW5cfuV/ex0LY81OMsz0BTgnDzdsmH6Sk9ki0P7sHkKDSVb/LTaSrdvKQPBpZvogcEq00UAdYRVtMwk2o3rbJtro24eX2sM07W8JS6nt5W2VhThKN1KOpITYaKuDmVe+umltNIZHJPwWRFLlGfqcpLo+1ZSPihVMuhKtGmxryQPkiqK2zYOOa1UWsJ1JTLuaa89IJ+LdgpP8AtF1XcwfjMA8k/DM0+yQlSzjDGOlg42Fi3bLoMVCj2FJkOf0O39yIuXshq5T8SVqvVSlvF6TmJMZSdFBSWgggjlqmKZRdaLTzfXwdv7kRVLc36N8kb+B+nugk1OuzEwltwZrJBCrAQex5xIziZeXecbc9zTlIQtXFSraDvio6bFJkDbF1ZI4WH3CY2vsrSn2gUWyUj6Fb1AGvREYpkQRiyrgDq+4TGqcA7XMK0bCNKkpuecbmWJZtDiQyojMEgEA94i1bmbi4ylFKK5PVrq0F4Dp69M274pLu3LBidTOzCj9jLn5YR/F6wckE76c/kBr/AFonoZnSqeGX7pgXzKPnjumeKj6Y88e9kFhJtVh4c4m18yWEjzaq/wBWhD/xD4W1IYnz2ltIv/Wh6D6NTwekdI84DIeNyY8zc9kVhxPCTnlfuU/LCSvZG0EXy0+cPeoQroOjU/pPTZhsqlZhP1zah8BjCCEnxCwjgbo4ae+EacPskaOFflPNKRwPuqeHdaM8VRthl9SZUkShmBugtNjlK9ARfjbSIyaO/C05QvmRIKmHlOKWtSlqIJK1G5gw6yeUHqTCmKvNITqyHFBIHAC8JfBFdzSCqtqeMJKIyi8C4biwgiugALXMBE2D7ElNQ/EqmDKym/b8av8ASzWscjeke07qt8RIJ/lP8o859hSojY1Mj/8AMzH9m1HvYVHLKOrOmL0IlSRDWYVlHHWHbsRk4q3CKToMlezgnnZOaw46yqzm6cSDoffpvxjONDZxNiCUnZum0ufq0rTU72delJfOhpFiekQnTgT16GNB+zkUSrDhtf3J37tMV3YFv/avhqblHN3TqRiF6fryg6EJbl/BxlW4CRdNkup71W98I6afaUS7jwml4gmpiqyzTrxWl0qBTlSBoknkOyLTm/1eKBQ1heIpAoT0CXCB2ZFW+CL7m06otII4q7bxxOo4QXjYWPGB4G/KEMNfTtgvG9zrHBXGO5QwOI58Y7MOqO4wGqYADXgpVpprHK6oC4txhABxvygCSO2BvmgvbaAAO0aQB48YHLaCqTAAYx2nKA1y6xwVpAAEFUo5euOzXvzgUk50nQm8ABe2CK9MPH0N5jugcmTq584TmEKS22SmxOosNAOqFcZStoCb0h4W1sPXEumsS8jKybbxUFKZSeiNOEQ+0QlNLd5G0NMQEqckQk5T4Mjuia2IPctCK/IKUAZgAWuVWOkLSlQYqCXFS6lKQhWXMU2v3RJ7TcL4Xo+yXZ7U8OsTCpiecnW6hUJqwcmnUBg3CR5LaSpQSnjbU6kxVcHkGnvde9PqEFhE7HR0BCGGuILfS3KOvAGAZ3VBbwPC8AecAgbwAJ5wEBmgEDm5QORagSEqI1N7dXH1j0wnziTlXFJpL7Wdtth1fTWtCz0h5IzAEC1ybc768oL2GM25d55S0obUtSAVKAGoA4mI2sK+lk0eW6V6osU0xuZyo7h5t0AKClNoWbJ58tL2tr1mK3WulTZgct2fVDi7iY62U7VHNlChOSEs47UHpFDK3CtGXd57hOVQOtwTePSXPZjYiLRKWGwdNOhm+BP+rxnCYzFMukHL9DN+bVUeu7RPEExslpM7L4WksMzMxUUJoZbv4bOyKGlpmJiYVfppU7u8qiBqFhOgi25zSowm7yReab7K/FNYaeUgJY3awk5sp5X5AdcOv/EpixWm/bv3R4Lg/WVnL/po+5ET4EJydwVCl/SerOeyOxY4TaZCO5S/voSV7IfFv6sUL6fVXPvo8vgewwZmHQp/0o9Mc9kDi5xNvD3B9q66P78JK284u4+M3r/szv38URhCVU54BlS3zoh0J0SNLg9p6+Vu3RVyW8FVUEuMKzZjkUEA5AM1x2a5deoRHqEuhT/pRcZvbhimel3GHag4tlxJStCnnSFJIsUm69RaPLqg4pOIqSpF0Ks+rMB2JMPB2wzcucVUa6VLbyTBXlBUQnILmwEDZOMIx7VYtPjlp+RfKUa2CBrqCTaGTfkw+fpcrKSL5Z3OcqSVbs9JVlDs74Y3iouf1BzaQKlXB05QXu1McpXEmAiQ1RSVYkw2D+q1f2aobLxRiHx4/TJGcm1qM0GZaXZ1UpSsoSlItqSTbzw6qRtiLDZA08LJ/wC2qIqRlVzm0SXYRVG6G47UUJRVHFFKZRRUMrhI1ASbG/LjFsSDLDix/GuBZ9NNr66lS6gpAfRneQsLbJKbpUm6VC6VC4OhBB1EL0fEdSmqSw65PzLilZgVKcNzZRHLuh5tu+hpPA9Ofap8lUpCkOMTcjS5tM0yyszTywreBS7qcC86hmNirlwFfw3+Z+T/AHfH9kVD4CyuT/jqdVxmnrfsh+WCmsTtsvhL1r3+qGGkcbREB344nctvC3z++GDpqU8pNw9MKBI1znncD1H0GI+3G/CJSVbdclZRK0rTKocDu83RIBKwkm99b3SPMO2E3YklcSVUp5LYUXZgJUAQoqUNDwhNyefeSUuvOLT1KWSIO9dmRCClRRboLU2R0SUm9yedk/6MMc3mhXuStYa0uackZ+pTSSSltTd+wELv9yIstQmlvTEqFm4UwogjsKQB3WJiBwlVlS9brzW7C0IW2CoEXF0kjTvJ5xMz0wJp9laBZKULCswsbkptbjpofghcgthM2zQZPV5oII4eVccIYB1Hrjz+pJP4qssQbXYT9yqL+YoNS6O1SUUebI5fYqESiQkXtbjrM4otk8DyvBWXi8VlVrpNtNIVU8G5pxSkrI5KRY6873IhNtKd44pAUEqVmGYWPAcdYiSDpSYpVDeUy9jBxCilxuYcUkp4g2UQRF31y8+6KTTPqmMRl6W9cNzzGVUSiRY+wXR6/jzFFLw7R3XpqqVJ5LDCHHlJSCdSpRHBIAJJ5AGGTc1Nt1VDD7ryVJfDa2w8opuFWI1Ooi7+x/x9QNnuLEztdk5xZfelG25+TfS2ZRtL6VulQLaypKglObLZWVKgD0jFPxA/IzWNJ1+lh1NOcqJXLpecC15C7cXUAAdDxsO6LSPBZzfkbCA1Vx1g1teyDARXcY6o9NmqpOeCSdt+4g5UXKc4FiRfsAKteOXrsIKiUzFgl1Ibd3nuiQSAE3ufg52A5kDWH2HZGYqVQ8DlmlOqeRZfTUlISCDdWXW1wNOu0PZWcamkU9Xg7cq5vH1mYLrt0WAUpROcdvP0RU5NMsUU0VLFUuqTpdZllqSVstPNqUngSARcdmkdRE/SeQt+kIt/FEKYoZW3K1ptebOlD4ObjwVx1PrPeYSw/wDlHIDnuECx+1ETWqI8j/gLRHzzzz00kO5lobOYKV1iJGFpxSZhhLe6bbXoS4LqPdxtCAqsh+a+sc75T/UTD7Z7hWb2h40bozc0+wHBNPuPMS6plxKGm1uEIaSQVqOTKADxIhjTyRjKrAnihKv6qYTwnVpGk4ifNTfqErKutzMst+lPZJhkrCgFAZkhYB0KCQFAkXEWEBTFkinD+Ip6nMzE1Mtyaw0HZ2TVJvXCQVBbKlEoIJIsTyvziY4d0Ru0LFDGL8Uuz0qZgsplpWTZVOLCph1LDDbKXHLXGdW7CjYnU2uYlFAJVbq0gYgDe8DrA+uBhALyMr4Y/uy4GhlJzq8kW6+/h3kQozKsqN3nHEXTcBIF9HMpvc9VzAU0Idmsi7gqSQnoJVdXIWULRLJ3S32mHd0nKQge4si11qzXOXW2nLXzxXKWpYokHMJDLzqEkkJWQD1i8R9UQXpdtI191Qf6wh24qziuB10IhrOKOVgjW76E2AvoTEhEkrOlJyq0sYVvxvpCW7cTmSXVFKhYgpT67XhVN7dsAgFH/wCYIq1wSYUt0j1coSc6WhEMibb9hfONM7IJtK1lJ8cPngT+dtRdtt21uW2c4Pedl3N5VZpJalm03zAnS4HXfQRRvYWp/wDpFO3tl8cv69Q3TMMaPTjtq27TtZm07zDmFlhLKFapdmBqkdVkjpHtIjmne9kaOHyxeeauke7zFVlkJJLqRbrMQM7W2Xr7taVj7ExnbFG0ycqSHN0rctHgkGI3Du1Juj0kpemC/MZjZObt5xzkrIZey5Q1WKpQWHh7l4O7fUi3SGukZxdwa0w2psTDwGt0qVmB5XsRHqe1LGE7i6elJxbJfSwlTaUJ0skxQXq6VJVvJQl0mxUVjhp29kdEL20Oaa9xFyOFWKbONzLa3HnG0nKpWoTcWv6InlShbZ3hXmB4ZUkjh1xX6ljynyLihMOoYXzSViJ+hOz+KqSqapVKfn5Rs2L7S0hINuomLNeSKSA8GV7ncgBSSSddLcfg9cFVLqSkkEKOawSONrXvDOexK5IuBudl1MqSqwbWQLaWt6Ij3sdSDL26WtKXFEWRmFzyFoFcehOqYUlsK5/W27bQYyqvCN1mSD9cdBDzxbXmqaxPrw/OJk1pC0TCgmxTxHOIcYodbOcMLCwMuawva97QrsdhfdkouTZXHLblwMJmIWa2j0r3RLr7aHMxCiVC9+Y49cSKZqYcpIqaKfNKp17CaCOhfviaTfBEcJVYkkWjlHsiAcxpTmfLcyW+uIhI4+o+v0Uj+MIm4TW6EpJ7FizaX9XKOzaXEVv2/UjLcTKLfbAwRW0Cj5svhCc32wiOV+BlkLhjiqK4vHlJbSCt9Ivw14wZnGlPmG1LQ4FNp4qvpBYCw5o6/mEV+TxlIVB1bcsrfLQMygk8B1w5VXm831JdjCswJU9GDtPKaXdBIPWDaIdWIGxf3FfpAhCYxZLyqcy0KQOVzBZjui0uzDqcoC1IJQSQNLG8JTCl7ls5s1ybnNcnhFTG0CQF75jyMFO0KmjTUG14jlY8yGu0RP0rd6rfHB52iTVSl5OYZRdsMJSSRw064icSVxvEMuZdhCyF6X4R6BIz0rT6WJVTyVOZUJBv5NrE2ieqRDdkZXH6/VsGULDrkqy1TqO8+825rnW49kzAnhYBCbC3XCeHaTMyElkdTdS3CRkuRy0idmK9JzDZO8Qtee+tj2kk8SYMziCny7bQD13CSXE2GQCxsEjzwrvwOyGakKSopKVBX1pGvogFIULdEi4zcOXX3Q69sMg2goTuVi6iXFJAPSAA7rW+GAViaTVKvJzBbjjaWi7n1sOA7uzu6oV34CyGiUlSVEJJCdVEC9h2wKWXHlBKG1LNs1ki+nXCreIJRMuttSkpzXsEaDVJTr3A374WcxZTHFeS22lLZaQkKzAJ0sDfu+EwrvwPQZqbWEqJQoBJyqNuB6u+CQvNYskpph5OZKFOE2CSAgXKSTbrun4eyIw1aU1G+SLcdYavyIdEmO7IZGryn6cn0xwq0pxD6YkIeiHyakRSTIZEhCnN4V2F73HO1+Q527IhPG0tf6oIFNWl7fVNILXBE61VNy/OuJbBMwFWzWOQkFNxpxAUr0xX6yPpbMAfpZ9UKiqMK0BUe5JhWVp0ziqYFMpsu9NTT4KQlDZsNNVE8gBArIHqUcUOaqUnKPS6UOJUylsozlKtLm/Dtj07aRjrEO0bDUgzPUzDEm8hxthrwOVQib3TLQQhO8CMwbAUABwJHZEBg+Ybp0vJqeJTlQklKb62sbHUdXXEq3VGGJiTfQ8pTrequAyj61Nj8l4bk7kUiBw7R5imyjiHci3nXM27ZJXYWAF9BqYkrHMUkKBvbhrfqh1Tq0xJLIBSlshAKUHjlUFXOvYfTCzmIJNG5shtW7KDdQ+tHLU2v5+ERzO+xLKvIxU24m2ZtQBFxdJ1FrwCelewJ0vpy7Yet4ik2XG3R5SQkFSbJ4FJCdBqOj369kNGaxLy7Sm7JGgAKQADZKkjNpr5V/NDu/Asq8iu8HgKmQm63XAQcgvlFxoe0+qFi+wuXqRU0pTrrl2nMvk6k8e2COYikwuUWlpIVLpKWumr62wJtzB6WltSeuG8xXZV5D6UpyF0qNgrQZignTvRp2GFr4HcS05iI6amES+JKSXHEtDczGqjYe80+E+iHInmeOYAd8Fel6VVEoRUGETSEklAKrWPZEyJJCfljp4S1/HEFeqUpLrSHJlpsm4GZYF7cYiJjDdAdZUmXpSN4R0VJSSQYCU2e1xllp5dEqCJYH6p4MuwT18NIjoPUl26rIupzInGVpJtmS4CPXAvVOTTYeFM3+2EIuYfoyFKSmgNqUDqfBTqbd2scmlU9KsycOtLP7Rv8UGgWCK3M9VqetJS5uVZkFJ0BKkj1E+mDvYZplQqCnHWF751VypL6wFHgNM1hfTqEXLCOHJ+v4fxABRmpYSjku5TV7gMKcsbutDQCwCRY9aiL9VcmvGFFeDkxKuSq7n3ySe7QmEpcDy8ke5g+nHNdK8yVls2ecUbi+gudToP4wiQapqJbdsNhuXYQShOQlQ0J1te+pvx64iX8eMSakJdfLSmycpI1F731859MNGsbSsw8AwVOOqOgQk3Kj1ACJqM5aoTtF2ehaZmlrYzlLiXAgL5pF8qkg8FH68cdY7xWEzCG3HwgKdyKUE5rDMpN+P2J9I1iLo9Ym8VM5qc14cgqKDldTcHLmIIJ42TfttCNQrz9PlXXpllxDLLuRaiskIWRmBNuw3vwiu7vlvqT6by57O3kk2ZNSkhThCCqwSBZV1G9gbHTgfg0h6zJzLKpFBFkvgrJyKOUdFZNudkBKtOsjlFMb2gSbWYoevpZW7J4HugE4+YdKghSunqoa68Rr5ifTEssmQVi3rbcbkXmlISFsqUgq6RNgpJtxta6weHxRHiINWOGkNqSSrIbXTc2Nhp6BDZ7HUmykKXw4XCSYaixOw9p843SKzXlzYeaDymFNKSwtYcSEEKIIFtDb0iJBvFNNUrKXHEk8M7Sk39IiCb2oyrCQlLriEjXKAq3ohrVdoUhVWkIdcdWtJugZT5+PdEsrFsW5zEcm02FAPPJNvqLRWfQNY5GI5Q2KmpxIP10o4D6op2H8fU2nzW9Wl1DqdE3SCL9/KJ5vaImYF2n1K+1zaQsrHclk1+VcVYJfGl7rYUkekiKrVN29tIkXkru2pkDNbnZQt6vTEn+KApy7C3HnM3RKU5ibQ5qu0KkVijsNvUF5M7KlBan0upFnQNTYJ4Ksbp+QGOLEVqtGUOnTzJuzs1p9ddy6nThUTzSs1t9SRq1ZlaV7pOO7lC15Ukgm5hj7dKK2elPJHO+U/JEJiGsS2IvFjCpRwFEwJh5C0mxby8LX1FiTpDyYnsKshExLUGRKc1xmYWUpPIdIm/njsVimz4H/t4oxSCiYcXf6xhZ+KGuF2XEz1YmXGFIl5t4OMqcRYLTrfj8I7YsB2yVRtzdIWlsoRfdNMISEptfQAAAAdURFY2oP1aVaXNub1pKlBCsoGU2F+HDlDt4F9yeVgaVa8IU2uXISzvgUqWApsm2bhoL8L8bi0cxg9hmrLQFMoWgOKRMEKIcygk5dL3PbaK9MbSn1eEMLuVZDnRkR5OpOXWwJzG9uNze8Ri9qCUvB5Id3xGqsguQRbr6tIhafkleJ6FOUNVPVUEOvpU7JFKHEtpuMxCja6inSyeIvx0vxgz1F3Lj6PCUqU2gqHRsk5VKQq6ibAZk2HG9xoNbUKY2huTDGVx1xTZANlpB4ZrDj9kr+MYdM48m5xleWbcW28kJWlROoF7A68rn0wssyLlCO5dJOlu5pZTb+5mVPJSndm4QMxGbODxBHActbw6Zw+sKKBObiYRMlDfBOmdsBYGbMLpcCtBwHHqpFLr81PVGUpqHltJmXsgt5IJBBNu42j0+T2XVN5ksmvBDCtS2GCU8uWa3IeiKZ1FB+5lkLVO3UpFelVKZm2EqU4uYYzJU6MpOdsKGbU69LriFotRmG5CWlvAVF5llKD7okBRA1t6Ocevq2NzMw4pb1ezFRuVeCkk95K4VkdhoNSkpfxs8GZhSkOvtygO5skkHyra2trCWIp7XJOnLc8ubn5tXlUxxHap9s+owVdQmtVeAZUJ1JD6VGPS9pWzbC+y/DrlRqWKqi9MKBRKSLMs0lyZctokXJsBzVyHmEeGU7EFSqkylDKEpy/VVE5kjsHXF+ZNZuAp0Z1ZqnBXbHGGZ5urYgqU2ylSUOIHldgAv8EW9uRlphlpam2lPqXY5iCSmx1Oo6hpp366UhNRZpNQRLU9AXkRkec5E9Q7o9JwHg9vGbSku11umTuboSqpfOVpsNQoqAvx0i1059JVmrRFWpKjXlQzXa8Ea9T5NllBCEIG8UA42oKUUgnUpvp2cOvmIVcl5QMsnNku2LhHSVmsm58rtVppwj0dv2Ps5e3jd1XdKgf3oNNex1qq5dXgVUWuYA6KX2QlB7CQSRHLnj5I5H4PPJhmSD3Q3W7ud2oLPS6KrZhfQZssNX/Bd2EpTZSXF2Wgm5SQMt78hrEfiSk1rBOKPFGIJJ6ROit4kXzIPv0G1lJ7R54d4ow3O0alN1SQUuekuKybFSR1i3KLl9yP4HqvF+8c+sUgoTlBIBJNlceQy9fOD72R9y6DYWNMxSFJ4JvcBI6l8b6kaiPTNi+zLAm1LD6Zzwmqiaa6MzLpm0XQruyA2PXHpsx7GHAaWVbpqqF23Fc8q1+4AQ8oXMoqtmOXhfQX5Q2nJVcw2kNrDTiFpWlaklQuDfhGzsM+xl2cT0ul6YpsytxKsq2nqg8mxHPorGhi+U72LWyOa+p4ZLi+pVUm1Xtxt7rA/aK1z56L8Z2zeFsKtqQGjr8MFlpidqCBkfLRI8pKQbekR9I5X2Mey2TcQtvBsmpSDcb599wX7Qpwg+eJyb2NYAnUoS7gjD5CRYZaa0ggdV0pBiGdDyHzEVKzLKlpNUccKToS2kQrJqalZhLs265NsJOZTKl5AvsJTY+gx9LEbCtnDXk4Ew+T9nT21esGHTeyTAkv9RwRhxvqy0lj7yH1EHTKps/pdF2d7BUz9FlnJKUnqamruNuPqeyuvMIJAUrW3AW7IgMCPI2f+x3TUV9CoVkOTSle+Ut43v5klI9EWjby8Wtn6KDIpS3NVh9qnSzTYCQlJIBsBwCRbutFW9khKyuHdltIlpZa01BhSJWQlGwTvjYJtl9HntFEmdUeEZrrc3u6W8oqIGU3I4wrSZKSFHl3xKJWSjPnVqT2xDYiczUiYBOmQ39EOKXWN3hmSl1KbQgti5VxtCSRJonN2xMpTkZAatwQBrEVN4XpLi1OGmoUvmoiJejzCFpbZZebdP1qdTEg8k7py4sQDFl7FeU8mnqDRd+b0WXWq9jmTcmPScG4XdlaGVMSDsnJq6RSluwPbaISTZa8YZykKIPAx7FhuszjziGw0peRAASBpaK6lTKtEThHU8jrVPoinCl+QDxB0KkDjEUnD+HfCmXPEzDq1K6IS1dV4u+N5BlNceDaSgqIKkEeSTxEOcDGTZmHFqlwqYsQg28ntg6tlew8t3YLPJcFKYamZJ5mUSmyG1pIATyEeIbRGpWXqQMm0phCxZSeRPWI1TTZhdSl35ZxretIvmS4Li0Zl2s7tupTymm0sy6XSlCByhU55naw6kbI8twwzSqPtElZmrSaZyQnLtqQ4LgLPPvvY+mNUTE/K0ukIl/ASiRy2DaR0bRlirUs1ajuusKtMy/uzZHG44/BeNKbFa23jTZ805MFUw40jczGY31HA+i0XVJZbNFVLVuJ5PjrCeGa44rxfJPU+aPEp1bPmtp5o85ldiNar0wpunS4mHL6AXEaPXQZRbhuL6kXvyvHqeH6JJUDDMs9Ip+iVK90WkX9Jjs/4tWhDK1f7lf6WMpX2MB4w2T17AZbNakjKBzVJvmuPNEJTaf4TmSGHFuHostNJutxXUB1R9CcbUeUxJh1w1OXam2krHubiQdY80boVDw624un0yVlHCm28QgZv43GK1j5VI6xX4B4ZRe5m+i7IatWZpsTrQkG9M2+V0rdiRHsY2J0OYwrMtIaUkS7ROe/SUbcTHTCnhPGYS8ze9vKEWyj15cvh2ppcTmKmj5OvIxzynK12WKCuZHwXVJaiVaopmXMjZQW036wqLanFVOKQBMJPVHldQP0dNH/AIqvWYJL3C0akax15U1c5b8HtsumYnmUuMyT7jJGjiRpaIytSkzU3GJGVllGZcVYJUQIvuD1bzCsvbXo/FEJJ2Ti6XCuGeOLqu7Orp6IbN7GZiSl0vVOeSlVrlmXF7d6j8kRU5Q5SnuFDTQOXmo3Me14iBMmY8lqySp824RVCrKT1ZbOnGK0KyoZZjRNrRdMAT9GpdURPV1lL0gwcziHEheb7EA8SeqK/MUOabaM2oBDHHMTERJsu1JwzExduWbPubavWe2OtanLsWjHWMl7QsUPVo02UoFJaSGpKlyLSW0obHArKQMyjxJPqEefVqvlKiGlZbfW6Q5r9ZKvodjXlZMev+xX2ESeMK0zivFrBdw5JOZmJNYNqg8DwP8AwkniffHTheJq0Vdis5OyPVvYm7D6dgbBs/ti2qS6zTGZVT9Np84kKQhoj6utCjqteiW0299fmLZc2j46mscY3q+INw3TEzz5cZkZVAbalmgAENhI00SBc8zc84979lt7IgbRZtGFaI5kw5TnMz62yQJuYToAP+G3wHInXkIzC4kqVcXK1HgBc/8AzEI6u7JTVllRbtkOC5zadtBplFU6+JDN4RUHG1EFuXQQV68idEjtVG6qtTqC22G5WgyTLSEhCEJYR0UgWHKPHNjmBW9lWDFzU+dzWagEuzZ5tJAuhrzXue0nqh1XKji/FOG5mpYYp8w7INvbhEypBCXnBxSlXM6H0RRUmm9y+nDKrsub1Jp9zlpcvf8AYk/JCKaDJKOlNlx3IT8keVYFVtIrmJjKS1Bn6mGUlc0GGytLSR5RUrgLdse0Scnv2UrCrXFyOo9UV6X0ZamnwNGsPymXWnMX+1T8kOBh1m90yLA7bj5ImJeitPbopU6dLr6QsT6IXboz+QqXp3GDQZGtUttpKUiUlwB2j5IeNyob8mXl7d4+SG70ssuFNyNYcMSZzBOpiQDyXvwLMvb7b/KJunK3asyG2EqVofdP8oi2aetKQQBE1TS2i2dNjCENpfZfg+cdU8/hSguOrUVLWthJzE6knSJ+R2W4HYST7VMNacB4ChULqqDMixvCAbcrw1axQtale5BI6oTHZEkvAmD3ZN6X9qeHUtutqbKm6ekFNxa4I56xkVzBMrKyeJqaqVYTO099LKXd2CdHFWINus280a8p+MXW/c1NpSknyheMpV5dQnNuG1rDqSVSjsl4wlVp8pCllC9D9s4Y5K9OUrSg7WNf0+rTjKVKa7tPyFZwLTXKtiaXcbl5qoykg3OMuy+iDaynLJGl7qULdkZexvS5nDWNJ6TKl7h0l+WNzZTZN9O43HmjY1ERTJZnCuMJFotS0xMqptYzAg2eGVK1jkLkDvjPu3umJksYM0V1lSJynvKbDtrZkHTLfnplV54ro16jrU5x1UlZ/Q5KtODw9SD0cXdf3/seQLLvHeL1+yMBvndLuL9JixKk5aTUyLtPhV1qcUDokLtlF+dgYiZ1tHhjqkD3MKOW+ul9I9DmPO2HVFlVOLL6llKU3vfsjT2wHZ94jk0YgnFbmcmEncMrazFKVe+N+ZEUn2PGx9eLEoq9UQrxSyq7Taxo+scu4cT5o0xN08yaQBYJA0AjkqVE3lOujT+ZhVzqwPyVrx0ZT8kIqqTquM4q37En5IRUco0AggZU4ryrCKDrDOzi82k44ev3NPyQxcnHNfo1/wDiJ+SJJNLO4W4F3y8jEbMZE5gAIasAxnJp0sLtOzHDkE/JGe9rWJDS6xLywWpaCCpxSuPYI98SoTTqmgctuMeG7c8GTDzyJySlnZldyFBsXNu6LI5b2fJW7r3Lg8UnpwTk0tRPR5GJ3C5k2ZOcmS9upuXyOS9jZWYG+kQb9FnmRmdk3kJSLqzNKFvghpJqJeQUnLdYT6TG3Gap0enFWM2pJ1KmeR6LT8QzWBcQvzEiy2WZ3wecLNrJJFzcHlfMtMJJ2jINTe38t7g4AlTaho4EqOXzlBUk+aL/AF3Ze/WsLUpcmtnxjKMAJSpYTvUHUoJPA31F+2PIaxSXpCYXL1CVclHhoUPJKTfsPPvEZOWE5ZuTujWqU6bprtYfEdJlJWo7ylPIUw4kOtJWbJcaPMHrHAiGTDO6uQbg8D1xDzSn5VKJVaiW0Eqbv1HiImab9ESMupRyggjXsJi/Y5ZSUnsKKTmTw0iMrF0s5frjFkptLmatUGZKTZVMTDpshtHE9vYO0xIJwFVKsk7qSLoClICgoalJsefXDUo31ZVKeVXsefyqm3gG3dBwCvlhWYpbrIzpG8b5KETeINn1Vw9uzNyjjAcGZJVYgi9uIuOIiHlZqbpKrEZm+bahcGL5UaiWeGqOyjXoVFkrafXn/wBjHySM/SA5w9ZnlS9t3fKRrE02zSsQ9AKTJzR0CVmwJ7D8sR89hmfpi7louJvopIv8EcqrRbyy0Z11fTasY9Wi88fK/ut0dK1BKphJWtTYPFdrwuiaaVKKUHVb5KvqNtLW43gaO5TXlBieSJZRJAeI6F+o21Eei0nZ625RU1OUXLvJU3vLpubgEggHhygnKMdzEnV6bs0efNz0t4U2C+5uijVzLqlWXha/C+l+qJXxW65TS8yrOSbhPvSm1+PXxh87Q5XfWUxkVbpJtbWHkq0iVk92gAICtB5opc1wc8sVp7SnuzksmZUgl5KMvRKgMyVW4HsvCSZxjKnPvArOc4TwKbcR28YuL9Nl5p9Ti2UrWeItxFo5uhydgd0m17pVb4DElUQfrIW1Ke+40244sNvKlSCGnCmx7L8uMR6pgqcBtbSPU25drdFsNJLfv2SNO8QxmMNyE4yG1N5B71xvQiGqy5RX+sjfVFBRMFRSnUX4CJKmzLjMxbyBfUERPuYZTJqQM2dtNrKt1H/KCzlES69vmlWWTdSTFnUiyf6inLS4tS8RN0WtSM6lKXVy7gd3a72V2aR7vhfb3Q6pOS8o9KOsPvLShO7UFC50jwSk4OmsSVyWp8qttMxMdBBcJAvbmbRMTuB5vZhiKmzNenqe2Gn0KLErMb18gEHRsDN6bRx1adOpo9zQw88qvDY2A6pEuDmPCKNjrbtJbNlpaabTUKk4k2kEuWNraFZ96m9u3qjx/HHshKtiJ5yUoEu5SZZWm+csuaX3AXSj0k9oilU/CwS2uo1p4tIUreL3y8y3D1qJ1JjghQyWlV/Y3sPh6uMlkorTlvZC9Wqle2qYgerFXmC86vohSQUtst30baT71I6+d7wSYqTcqk0ykgadF2YHAdYHb2wlUK47Vk+B05sylPtZS7WUv5BE3QcIuSsm1MrZU3KrNkKIsXLcSOyPT4XA54rEYz201svIsVjqWAi8N6e81R7z/wBhnR6MmXQFLHaD1nri101xTbqFJKkLSbpUNNYbz0m+5KzTsogfQre8WOpN7fHAUeYEwy059cNYhjMV+o0StFbIwaVPJq9zV2wnHCMTJFDqjg8YNozy7qvz1I4p7xx7r9Ue3SdFl0uDMAdYw3RKpM0malZ+RWUTko4l5pV7dJOtj2HgewxtrD9WaxJh+nVeVP0POsJfSL8LjUd4Nx5o8+42Zoxd1qNdrmyyi7WMDu0pzJKVmWBfpdSCenLvjgL80K4KHUYyRg/EUp4DPUWtyKZKqya1yk9Jq0SFi4JA6jxjZpUpJ4xkj2YGCzhnFVLx1Ip3bFSIkqjl0G9A6Cz3p0/cx0UZa5WV1I29yPI5TEc3sV2hCqUZ1a6Y4qzrKTopsm5EaLk9uHhUu3MMOZmnQFoVfkYy3WFeMpfI509NCYNg2ceZpr7Bd1lXchRfXKdQe6O05kasc2zLykFWvWDHSm26ek1Nuy8wW3W1Z0G+l+2M7N1Rz65UH8ZLzDpGxMK5I+k2znaJJbR8KS9Ylcrbt91NMA/UXgBmT3G9x2GH9RnZ9iaG4IU0tJsVAEIVbTzfLGJfY07Qk4Z2jy9Nn3PpVWrSrlzYIe/O1+no+eNsGly6dN2Ae+OaW9i2LTDylSmUrtMFBSpN81wCk9XdCztUabSpa3m0JSCSSoWAHExFLbkEuuIu2FoF1AnUAcYRbEjMKKEBtzTySOIiOpI8oc2jUfHW3KRDM81MU+hyilMgHRb69CfMCr4Iqe0DGTmN9usgho55HDrYeCOSnO3zmPSJfYFhCRxoMTSMmuRn85W42yshpZPElPCPN9jtFYre0DaDNLF1pmA0m/IXJ/13QmuC1W3R4TiD8rZj7U+qIKoKIw7IEHW9vNYR0dEkJj/A7ziazo4odHkTHpT31J7zx0dEmQWxVZP8kn7YR73hXoy8s4nRzwcdIcefOOjo56hZTPJMRuKcqU6pSipW+OpNzC+BVH2xMi+n/wAx0dEflJfMeq4i+h6HNLa9yWWjdSNCYyBtcUfBSb+/vHR0Oh3BV7SpYL6TygdRlOnmi+ex1ecaw7i1CFqQgKTZKSQB0lx0dHTU2ZzU+5FqnFqCBZRGnXHr2ypxTlAfSpRUnJeyjccY6Ojlqdp2Q3IbaI6tuUdShakJzJ6KTYR5LWnVqpcwStROU6k98dHQ6PaKoeYNuKUoBSideZj1Cl/lHMjluj6o6OjqqbHNExtUj9HzH7Ir7owi35Qjo6O9bHFyaZwH+Zhr7URCj82Ep+yR0dGR8zNP5Uem4k/IZjymqfVB3x0dEKW5OpsJ4idXvKW1nVutypWS+l78bdcQNWJTJGxtpyjo6OyJxz3KhSUpdnCFgLBcQDmF7gqFxG8dp30n2Z4lRIfQKJemZGUy3uYaSEgWTa1hbqjo6HW2RKjyYjngEuEAWAAsOrSLHsjZbmNqGHUOtpdR4WDlWkEXAJB8xjo6J8FfJp3HileI3NT6Yd4Nn5lnZHQm25h1tvwryErIGpcvp5z6Y6OjKq7GnDuL3slqE1J4exeuXmXmFFLhzNrKTfK4b6RVtnbi3sMMLcWpaje6lG54x0dEaPcxz7UX2ifkRB53PriVPkx0dF73KCtzX5IX3wvKfVv3MdHRa9hE219TT3QVf1TzR0dEUAnUVEyp1jpfnHR0Jj4HCjoO+PDK+os+ygqYbJQHcPy4Xl0z+7J49cdHQcMvofGh90PcMpDmAdorCxmYRTnlpaVqlKkqUUkDgCDwPKPJfZZEnG1LWT010qXcUrmpRQLqPWdBr2R0dGdgfk/8n/qzrxXdV+3+x4Pcki5vrAcVgHUEi8dHR6U8wfRHA0u1K4To7bDSGW0yzdkNpCQNByEOq0fc46OjH+Y1o9qK9NfkdXdCjfkp7o6Oi3gY9So+Cvi+mWKk+TdffHR0OAmR1PJ8Oe15CGdbSFKVcX1jo6GVvYpFUYbcl5xK20rSW1XSpII4R4rT5GWTVJVIl2gnwhGmQW8qOjo0Y7Gc9zTCNJRu31og6ZdqeoNSZmG0PsllRLbqQpPDqMdHRn8nU9jJWJG0pk2bJAs4oDTl1Q5R0ZGXtp0Rw7o6Ojv4OXk9n9jy2gy1XeKEl0ONpDlulax0v1Q+ww4tqlvqQpSFeMXBdJsbZ46Ojil3sJ9sSfkVKmqUGnyXmlBYUhw5knpcwY8BrLDYcnEhtISlxQSMo015R0dHpvR/nOCtuinTyEhVwkA90XjZy85NSEwh5anUIVZKXCVAd146OjI9WPa/wx/iH9iOxcw2lK1pbSF5rZgkX4wXZ1UJqXq01LtTLzUupKFKaQ4Qgm/EjhHR0cNL4SMr1/8AxcyT8JedxVUkrdWtIXolSiRwiQT9TPf8UdHQHi3uHR9TYPP/AChxL6pmAeH+UdHREpkcyo79jX87Prgz2gcA0GYeuOjoREUnfqKYZK8iOjonElEgcQz0zT0tuysw7LOjgtlZSoagcREa2T4Cp/8APlKupz3x4cTHR0XU92bmF+Gi8YBl2lN5y0gqOuYpF4hsZPLdxFu1rUttKCUpUbgG/ECOjoopf4yP3Pq0v+SP7FrwHKszGJqIw6y26y5Mthba0gpUL8CDxj1LGaEtssISkJQl1wJSBYAZjoI6Oj1/rfZT/J8swm8ikzJKWKsAbAyblwOfCITCZPgLff8AHHR0eV4O/kvFNJsjujW/sdnFObJpMKUVBM1MpTc3sN6rQdkdHRxy3OmJfVx5H7K1lDuwfEhWhKyjcqTmF8p3g1HUY6OhQ70Tn2sxQybyrV/rRDClqKcUKAJAUzqBz746OjSRw8otjPP/AFzhRX1QR0dCAVl3FtTUotClIWl5BSpJsQQoaiPqEyoqZaJNyUJJJ7o6Oime6LYlcrulYlgOCkkHtFlaGGDaimuUwJNgZaxt9uqOjoqLifVpGe9ga1Jx7j2yiLzmuvaY6OhslDaR/9k=;" vertex="1" parent="1">
          <mxGeometry x="347" y="625.26" width="155.54" height="87.64" as="geometry" />
        </mxCell>
        <mxCell id="9KNl5ypowHNoxKs9fsh--20" value="&lt;b&gt;Siemen S7-300&lt;/b&gt;" style="text;html=1;resizable=0;autosize=1;align=center;verticalAlign=middle;points=[];fillColor=none;strokeColor=none;rounded=0;" vertex="1" parent="1">
          <mxGeometry x="362.77" y="598.26" width="110" height="30" as="geometry" />
        </mxCell>
        <mxCell id="9KNl5ypowHNoxKs9fsh--21" value="&lt;b&gt;Weintek Gateway G01&lt;/b&gt;" style="text;html=1;resizable=0;autosize=1;align=center;verticalAlign=middle;points=[];fillColor=none;strokeColor=none;rounded=0;" vertex="1" parent="1">
          <mxGeometry x="568.04" y="599.26" width="150" height="30" as="geometry" />
        </mxCell>
        <mxCell id="9KNl5ypowHNoxKs9fsh--22" value="&lt;b&gt;s7comm&lt;/b&gt;" style="text;html=1;resizable=0;autosize=1;align=center;verticalAlign=middle;points=[];fillColor=none;strokeColor=none;rounded=0;" vertex="1" parent="1">
          <mxGeometry x="498.03999999999996" y="640" width="70" height="30" as="geometry" />
        </mxCell>
        <mxCell id="9KNl5ypowHNoxKs9fsh--23" value="&lt;b&gt;OPC UA&lt;/b&gt;" style="text;html=1;resizable=0;autosize=1;align=center;verticalAlign=middle;points=[];fillColor=none;strokeColor=none;rounded=0;" vertex="1" parent="1">
          <mxGeometry x="715.3199999999999" y="640" width="70" height="30" as="geometry" />
        </mxCell>
        <mxCell id="9KNl5ypowHNoxKs9fsh--24" value="&lt;b&gt;Modbus TCP&lt;/b&gt;" style="text;html=1;resizable=0;autosize=1;align=center;verticalAlign=middle;points=[];fillColor=none;strokeColor=none;rounded=0;" vertex="1" parent="1">
          <mxGeometry x="694.9999999999999" y="490" width="100" height="30" as="geometry" />
        </mxCell>
        <mxCell id="9KNl5ypowHNoxKs9fsh--25" value="Physical Device" style="whiteSpace=wrap;html=1;shadow=1;fontSize=20;fillColor=#f5f5f5;strokeColor=#666666;strokeWidth=2;dashed=1;" vertex="1" parent="1">
          <mxGeometry x="437.56" y="344" width="190.96" height="60" as="geometry" />
        </mxCell>
        <mxCell id="9KNl5ypowHNoxKs9fsh--30" value="&lt;b&gt;input&lt;/b&gt;" style="text;html=1;resizable=0;autosize=1;align=center;verticalAlign=middle;points=[];fillColor=none;strokeColor=none;rounded=0;" vertex="1" parent="1">
          <mxGeometry x="719.9999999999999" y="520" width="50" height="30" as="geometry" />
        </mxCell>
        <mxCell id="9KNl5ypowHNoxKs9fsh--32" value="&lt;b&gt;input&lt;/b&gt;" style="text;html=1;resizable=0;autosize=1;align=center;verticalAlign=middle;points=[];fillColor=none;strokeColor=none;rounded=0;" vertex="1" parent="1">
          <mxGeometry x="719.9999999999999" y="670" width="50" height="30" as="geometry" />
        </mxCell>
        <mxCell id="9KNl5ypowHNoxKs9fsh--34" value="&lt;b&gt;output&lt;br&gt;&lt;/b&gt;" style="text;html=1;resizable=0;autosize=1;align=center;verticalAlign=middle;points=[];fillColor=none;strokeColor=none;rounded=0;" vertex="1" parent="1">
          <mxGeometry x="941.4999999999999" y="596.26" width="60" height="30" as="geometry" />
        </mxCell>
        <mxCell id="9KNl5ypowHNoxKs9fsh--36" value="&lt;b&gt;influxV2&lt;/b&gt;" style="text;html=1;resizable=0;autosize=1;align=center;verticalAlign=middle;points=[];fillColor=none;strokeColor=none;rounded=0;" vertex="1" parent="1">
          <mxGeometry x="936.4999999999999" y="555" width="70" height="30" as="geometry" />
        </mxCell>
        <mxCell id="9KNl5ypowHNoxKs9fsh--38" value="&lt;b&gt;visualization&lt;/b&gt;" style="text;html=1;resizable=0;autosize=1;align=center;verticalAlign=middle;points=[];fillColor=none;strokeColor=none;rounded=0;" vertex="1" parent="1">
          <mxGeometry x="1130" y="590" width="100" height="30" as="geometry" />
        </mxCell>
        <mxCell id="9KNl5ypowHNoxKs9fsh--39" value="&lt;b&gt;Query&lt;/b&gt;" style="text;whiteSpace=wrap;html=1;" vertex="1" parent="1">
          <mxGeometry x="1157.66" y="561.26" width="44.68" height="40" as="geometry" />
        </mxCell>
        <mxCell id="9KNl5ypowHNoxKs9fsh--40" value="&lt;font style=&quot;font-size: 18px;&quot;&gt;&lt;i&gt;github: onedevauto&lt;/i&gt;&lt;/font&gt;" style="text;html=1;resizable=0;autosize=1;align=center;verticalAlign=middle;points=[];fillColor=none;strokeColor=none;rounded=0;" vertex="1" parent="1">
          <mxGeometry x="360" y="515" width="180" height="40" as="geometry" />
        </mxCell>
      </root>
    </mxGraphModel>
  </diagram>
</mxfile>
